STARTFONT 2.1
FONT -FontForge-Saira-Bold-I-Normal--39-320-89-89-P-210-ISO10646-1
SIZE 32 89 89
FONTBOUNDINGBOX 63 61 -10 -16
COMMENT "Generated by fontforge, http://fontforge.sourceforge.net"
COMMENT "Copyright 2020 The Saira Project Authors (https://github.com/Omnibus-Type/Saira)"
STARTPROPERTIES 40
FOUNDRY "FontForge"
FAMILY_NAME "Saira"
WEIGHT_NAME "Bold"
SLANT "I"
SETWIDTH_NAME "Normal"
ADD_STYLE_NAME ""
PIXEL_SIZE 39
POINT_SIZE 320
RESOLUTION_X 89
RESOLUTION_Y 89
SPACING "P"
AVERAGE_WIDTH 210
CHARSET_REGISTRY "ISO10646"
CHARSET_ENCODING "1"
FONTNAME_REGISTRY ""
CHARSET_COLLECTIONS "ISO8859-2 ISO8859-9 ISO8859-4 Symbol ISO10646-1"
FONT_NAME "Saira-BoldItalic"
FACE_NAME "Saira Bold Italic"
COPYRIGHT "Copyright 2020 The Saira Project Authors (https://github.com/Omnibus-Type/Saira)"
FONT_VERSION "1.101"
FONT_ASCENT 31
FONT_DESCENT 8
UNDERLINE_POSITION -7
UNDERLINE_THICKNESS 2
X_HEIGHT 19
CAP_HEIGHT 26
RAW_ASCENT 800
RAW_DESCENT 200
ITALIC_ANGLE 4992
NORM_SPACE 10
RELATIVE_WEIGHT 70
RELATIVE_SETWIDTH 50
SUPERSCRIPT_X 2
SUPERSCRIPT_Y 13
SUPERSCRIPT_SIZE 23
SUBSCRIPT_X 0
SUBSCRIPT_Y 2
SUBSCRIPT_SIZE 23
AVG_LOWERCASE_WIDTH 214
AVG_UPPERCASE_WIDTH 259
ENDPROPERTIES
CHARS 892
STARTCHAR CR
ENCODING 13
SWIDTH 600 0
DWIDTH 23 0
BBX 1 1 0 0
BITMAP
00
ENDCHAR
STARTCHAR space
ENCODING 32
SWIDTH 258 0
DWIDTH 10 0
BBX 1 1 0 0
BITMAP
00
ENDCHAR
STARTCHAR exclam
ENCODING 33
SWIDTH 331 0
DWIDTH 13 0
BBX 13 27 1 0
BITMAP
03F8
07F0
07F0
07F0
07F0
07E0
0FE0
0FE0
0FE0
0FC0
0FC0
0FC0
0F80
0F80
1F80
1F00
1F00
1F00
0000
0000
0000
7F00
7F00
7F00
7E00
FE00
FE00
ENDCHAR
STARTCHAR quotedbl
ENCODING 34
SWIDTH 474 0
DWIDTH 18 0
BBX 14 10 5 17
BITMAP
7E7C
7CFC
7CFC
FCF8
F8F8
F8F8
F8F8
F8F0
F1F0
F1F0
ENDCHAR
STARTCHAR numbersign
ENCODING 35
SWIDTH 726 0
DWIDTH 28 0
BBX 27 27 1 0
BITMAP
000783C0
000F87C0
000F0780
001F0F80
001E0F00
003E0F00
003C1E00
07FFFFE0
0FFFFFC0
0FFFFFC0
0FFFFFC0
00F07800
01F0F800
01E0F000
03E0F000
03C1E000
7FFFFE00
7FFFFE00
7FFFFE00
FFFFFE00
0F078000
1F0F8000
1E0F0000
3E1F0000
3C1E0000
7C1E0000
783C0000
ENDCHAR
STARTCHAR dollar
ENCODING 36
SWIDTH 538 0
DWIDTH 21 0
BBX 20 27 1 0
BITMAP
001F00
001E00
003E00
01FFF0
07FFF0
0FFFE0
0FFFE0
1FFFE0
1FFC00
1FFC00
3FF800
3FFE00
3FFF80
1FFFC0
1FFFC0
03FFC0
01FFC0
01FFC0
01FFC0
79FF80
7FFF80
7FFF80
7FFF00
FFFC00
03C000
03C000
07C000
ENDCHAR
STARTCHAR percent
ENCODING 37
SWIDTH 885 0
DWIDTH 35 0
BBX 30 29 3 -1
BITMAP
0FE00000
1FF00078
3FF800F0
387801E0
787803C0
78780780
70780F00
F0701E00
F0F03C00
F0F03C00
F0F07800
F0E0F000
FFE1E000
FFC3C000
7F8787F8
000F0FFC
001E1FFC
001E1E1C
003C1C1C
00783C3C
00F03C3C
01E03C3C
03C03838
07807838
0F007878
0F007878
1E007FF0
7C003FF0
00001FC0
ENDCHAR
STARTCHAR ampersand
ENCODING 38
SWIDTH 749 0
DWIDTH 29 0
BBX 28 27 1 0
BITMAP
003FFF80
01FFFFC0
03FFFFC0
07FFFFC0
0FFFFFC0
0FE00000
0FC00000
1FC00000
1FC00000
1FC00000
1FC00000
0FFE3FF0
07FE3FF0
03FC7FF0
0FFC7FF0
3FFC7FE0
3F007E00
7F007E00
7E00FE00
7E00FE00
FE00FC00
FE00FC00
FFFFFC00
7FFFFC00
7FFFF800
3FFFF800
0FFFF800
ENDCHAR
STARTCHAR quotesingle
ENCODING 39
SWIDTH 274 0
DWIDTH 11 0
BBX 7 10 5 17
BITMAP
7E
7C
7C
7C
FC
F8
F8
F8
F0
F0
ENDCHAR
STARTCHAR parenleft
ENCODING 40
SWIDTH 357 0
DWIDTH 14 0
BBX 15 35 2 -6
BITMAP
001E
007C
00F8
01F0
03E0
07E0
07C0
0FC0
0F80
1F80
1F80
1F00
3F00
3F00
3E00
7E00
7E00
7E00
7E00
7C00
FC00
FC00
FC00
FC00
FC00
F800
F800
F800
7800
7C00
7C00
3C00
3E00
1E00
0F00
ENDCHAR
STARTCHAR parenright
ENCODING 41
SWIDTH 357 0
DWIDTH 14 0
BBX 15 35 -3 -6
BITMAP
00F0
00F8
0078
007C
003C
003E
003E
003E
003E
003E
003E
003E
003E
003E
007E
007E
007E
007E
007C
00FC
00FC
00FC
00F8
01F8
01F8
01F0
03F0
03E0
07E0
07C0
0F80
1F00
1E00
3C00
F800
ENDCHAR
STARTCHAR asterisk
ENCODING 42
SWIDTH 454 0
DWIDTH 18 0
BBX 15 15 3 12
BITMAP
00E0
01C0
01C2
31CE
7D9E
3FFE
0FF0
07C0
1FF0
7F7C
F33C
6318
0700
0700
0700
ENDCHAR
STARTCHAR plus
ENCODING 43
SWIDTH 546 0
DWIDTH 21 0
BBX 17 16 2 2
BITMAP
00F800
00F000
01F000
01F000
01F000
01F000
7FFF80
7FFF80
7FFF00
FFFF00
03E000
03C000
07C000
07C000
07C000
078000
ENDCHAR
STARTCHAR comma
ENCODING 44
SWIDTH 299 0
DWIDTH 12 0
BBX 10 12 -1 -6
BITMAP
1FC0
1F80
3F80
3F80
3F80
3F00
0F00
0F00
1F00
7E00
FC00
C000
ENDCHAR
STARTCHAR hyphen
ENCODING 45
SWIDTH 379 0
DWIDTH 15 0
BBX 12 5 2 9
BITMAP
7FF0
7FF0
FFE0
FFE0
FFE0
ENDCHAR
STARTCHAR period
ENCODING 46
SWIDTH 299 0
DWIDTH 12 0
BBX 8 6 1 0
BITMAP
7F
7E
FE
FE
FE
FC
ENDCHAR
STARTCHAR slash
ENCODING 47
SWIDTH 412 0
DWIDTH 16 0
BBX 24 31 -3 -2
BITMAP
00003F
00007E
00007C
0000FC
0001F8
0001F0
0003F0
0003E0
0007E0
0007C0
000F80
001F80
001F00
003F00
003E00
007E00
00FC00
00F800
01F800
01F000
03F000
03E000
07C000
0FC000
0F8000
1F8000
1F0000
3F0000
7E0000
7C0000
FC0000
ENDCHAR
STARTCHAR zero
ENCODING 48
SWIDTH 663 0
DWIDTH 26 0
BBX 24 27 2 0
BITMAP
01FFF8
07FFFE
0FFFFE
0FFFFF
1FFFFF
1FC0FF
3FC07F
3F807F
3F807F
3F007E
7F00FE
7F00FE
7F00FE
7F00FE
7E00FC
FE01FC
FE01FC
FE01FC
FE01FC
FC03F8
FC03F8
FE07F8
FFFFF0
FFFFF0
FFFFE0
7FFFC0
3FFF00
ENDCHAR
STARTCHAR one
ENCODING 49
SWIDTH 400 0
DWIDTH 16 0
BBX 14 27 2 0
BITMAP
007C
01FC
0FFC
3FF8
7FF8
7FF8
7FF8
7BF8
43F0
87F0
07F0
07F0
07F0
07E0
0FE0
0FE0
0FE0
0FE0
1FC0
1FC0
1FC0
1FC0
1F80
3F80
3F80
3F80
3F80
ENDCHAR
STARTCHAR two
ENCODING 50
SWIDTH 625 0
DWIDTH 24 0
BBX 24 27 0 0
BITMAP
00FFF8
03FFFE
03FFFF
03FFFF
07FFFF
06007F
00007F
00007F
00007F
0000FE
0001FE
000FFE
003FFC
01FFF8
07FFE0
0FFF80
1FFC00
1FF000
3F8000
3F0000
3F0000
7F0000
7FFFF8
7FFFF8
7FFFF0
FFFFF0
FFFFF0
ENDCHAR
STARTCHAR three
ENCODING 51
SWIDTH 620 0
DWIDTH 24 0
BBX 24 27 0 0
BITMAP
01FFF0
07FFFC
07FFFE
07FFFF
07FFFF
0800FF
00007F
00007F
00007F
0000FE
0001FE
00FFFC
00FFF0
00FFC0
01FFF0
01FFF8
0003F8
0001F8
0001F8
0003F8
0003F8
0007F8
7FFFF8
7FFFF0
FFFFE0
FFFFC0
FFFF00
ENDCHAR
STARTCHAR four
ENCODING 52
SWIDTH 664 0
DWIDTH 26 0
BBX 24 27 1 0
BITMAP
0007F8
000FF0
001FE0
001FC0
003F80
007F80
00FF00
00FE00
01FC00
03F800
07F87C
07F07C
0FE0F8
1FC1F8
3F81F8
3F03F8
7FFFFF
FFFFFF
FFFFFE
FFFFFE
FFFFFE
FFFFFE
000FE0
000FE0
000FE0
000FE0
000FC0
ENDCHAR
STARTCHAR five
ENCODING 53
SWIDTH 639 0
DWIDTH 25 0
BBX 23 27 1 0
BITMAP
03FFFE
03FFFE
07FFFE
07FFFE
07FFFE
07E000
07C000
0FC000
0FC000
0FC000
0FFFC0
0FFFF0
1FFFF8
1FFFFC
1FFFFC
1807FC
0001FC
0001FC
0001FC
0001F8
0003F8
0007F8
7FFFF0
7FFFF0
FFFFE0
FFFFC0
FFFF00
ENDCHAR
STARTCHAR six
ENCODING 54
SWIDTH 676 0
DWIDTH 26 0
BBX 24 27 2 0
BITMAP
007FFE
01FFFF
03FFFF
07FFFF
0FFFFF
1FF000
1FC000
1FC000
3F8000
3F8000
3F8F80
3F7FF8
7FFFFC
7FFFFC
7FFFFE
7F81FE
FF00FE
FE00FE
FE00FC
FE00FC
FE01FC
FE01FC
FFFFF8
FFFFF8
7FFFF0
3FFFE0
1FFF80
ENDCHAR
STARTCHAR seven
ENCODING 55
SWIDTH 584 0
DWIDTH 23 0
BBX 23 27 2 0
BITMAP
1FFFFE
1FFFFE
3FFFFC
3FFFFC
3FFFFC
0003F8
0007F8
0007F0
000FE0
001FE0
001FC0
003FC0
007F80
007F00
00FF00
01FE00
01FC00
03FC00
07F800
07F000
0FF000
1FE000
1FE000
3FC000
7F8000
7F8000
FF0000
ENDCHAR
STARTCHAR eight
ENCODING 56
SWIDTH 695 0
DWIDTH 27 0
BBX 26 27 1 0
BITMAP
003FFC00
01FFFF00
03FFFF80
07FFFFC0
0FFFFFC0
0FE01FC0
0FE01FC0
0FC01FC0
1FC01FC0
0FC01F80
0FC03F80
0FFFFF00
07FFFC00
01FFF000
0FFFFC00
1FFFFE00
3F807F00
7F007F00
7F007F00
7F007F00
7E00FE00
FF00FE00
7FFFFE00
7FFFFC00
7FFFF800
3FFFF000
0FFFC000
ENDCHAR
STARTCHAR nine
ENCODING 57
SWIDTH 676 0
DWIDTH 26 0
BBX 24 27 2 0
BITMAP
00FFF0
07FFFC
0FFFFE
1FFFFF
1FFFFF
3FC07F
3F807F
3F007F
3F007F
7F007F
7F00FE
7F81FE
7FFFFE
3FFFFE
3FFFFE
1FFEFC
07F9FC
0001FC
0001FC
0003F8
0003F8
0007F8
FFFFF0
FFFFE0
FFFFE0
FFFF80
FFFE00
ENDCHAR
STARTCHAR colon
ENCODING 58
SWIDTH 299 0
DWIDTH 12 0
BBX 11 20 1 0
BITMAP
0FE0
0FC0
1FC0
1FC0
1FC0
1F80
0000
0000
0000
0000
0000
0000
0000
0000
7F00
7E00
FE00
FE00
FE00
FC00
ENDCHAR
STARTCHAR semicolon
ENCODING 59
SWIDTH 299 0
DWIDTH 12 0
BBX 13 26 -1 -6
BITMAP
03F8
03F0
07F0
07F0
07F0
07E0
0000
0000
0000
0000
0000
0000
0000
0000
1FC0
1F80
3F80
3F80
3F80
3F00
0F00
0F00
1F00
7E00
FC00
C000
ENDCHAR
STARTCHAR less
ENCODING 60
SWIDTH 547 0
DWIDTH 21 0
BBX 18 16 2 2
BITMAP
000040
0003C0
001FC0
00FFC0
07FF80
3FFC00
7FE000
7F0000
7E0000
7F8000
FFF000
1FFC00
07FF00
00FE00
003E00
000600
ENDCHAR
STARTCHAR equal
ENCODING 61
SWIDTH 546 0
DWIDTH 21 0
BBX 19 12 1 4
BITMAP
1FFFE0
1FFFE0
1FFFC0
3FFFC0
000000
000000
000000
000000
7FFF80
7FFF80
7FFF80
FFFF00
ENDCHAR
STARTCHAR greater
ENCODING 62
SWIDTH 547 0
DWIDTH 21 0
BBX 18 16 1 2
BITMAP
080000
1F0000
1FC000
1FF000
1FFE00
03FF80
007FC0
001FC0
001FC0
00FF80
07FF80
3FFC00
7FE000
7F0000
780000
E00000
ENDCHAR
STARTCHAR question
ENCODING 63
SWIDTH 525 0
DWIDTH 20 0
BBX 18 27 3 0
BITMAP
1FFE00
3FFF80
3FFFC0
3FFFC0
3FFFC0
401FC0
001FC0
001FC0
001FC0
003F80
00FF80
03FF00
07FE00
0FF800
0FC000
1F8000
1F8000
1F8000
000000
000000
000000
3F0000
7F0000
7F0000
7F0000
7E0000
FE0000
ENDCHAR
STARTCHAR at
ENCODING 64
SWIDTH 957 0
DWIDTH 37 0
BBX 34 31 2 -4
BITMAP
003FFFF800
01FFFFFF00
03F8001F80
0780000380
0F000001C0
0E000001C0
1C000001C0
1C07E7E1C0
1C1FF7C1C0
181FFFC1C0
383FFFC1C0
383F1FC180
387E0F8180
307C0F8380
707C0F8380
707C1F8380
70FC1F8300
70FC1F0300
60FC1F0700
60FC3F0700
E0FFFF0600
E0FFFF0E00
E0FFFFFC00
E07F3FF800
E000000000
E000000000
E000000000
7000000000
7E00000000
3FFFFC0000
07FFFC0000
ENDCHAR
STARTCHAR A
ENCODING 65
SWIDTH 706 0
DWIDTH 28 0
BBX 27 27 -2 0
BITMAP
0001FF00
0003FF00
0003FF00
0007FF00
000FFF80
000FFF80
001FFF80
001F9F80
003F9F80
003F1F80
007F1F80
007E1F80
00FE1F80
00FC1FC0
01FC1FC0
01F81FC0
03F80FC0
07FFFFC0
07FFFFC0
0FFFFFC0
0FFFFFC0
1FFFFFE0
1FC00FE0
3F800FE0
3F800FE0
7F000FE0
FE000FE0
ENDCHAR
STARTCHAR B
ENCODING 66
SWIDTH 674 0
DWIDTH 26 0
BBX 26 27 1 0
BITMAP
07FFFC00
07FFFF00
07FFFF80
07FFFFC0
07FFFFC0
0FE03FC0
0FE01FC0
0FE01FC0
0FC03F80
0FC03F80
1FC07F00
1FFFFE00
1FFFFC00
1FFFF000
3FFFFC00
3FFFFE00
3F80FE00
3F807E00
3F00FE00
7F00FE00
7F00FE00
7F01FE00
7FFFFC00
7FFFFC00
FFFFF800
FFFFF000
FFFFC000
ENDCHAR
STARTCHAR C
ENCODING 67
SWIDTH 573 0
DWIDTH 22 0
BBX 22 27 2 0
BITMAP
007FFC
03FFFC
07FFFC
0FFFF8
0FFFF8
1FE000
1FC000
3F8000
3F8000
3F8000
7F0000
7F0000
7F0000
7F0000
7E0000
FE0000
FE0000
FE0000
FE0000
FE0000
FE0000
FF0000
FFFFC0
FFFF80
7FFF80
7FFF80
1FFF80
ENDCHAR
STARTCHAR D
ENCODING 68
SWIDTH 690 0
DWIDTH 27 0
BBX 26 27 1 0
BITMAP
07FFF000
07FFFE00
07FFFF80
07FFFF80
07FFFF80
0FE07FC0
0FE03FC0
0FE01FC0
0FE01F80
0FC03F80
1FC03F80
1FC03F80
1FC03F80
1FC03F80
3F807F00
3F807F00
3F807F00
3F807F00
3F00FE00
7F00FE00
7F00FE00
7F03FE00
7FFFFC00
7FFFFC00
FFFFF800
FFFFF000
FFFF8000
ENDCHAR
STARTCHAR E
ENCODING 69
SWIDTH 611 0
DWIDTH 24 0
BBX 25 27 1 0
BITMAP
07FFFF80
07FFFF00
07FFFF00
07FFFF00
07FFFF00
0FE00000
0FE00000
0FE00000
0FE00000
0FC00000
1FC00000
1FFFF000
1FFFF000
1FFFF000
3FFFF000
3FFFF000
3F800000
3F800000
3F000000
7F000000
7F000000
7F000000
7FFFF000
7FFFF000
FFFFF000
FFFFE000
FFFFE000
ENDCHAR
STARTCHAR F
ENCODING 70
SWIDTH 571 0
DWIDTH 22 0
BBX 24 27 1 0
BITMAP
07FFFF
07FFFF
07FFFE
07FFFE
07FFFE
0FE000
0FE000
0FE000
0FE000
0FC000
1FC000
1FC000
1FFFF0
1FFFF0
3FFFE0
3FFFE0
3FFFE0
3F8000
3F0000
7F0000
7F0000
7F0000
7F0000
7E0000
FE0000
FE0000
FE0000
ENDCHAR
STARTCHAR G
ENCODING 71
SWIDTH 674 0
DWIDTH 26 0
BBX 25 27 2 0
BITMAP
007FFE00
03FFFF80
07FFFF80
0FFFFF00
0FFFFF00
1FE00100
1FC00000
3F800000
3F800000
3F000000
7F000000
7F000000
7F0FFE00
7E0FFC00
FE0FFC00
FE0FFC00
FE00FC00
FE01FC00
FE01F800
FE01F800
FE01F800
FE01F800
FFFFF800
FFFFF000
7FFFF000
3FFFF000
0FFFF000
ENDCHAR
STARTCHAR H
ENCODING 72
SWIDTH 724 0
DWIDTH 28 0
BBX 28 27 1 0
BITMAP
07F007F0
07F007F0
07F007F0
07F007E0
07E00FE0
0FE00FE0
0FE00FE0
0FE00FE0
0FE00FC0
0FC01FC0
1FC01FC0
1FFFFFC0
1FFFFFC0
1FFFFF80
3FFFFF80
3FFFFF80
3F803F80
3F803F00
3F007F00
7F007F00
7F007F00
7F007F00
7F007E00
7E00FE00
FE00FE00
FE00FE00
FE00FE00
ENDCHAR
STARTCHAR I
ENCODING 73
SWIDTH 318 0
DWIDTH 12 0
BBX 12 27 1 0
BITMAP
07F0
07F0
07F0
07F0
07E0
0FE0
0FE0
0FE0
0FE0
0FC0
1FC0
1FC0
1FC0
1FC0
3F80
3F80
3F80
3F80
3F00
7F00
7F00
7F00
7F00
7E00
FE00
FE00
FE00
ENDCHAR
STARTCHAR J
ENCODING 74
SWIDTH 405 0
DWIDTH 16 0
BBX 18 27 -1 0
BITMAP
001FC0
001FC0
003F80
003F80
003F80
003F80
003F80
007F00
007F00
007F00
007F00
007E00
00FE00
00FE00
00FE00
00FE00
01FC00
01FC00
01FC00
01FC00
03F800
07F800
7FF800
7FF000
FFF000
FFE000
FF8000
ENDCHAR
STARTCHAR K
ENCODING 75
SWIDTH 699 0
DWIDTH 27 0
BBX 29 27 1 0
BITMAP
07F003F8
07F007F0
07F00FE0
07F01FC0
07E03F80
0FE07F80
0FE0FF00
0FE1FE00
0FE3FC00
0FC3F800
1FC7F000
1FFFE000
1FFFC000
1FFF8000
3FFFC000
3FFFC000
3F8FE000
3F8FE000
3F0FF000
7F07F000
7F07F800
7F03F800
7F03FC00
7E01FC00
FE01FE00
FE00FE00
FE00FF00
ENDCHAR
STARTCHAR L
ENCODING 76
SWIDTH 540 0
DWIDTH 21 0
BBX 19 27 1 0
BITMAP
07F000
07F000
07F000
07F000
07E000
0FE000
0FE000
0FE000
0FE000
0FC000
1FC000
1FC000
1FC000
1FC000
3F8000
3F8000
3F8000
3F8000
3F0000
7F0000
7F0000
7F0020
7FFFC0
7FFFC0
FFFFC0
FFFFC0
FFFF80
ENDCHAR
STARTCHAR M
ENCODING 77
SWIDTH 917 0
DWIDTH 36 0
BBX 36 27 1 0
BITMAP
07FE003FF0
07FE003FE0
07FE007FE0
07FE00FFE0
07FE00FFE0
0FFE01FFE0
0FFF01FFC0
0FFF03FFC0
0FFF03FFC0
0FFF07FFC0
1FFF0FDF80
1FBF0FDF80
1F9F1FBF80
1F9F9FBF80
3F9FBF3F80
3F9FBF3F00
3F1FFE3F00
3F1FFC7F00
3F1FFC7F00
7F1FF87F00
7F0FF87E00
7E0FF07E00
7E0FF0FE00
7E0FE0FE00
FE0FC0FC00
FC0FC0FC00
FC0F81FC00
ENDCHAR
STARTCHAR N
ENCODING 78
SWIDTH 729 0
DWIDTH 28 0
BBX 28 27 1 0
BITMAP
07F803F0
07F803F0
07FC07F0
07FC07F0
07FC07E0
0FFE07E0
0FFE07E0
0FFF0FE0
0FFF0FE0
0FFF0FC0
1FFF8FC0
1FFF9FC0
1F9FDFC0
1F9FDFC0
3F9FDF80
3F8FFF80
3F0FFF80
3F0FFF80
3F07FF00
7F07FF00
7F03FF00
7E03FF00
7E03FF00
7E01FE00
FE01FE00
FE00FE00
FC00FE00
ENDCHAR
STARTCHAR O
ENCODING 79
SWIDTH 720 0
DWIDTH 28 0
BBX 26 27 2 0
BITMAP
00FFFC00
03FFFF00
07FFFF80
0FFFFF80
1FFFFF80
1FE03FC0
1FC01FC0
3F801FC0
3F801F80
3F803F80
3F003F80
7F003F80
7F003F80
7F003F80
7F007F00
FE007F00
FE007F00
FE007F00
FE00FE00
FE00FE00
FE00FE00
FE01FC00
FFFFFC00
FFFFF800
FFFFF800
7FFFF000
1FFFC000
ENDCHAR
STARTCHAR P
ENCODING 80
SWIDTH 649 0
DWIDTH 25 0
BBX 25 27 1 0
BITMAP
07FFF800
07FFFF00
07FFFF80
07FFFF80
07FFFF80
0FE07F80
0FE03F80
0FE03F80
0FE03F80
0FC03F80
1FC03F80
1FC07F00
1FC07F00
1FFFFF00
3FFFFE00
3FFFFE00
3FFFF800
3FFFF000
3F000000
7F000000
7F000000
7F000000
7F000000
7E000000
FE000000
FE000000
FE000000
ENDCHAR
STARTCHAR Q
ENCODING 81
SWIDTH 720 0
DWIDTH 28 0
BBX 26 31 2 -4
BITMAP
00FFFC00
03FFFF00
07FFFF80
0FFFFF80
1FFFFF80
1FE03FC0
1FC01FC0
3F801FC0
3F801F80
3F803F80
3F003F80
7F003F80
7F003F80
7F003F80
7F007F00
FE007F00
FE007F00
FE007F00
FE7EFE00
FE7FFE00
FE3FFE00
FE3FFC00
FFFFFC00
FFFFF800
FFFFF800
7FFFF000
1FFFE000
0007F000
0007F000
0003F800
0003FC00
ENDCHAR
STARTCHAR R
ENCODING 82
SWIDTH 679 0
DWIDTH 26 0
BBX 26 27 1 0
BITMAP
07FFFC00
07FFFF00
07FFFF80
07FFFFC0
07FFFFC0
0FE03FC0
0FE01FC0
0FE01FC0
0FE01FC0
0FC03F80
1FC03F80
1FC03F80
1FC3FF00
1FFFFF00
3FFFFE00
3FFFFC00
3FFFF000
3F83F000
3F03F000
7F03F800
7F03F800
7F03F800
7F03F800
7E01F800
FE01FC00
FE01FC00
FE01FC00
ENDCHAR
STARTCHAR S
ENCODING 83
SWIDTH 631 0
DWIDTH 25 0
BBX 24 27 1 0
BITMAP
007FFF
03FFFF
07FFFF
07FFFE
0FFFFE
0FE000
1FC000
1FC000
1FC000
1FC000
1FFC00
1FFFE0
1FFFF8
1FFFFC
0FFFFC
03FFFC
000FFC
0001FC
0001FC
0001F8
0003F8
0003F8
7FFFF8
FFFFF0
FFFFE0
FFFFC0
FFFF80
ENDCHAR
STARTCHAR T
ENCODING 84
SWIDTH 591 0
DWIDTH 23 0
BBX 23 27 3 0
BITMAP
7FFFFE
7FFFFE
7FFFFE
FFFFFC
FFFFFC
FFFFFC
01FC00
01FC00
01FC00
01FC00
01F800
03F800
03F800
03F800
03F800
07F000
07F000
07F000
07F000
07E000
0FE000
0FE000
0FE000
0FE000
0FC000
1FC000
1FC000
ENDCHAR
STARTCHAR U
ENCODING 85
SWIDTH 703 0
DWIDTH 27 0
BBX 26 27 2 0
BITMAP
0FE01FC0
0FE01FC0
0FE01FC0
0FC01FC0
1FC01F80
1FC03F80
1FC03F80
1FC03F80
1F803F80
3F807F00
3F807F00
3F807F00
3F807F00
7F007E00
7F00FE00
7F00FE00
7F00FE00
7E00FE00
7E00FC00
FE01FC00
FE01FC00
FF03FC00
FFFFF800
7FFFF800
7FFFF000
3FFFE000
1FFF8000
ENDCHAR
STARTCHAR V
ENCODING 86
SWIDTH 677 0
DWIDTH 26 0
BBX 26 27 4 0
BITMAP
FE003FC0
FE003F80
FE007F00
FE007F00
FE00FE00
FE00FE00
7E01FC00
7E01FC00
7E03F800
7F03F800
7F07F000
7F07F000
7F0FE000
7F0FE000
7F1FC000
7F1F8000
3F3F8000
3F3F0000
3F7F0000
3F7E0000
3FFE0000
3FFC0000
3FFC0000
3FF80000
3FF80000
3FF00000
1FF00000
ENDCHAR
STARTCHAR W
ENCODING 87
SWIDTH 1003 0
DWIDTH 39 0
BBX 38 27 4 0
BITMAP
FE01FE01FC
FE01FE01FC
FE01FE03F8
FE03FE03F8
FE03FE07F0
FE07FE07F0
FE07FE07E0
FE0FFE0FE0
FE0FFE0FE0
FE1FFE1FC0
FE1FFE1FC0
FE1F7E1F80
FE3F7E3F80
FE3E7E3F00
FE7E7E7F00
FE7C7E7E00
FEFC7E7E00
FEF87EFE00
FFF83EFC00
FFF83FFC00
FFF03FF800
FFF03FF800
7FE03FF000
7FE03FF000
7FC03FE000
7FC03FE000
7F803FE000
ENDCHAR
STARTCHAR X
ENCODING 88
SWIDTH 705 0
DWIDTH 28 0
BBX 31 27 -1 0
BITMAP
07F800FE
03F801FC
03FC03F8
01FC07F8
01FE0FF0
00FE1FE0
00FF3FC0
007F7F80
007FFF00
003FFE00
003FFC00
001FFC00
001FF800
001FF000
003FF000
003FF800
007FF800
00FFF800
01FFFC00
03FDFC00
07F9FE00
0FF0FE00
1FE0FF00
1FC07F00
3F807F80
7F003F80
FF003FC0
ENDCHAR
STARTCHAR Y
ENCODING 89
SWIDTH 654 0
DWIDTH 26 0
BBX 25 27 4 0
BITMAP
FE003F80
FE007F00
FE00FE00
7E01FC00
7F01FC00
7F03F800
3F07F000
3F07E000
3F8FE000
1F9FC000
1FBF8000
1FFF0000
1FFF0000
0FFE0000
0FFC0000
0FFC0000
07F80000
07F00000
07F00000
07F00000
0FE00000
0FE00000
0FE00000
0FE00000
0FC00000
1FC00000
1FC00000
ENDCHAR
STARTCHAR Z
ENCODING 90
SWIDTH 628 0
DWIDTH 24 0
BBX 26 27 0 0
BITMAP
03FFFFC0
07FFFFC0
07FFFFC0
07FFFF80
07FFFF80
0000FF80
0001FF00
0003FE00
0007FC00
000FF800
001FF000
003FE000
007FC000
007F8000
00FF0000
01FE0000
03FC0000
07F80000
0FF00000
1FF00000
3FE00000
7FC00000
FFFFFC00
FFFFF800
FFFFF800
FFFFF800
FFFFF800
ENDCHAR
STARTCHAR bracketleft
ENCODING 91
SWIDTH 384 0
DWIDTH 15 0
BBX 17 35 0 -6
BITMAP
01FF80
01FF80
01FF80
03FF80
03F000
03F000
03E000
03E000
07E000
07E000
07C000
07C000
07C000
0FC000
0FC000
0F8000
0F8000
0F8000
1F8000
1F8000
1F0000
1F0000
3F0000
3F0000
3F0000
3E0000
3E0000
7E0000
7E0000
7C0000
7C0000
7FE000
FFE000
FFC000
FFC000
ENDCHAR
STARTCHAR backslash
ENCODING 92
SWIDTH 412 0
DWIDTH 16 0
BBX 10 31 4 -2
BITMAP
F800
F800
FC00
7C00
7C00
7C00
7C00
7C00
7E00
7E00
3E00
3E00
3E00
3E00
3E00
3F00
1F00
1F00
1F00
1F00
1F00
1F80
0F80
0F80
0F80
0F80
0F80
0F80
0FC0
07C0
07C0
ENDCHAR
STARTCHAR bracketright
ENCODING 93
SWIDTH 384 0
DWIDTH 15 0
BBX 18 35 -2 -6
BITMAP
01FFC0
01FF80
01FF80
01FF80
001F80
001F80
001F00
001F00
003F00
003F00
003E00
003E00
003E00
007E00
007E00
007C00
007C00
007C00
00FC00
00FC00
00F800
00F800
01F800
01F800
01F800
01F000
01F000
03F000
03F000
03E000
03E000
7FE000
7FE000
FFE000
FFC000
ENDCHAR
STARTCHAR asciicircum
ENCODING 94
SWIDTH 440 0
DWIDTH 17 0
BBX 15 12 3 17
BITMAP
01F0
03F8
03F8
07F8
0FF8
0F3C
1E3C
3E3C
3C3C
7C3C
F81E
F01E
ENDCHAR
STARTCHAR underscore
ENCODING 95
SWIDTH 388 0
DWIDTH 15 0
BBX 16 4 -3 -7
BITMAP
7FFF
7FFF
FFFF
FFFE
ENDCHAR
STARTCHAR grave
ENCODING 96
SWIDTH 248 0
DWIDTH 10 0
BBX 8 6 4 22
BITMAP
FC
7E
3E
3F
1F
0F
ENDCHAR
STARTCHAR a
ENCODING 97
SWIDTH 589 0
DWIDTH 23 0
BBX 22 20 1 0
BITMAP
07F8FC
0FFDFC
1FFFF8
1FFFF8
3FFFF8
3F83F8
3F03F8
7F03F0
7E03F0
7E03F0
7E07F0
FE07F0
FE07E0
FC07E0
FE0FE0
FFFFE0
FFFFC0
FFFFC0
7FEFC0
3FCFC0
ENDCHAR
STARTCHAR b
ENCODING 98
SWIDTH 598 0
DWIDTH 23 0
BBX 21 29 1 0
BITMAP
03F000
07F000
07E000
07E000
07E000
07E000
0FE000
0FC000
0FC000
0FCFE0
1FDFF0
1FFFF8
1FFFF8
1FFFF8
1FC1F8
3F81F8
3F81F8
3F01F8
3F01F8
3F03F8
7F03F0
7E03F0
7E03F0
7F07F0
FFFFE0
FFFFE0
FFFFC0
FDFF80
FCFF00
ENDCHAR
STARTCHAR c
ENCODING 99
SWIDTH 473 0
DWIDTH 18 0
BBX 18 20 1 0
BITMAP
03FFC0
07FFC0
0FFF80
1FFF80
3FF380
3F8000
3F0000
7F0000
7F0000
7E0000
7E0000
7E0000
FE0000
FE0000
FE0000
FF0600
FFFE00
7FFC00
7FFC00
1FFC00
ENDCHAR
STARTCHAR d
ENCODING 100
SWIDTH 598 0
DWIDTH 23 0
BBX 24 29 1 0
BITMAP
00007F
00007F
00007E
00007E
00007E
0000FE
0000FE
0000FC
0000FC
03F8FC
0FFDFC
1FFFF8
1FFFF8
3FFFF8
3F83F8
3F03F8
7F03F0
7E03F0
7E03F0
7E07F0
FE07F0
FE07E0
FC07E0
FE0FE0
FFFFE0
FFFFC0
FFFFC0
7FEFC0
3FCFC0
ENDCHAR
STARTCHAR e
ENCODING 101
SWIDTH 568 0
DWIDTH 22 0
BBX 20 20 1 0
BITMAP
01FFC0
07FFE0
0FFFF0
1FFFF0
1FC7F0
3F03F0
3F03F0
3F03F0
7FFFE0
7FFFE0
7FFFE0
7FFFE0
FE0000
FC0000
FE0000
FF8380
FFFF80
7FFF80
7FFF80
1FFF80
ENDCHAR
STARTCHAR f
ENCODING 102
SWIDTH 431 0
DWIDTH 17 0
BBX 22 37 -2 -8
BITMAP
0003FC
000FFC
001FF8
003FF8
003FC0
003F00
007F00
007F00
007E00
07FFF0
07FFF0
07FFE0
0FFFE0
0FFFE0
00FC00
01FC00
01FC00
01F800
01F800
01F800
03F800
03F800
03F000
03F000
03F000
07F000
07F000
07E000
07E000
0FE000
0FE000
0FC000
7FC000
FFC000
FF8000
FF0000
F80000
ENDCHAR
STARTCHAR g
ENCODING 103
SWIDTH 596 0
DWIDTH 23 0
BBX 23 28 0 -8
BITMAP
01FC7E
03FE7E
07FFFC
0FFFFC
0FFFFC
1FC3FC
1F81FC
1F81F8
3F81F8
3F81F8
3F03F8
3F03F0
3F03F0
3F07F0
7F8FF0
7FFFF0
3FFFE0
3FFFE0
3FF7E0
0FCFE0
000FC0
000FC0
001FC0
7FFF80
7FFF80
FFFF00
FFFE00
FFF000
ENDCHAR
STARTCHAR h
ENCODING 104
SWIDTH 603 0
DWIDTH 24 0
BBX 22 29 0 0
BITMAP
01F800
03F800
03F000
03F000
03F000
07F000
07F000
07E000
07E000
07E7F0
0FEFFC
0FFFFC
0FFFFC
0FFFFC
0FE1FC
1FC0FC
1FC1FC
1F81FC
1F81F8
3F81F8
3F81F8
3F03F8
3F03F8
3F03F0
7F03F0
7F03F0
7E07F0
7E07E0
FE07E0
ENDCHAR
STARTCHAR i
ENCODING 105
SWIDTH 289 0
DWIDTH 11 0
BBX 12 29 1 0
BITMAP
07F0
07F0
07F0
07E0
07E0
0000
0000
0000
0000
0FC0
1FC0
1FC0
1F80
1F80
1F80
3F80
3F80
3F00
3F00
3F00
7F00
7E00
7E00
7E00
FE00
FE00
FC00
FC00
FC00
ENDCHAR
STARTCHAR j
ENCODING 106
SWIDTH 296 0
DWIDTH 12 0
BBX 17 37 -4 -8
BITMAP
001F80
001F80
003F80
003F80
003F00
000000
000000
000000
000000
007E00
007E00
00FE00
00FE00
00FC00
00FC00
00FC00
01FC00
01FC00
01F800
01F800
01F800
03F800
03F800
03F000
03F000
07F000
07F000
07E000
07E000
07E000
0FE000
0FE000
7FC000
7FC000
FF8000
FF0000
F80000
ENDCHAR
STARTCHAR k
ENCODING 107
SWIDTH 595 0
DWIDTH 23 0
BBX 23 29 1 0
BITMAP
03F000
07F000
07E000
07E000
07E000
0FE000
0FE000
0FC000
0FC000
0FC0FE
1FC1FC
1F83F8
1F83F0
1F87E0
1F8FC0
3F9FC0
3F3F80
3FFF00
3FFE00
3FFE00
7FFE00
7E7F00
7E7F00
7E3F80
FE3F80
FE1FC0
FC1FC0
FC0FE0
FC0FE0
ENDCHAR
STARTCHAR l
ENCODING 108
SWIDTH 286 0
DWIDTH 11 0
BBX 12 29 1 0
BITMAP
03F0
07F0
07E0
07E0
07E0
0FE0
0FE0
0FC0
0FC0
0FC0
1FC0
1FC0
1F80
1F80
1F80
3F80
3F80
3F00
3F00
3F00
7F00
7E00
7E00
7E00
FE00
FE00
FC00
FC00
FC00
ENDCHAR
STARTCHAR m
ENCODING 109
SWIDTH 888 0
DWIDTH 35 0
BBX 33 20 0 0
BITMAP
07E7F07F00
0FCFF9FF80
0FDFFFFF80
0FFFFFFF80
0FFFFFFF80
0FE1FC1F80
1FC1FC1F80
1FC1F81F80
1F81F83F80
1F83F83F00
1F83F83F00
3F83F03F00
3F03F03F00
3F03F07F00
3F07F07E00
7F07E07E00
7F07E07E00
7E07E0FE00
7E07E0FE00
FE0FE0FC00
ENDCHAR
STARTCHAR n
ENCODING 110
SWIDTH 603 0
DWIDTH 24 0
BBX 22 20 0 0
BITMAP
07E7F0
0FCFFC
0FDFFC
0FFFFC
0FFFFC
0FE1FC
1FC0FC
1FC1FC
1F81FC
1F81F8
1F81F8
3F81F8
3F03F8
3F03F8
3F03F0
7F03F0
7F03F0
7E07F0
7E07E0
FE07E0
ENDCHAR
STARTCHAR o
ENCODING 111
SWIDTH 573 0
DWIDTH 22 0
BBX 21 20 1 0
BITMAP
03FFC0
0FFFF0
1FFFF0
3FFFF0
3FEFF8
3F03F8
7F03F0
7E03F0
7E03F0
7E03F0
FE07F0
FE07E0
FC07E0
FC07E0
FC0FE0
FE1FC0
FFFFC0
FFFF80
7FFF80
3FFE00
ENDCHAR
STARTCHAR p
ENCODING 112
SWIDTH 598 0
DWIDTH 23 0
BBX 23 28 -1 -8
BITMAP
03F3F8
03F7FE
07EFFE
07FFFE
07FFFE
07F07E
0FE07E
0FE07E
0FC07E
0FC07E
0FC0FE
1FC0FE
1FC0FC
1F80FC
1FC1FC
1FFFF8
3FFFF8
3FFFF0
3F7FE0
3F3FC0
3F0000
7F0000
7E0000
7E0000
7E0000
FE0000
FE0000
FC0000
ENDCHAR
STARTCHAR q
ENCODING 113
SWIDTH 585 0
DWIDTH 23 0
BBX 21 28 1 -8
BITMAP
03F9F8
0FFDF8
1FFDF8
1FFFF8
3FFFF0
3F87F0
7F07F0
7E07F0
7E07F0
7E07E0
FE07E0
FE07E0
FC0FE0
FC0FE0
FE1FC0
FFFFC0
FFFFC0
FFFFC0
7FFF80
3F9F80
001F80
001F80
003F80
003F00
003F00
003F00
007F00
007F00
ENDCHAR
STARTCHAR r
ENCODING 114
SWIDTH 416 0
DWIDTH 16 0
BBX 18 20 0 0
BITMAP
07E7C0
0FCF80
0FDF80
0FFF80
0FFF80
0FFF00
1FE000
1FC000
1FC000
1F8000
1F8000
3F8000
3F0000
3F0000
3F0000
7F0000
7F0000
7E0000
7E0000
FE0000
ENDCHAR
STARTCHAR s
ENCODING 115
SWIDTH 519 0
DWIDTH 20 0
BBX 20 20 0 0
BITMAP
03FFF0
07FFE0
0FFFE0
1FFFE0
1FC060
1F8000
1F0000
3FE000
3FFF00
3FFFC0
1FFFC0
0FFFC0
003FC0
000FC0
000FC0
003F80
7FFF80
7FFF80
7FFF00
FFFC00
ENDCHAR
STARTCHAR t
ENCODING 116
SWIDTH 422 0
DWIDTH 16 0
BBX 15 26 2 0
BITMAP
03F0
07F0
07F0
07E0
07E0
07E0
7FFE
FFFE
FFFE
FFFE
FFFC
1FC0
1F80
1F80
1F80
3F80
3F80
3F00
3F00
3F00
7F00
7F80
7FF0
7FF0
3FF0
0FE0
ENDCHAR
STARTCHAR u
ENCODING 117
SWIDTH 591 0
DWIDTH 23 0
BBX 22 20 1 0
BITMAP
1FC0FC
1F81FC
1F81F8
1F81F8
3F81F8
3F81F8
3F03F8
3F03F0
3F03F0
7F03F0
7E07F0
7E07F0
7E07E0
7E07E0
FE0FE0
FFFFE0
FFFFE0
7FFFC0
7FEFC0
3F8FC0
ENDCHAR
STARTCHAR v
ENCODING 118
SWIDTH 561 0
DWIDTH 22 0
BBX 21 20 3 0
BITMAP
FC03F8
FC07F0
FC07E0
FC0FE0
FC0FC0
FC0FC0
FC1F80
7C1F80
7E3F00
7E3F00
7E7E00
7E7E00
7EFC00
7EFC00
7FF800
7FF800
7FF000
7FF000
3FE000
3FC000
ENDCHAR
STARTCHAR w
ENCODING 119
SWIDTH 855 0
DWIDTH 33 0
BBX 32 20 3 0
BITMAP
FC07E03F
FC0FE07E
FC0FE07E
FC1FE0FC
FC1FE0FC
FC3FE1F8
FC3FE1F8
FC7FE1F8
FC7FE3F0
FC7FE3F0
7CFBE7E0
7CFBE7E0
7DF3E7C0
7DF3FFC0
7FE1FF80
7FE1FF80
7FC1FF00
7FC1FF00
7F81FE00
7F81FE00
ENDCHAR
STARTCHAR x
ENCODING 120
SWIDTH 589 0
DWIDTH 23 0
BBX 25 20 -1 0
BITMAP
0FE03F80
07E07F00
07F07E00
03F0FC00
03F9F800
01FBF800
01FFF000
00FFE000
00FFC000
007F8000
00FF8000
01FF8000
03FFC000
03FFC000
07EFE000
0FC7E000
1F87F000
3F83F000
7F03F800
FE01F800
ENDCHAR
STARTCHAR y
ENCODING 121
SWIDTH 606 0
DWIDTH 24 0
BBX 23 28 0 -8
BITMAP
07E07E
0FE0FE
0FE0FE
0FC0FC
0FC0FC
0FC0FC
1FC1FC
1F81F8
1F81F8
1F81F8
1F81F8
3F83F8
3F03F0
3F03F0
3F87F0
3FFFF0
3FFFF0
3FFFE0
3FF7E0
0FC7E0
000FE0
000FC0
001FC0
7FFFC0
7FFF80
7FFF00
7FFE00
FFF800
ENDCHAR
STARTCHAR z
ENCODING 122
SWIDTH 535 0
DWIDTH 21 0
BBX 21 20 0 0
BITMAP
0FFFF8
0FFFF8
0FFFF8
0FFFF8
1FFFF0
001FE0
003FC0
007F80
00FF00
01FE00
03FC00
07F800
0FF000
1FE000
3FC000
7FFFC0
FFFFC0
FFFFC0
FFFF80
FFFF80
ENDCHAR
STARTCHAR braceleft
ENCODING 123
SWIDTH 365 0
DWIDTH 14 0
BBX 17 35 1 -6
BITMAP
001F80
003E00
00FC00
00F800
01F000
03F000
03F000
03E000
03E000
07E000
07E000
07E000
07C000
0FC000
0F8000
1F0000
7E0000
F80000
FE0000
3F0000
1F0000
1F0000
1F0000
3F0000
3F0000
3F0000
3E0000
3E0000
7E0000
3E0000
3E0000
3E0000
1F0000
1F0000
0F8000
ENDCHAR
STARTCHAR bar
ENCODING 124
SWIDTH 301 0
DWIDTH 12 0
BBX 13 35 0 -6
BITMAP
01F8
01F0
01F0
01F0
03F0
03E0
03E0
03E0
07E0
07E0
07C0
07C0
07C0
0FC0
0FC0
0F80
0F80
0F80
1F80
1F00
1F00
1F00
3F00
3F00
3E00
3E00
3E00
7E00
7E00
7C00
7C00
7C00
FC00
F800
F800
ENDCHAR
STARTCHAR braceright
ENCODING 125
SWIDTH 365 0
DWIDTH 14 0
BBX 17 35 -3 -6
BITMAP
00F800
007C00
007C00
003E00
003E00
003E00
003E00
003E00
007E00
007E00
007E00
007C00
007C00
007C00
007C00
007E00
003F80
000F80
003F00
00FC00
01F800
01F000
01F000
03F000
03F000
03E000
03E000
07E000
07E000
07C000
0FC000
0F8000
1F0000
3E0000
F80000
ENDCHAR
STARTCHAR asciitilde
ENCODING 126
SWIDTH 499 0
DWIDTH 19 0
BBX 16 6 2 9
BITMAP
0007
3F87
7FFF
FFFE
F7FE
E078
ENDCHAR
STARTCHAR uni00A0
ENCODING 160
SWIDTH 258 0
DWIDTH 10 0
BBX 1 1 0 0
BITMAP
00
ENDCHAR
STARTCHAR exclamdown
ENCODING 161
SWIDTH 314 0
DWIDTH 12 0
BBX 13 27 -1 -7
BITMAP
03F8
03F8
03F0
03F0
07F0
07F0
0000
0000
0000
07C0
07C0
07C0
0FC0
0F80
0F80
1F80
1F80
1F80
3F80
3F80
3F80
3F00
7F00
7F00
7F00
7F00
FF00
ENDCHAR
STARTCHAR cent
ENCODING 162
SWIDTH 468 0
DWIDTH 18 0
BBX 18 27 1 0
BITMAP
003E00
003E00
003C00
01FFC0
07FF80
0FFF80
1FFF80
1FFF80
3FF800
3FF800
3FF800
3FF800
7FF000
7FF000
7FF000
7FF000
7FE000
FFE000
FFE000
FFFC00
7FFC00
7FFC00
3FFC00
1FFC00
07C000
07C000
078000
ENDCHAR
STARTCHAR sterling
ENCODING 163
SWIDTH 611 0
DWIDTH 24 0
BBX 25 27 0 0
BITMAP
0003FF80
001FFF80
003FFF80
007FFF80
00FFFF00
00FF0000
01FC0000
01FC0000
01FC0000
03F80000
03F80000
1FFFF000
1FFFF000
1FFFF000
3FFFF000
3FFFE000
07F00000
07F00000
07E00000
0FE00000
0FE00000
0FE00000
7FFFF800
7FFFF800
FFFFF800
FFFFF000
FFFFF000
ENDCHAR
STARTCHAR currency
ENCODING 164
SWIDTH 680 0
DWIDTH 27 0
BBX 28 27 0 0
BITMAP
00800080
01C001C0
07C003E0
07FFFFF0
03FFFFC0
03FFFF80
01FFFF00
03FFFF00
03F03F00
07F03F00
07E03F00
07E07F00
07E07F00
07E07E00
0FE07E00
0FC07E00
0FC0FE00
0FC0FC00
0FC0FC00
0FFFFC00
0FFFF800
1FFFFC00
3FFFFC00
FFFFFE00
7C003E00
38003C00
10001000
ENDCHAR
STARTCHAR yen
ENCODING 165
SWIDTH 639 0
DWIDTH 25 0
BBX 26 27 2 0
BITMAP
3F801FC0
1F803F80
1F807F00
1FC07E00
0FC0FE00
0FC0FC00
0FC1F800
0FE3F800
07E3F000
7FFFFC00
7FFFFC00
7FFFFC00
7FFFFC00
03FF0000
03FF0000
FFFFF800
FFFFF800
FFFFF800
FFFFF800
03F80000
03F80000
03F80000
03F80000
03F00000
07F00000
07F00000
07F00000
ENDCHAR
STARTCHAR brokenbar
ENCODING 166
SWIDTH 301 0
DWIDTH 12 0
BBX 13 35 0 -6
BITMAP
01F8
01F0
01F0
01F0
01F0
03F0
03E0
03E0
03E0
07E0
07E0
07C0
07C0
07C0
0000
0000
0000
0000
0000
0000
0000
0000
1F00
3F00
3F00
3E00
3E00
3E00
7E00
7E00
7C00
7C00
7C00
FC00
F800
ENDCHAR
STARTCHAR section
ENCODING 167
SWIDTH 691 0
DWIDTH 27 0
BBX 25 34 1 -7
BITMAP
001FFF00
007FFF00
00FFFF00
01FFFF00
01FFFE00
01F80000
03F80000
03F80000
03FE0000
03FFC000
0FFFF800
1FFFFE00
3FFFFF00
3F1FFF80
7E03FF80
7E007F80
7E003F00
7E003F00
FF803F00
FFF03F00
7FFF7E00
7FFFFE00
1FFFFC00
03FFF000
007FE000
000FE000
0007E000
000FE000
381FC000
3FFFC000
7FFF8000
7FFF8000
7FFE0000
07E00000
ENDCHAR
STARTCHAR dieresis
ENCODING 168
SWIDTH 343 0
DWIDTH 13 0
BBX 14 4 3 23
BITMAP
7C7C
F87C
F8F8
F8F8
ENDCHAR
STARTCHAR copyright
ENCODING 169
SWIDTH 747 0
DWIDTH 29 0
BBX 26 27 2 0
BITMAP
007FFE00
03FFFF80
07C00780
070001C0
0E0000C0
0C0000C0
1C07E0C0
1C1FE0C0
183FE1C0
187C01C0
38780180
38700180
30F00180
30F00380
30F00380
70F00300
70E00300
60F00700
60FF8700
60FF8600
607F0600
E0000E00
60000C00
60001C00
78007800
3FFFF000
1FFFE000
ENDCHAR
STARTCHAR ordfeminine
ENCODING 170
SWIDTH 423 0
DWIDTH 17 0
BBX 15 15 3 12
BITMAP
1F9E
3FDE
3FFE
7FFE
7C3E
F83C
F83C
F87C
F87C
F078
F0F8
FFF8
FFF8
FFF8
7CF0
ENDCHAR
STARTCHAR guillemotleft
ENCODING 171
SWIDTH 507 0
DWIDTH 20 0
BBX 18 16 2 4
BITMAP
03E7C0
07C780
0F8F00
1F1F00
1E3E00
3E7C00
7C7800
F8F800
F9F000
F8F800
78F800
7C7800
3C7C00
3C3C00
3E3C00
1E3E00
ENDCHAR
STARTCHAR logicalnot
ENCODING 172
SWIDTH 545 0
DWIDTH 21 0
BBX 17 10 2 2
BITMAP
7FFF80
7FFF80
7FFF80
7FFF00
800F00
001F00
001F00
001F00
001E00
003E00
ENDCHAR
STARTCHAR uni00AD
ENCODING 173
SWIDTH 379 0
DWIDTH 15 0
BBX 12 5 2 9
BITMAP
7FF0
7FE0
FFE0
FFE0
FFE0
ENDCHAR
STARTCHAR registered
ENCODING 174
SWIDTH 747 0
DWIDTH 29 0
BBX 26 27 2 0
BITMAP
007FFE00
01FFFF80
07C007C0
070001C0
0E0000C0
0C0000C0
1C7F80C0
1C7FE1C0
187FF1C0
1870F1C0
38F0F180
38F0F180
30F1E180
30FFE380
31FFC380
71FF8300
71E38300
61C38700
61C3C700
63C3C600
E3C3C600
E0000E00
E0000C00
60001C00
78007800
3FFFF000
1FFFC000
ENDCHAR
STARTCHAR macron
ENCODING 175
SWIDTH 347 0
DWIDTH 14 0
BBX 14 4 3 23
BITMAP
7FFC
FFFC
FFFC
FFF8
ENDCHAR
STARTCHAR degree
ENCODING 176
SWIDTH 402 0
DWIDTH 16 0
BBX 12 12 4 15
BITMAP
1FE0
3FF0
7FF0
7870
70F0
F0F0
F0F0
F0E0
F1E0
FFE0
7FC0
0400
ENDCHAR
STARTCHAR plusminus
ENCODING 177
SWIDTH 546 0
DWIDTH 21 0
BBX 19 23 1 0
BITMAP
003E00
003E00
003C00
007C00
007C00
007C00
1FFFE0
1FFFE0
1FFFE0
1FFFC0
00F800
00F800
00F000
01F000
01F000
01F000
000000
000000
000000
7FFF00
FFFF00
FFFF00
FFFF00
ENDCHAR
STARTCHAR uni00B2
ENCODING 178
SWIDTH 352 0
DWIDTH 14 0
BBX 14 15 3 16
BITMAP
1FF0
1FF8
1FFC
003C
0038
0078
01F8
0FF0
3FC0
7E00
7800
7800
7FF0
FFE0
FFE0
ENDCHAR
STARTCHAR uni00B3
ENCODING 179
SWIDTH 349 0
DWIDTH 14 0
BBX 13 15 3 16
BITMAP
1FE0
3FF8
3FF8
0078
0078
00F8
0FF0
0FC0
1FE0
00F0
00F0
01F0
FFE0
FFE0
FF80
ENDCHAR
STARTCHAR acute
ENCODING 180
SWIDTH 256 0
DWIDTH 10 0
BBX 11 6 3 22
BITMAP
0FE0
1F80
3F00
7E00
FC00
F000
ENDCHAR
STARTCHAR uni00B5
ENCODING 181
SWIDTH 603 0
DWIDTH 24 0
BBX 24 27 -1 -7
BITMAP
03E03F
07E03E
07E03E
07C07E
07C07E
07C07C
0FC07C
0FC07C
0F80FC
0F80FC
1F80F8
1F80F8
1F81F8
1F01F8
1F01F8
3F87F0
3FFFF0
3FFDF0
3FFBF0
3FF3E0
7E0000
7E0000
7C0000
7C0000
7C0000
FC0000
FC0000
ENDCHAR
STARTCHAR paragraph
ENCODING 182
SWIDTH 637 0
DWIDTH 25 0
BBX 22 33 3 -6
BITMAP
03FF3C
0FFF3C
1FFE3C
3FFE3C
3FFE3C
7FFE78
7FFE78
7FFC78
7FFC78
FFFCF8
FFFCF0
FFF8F0
FFF8F0
FFF8F0
FFF9E0
FFF9E0
FFF1E0
7FF1E0
00F1E0
00F3C0
01F3C0
01E3C0
01E3C0
01E7C0
01E780
03E780
03C780
03C780
03CF00
03CF00
078F00
078F00
078F00
ENDCHAR
STARTCHAR periodcentered
ENCODING 183
SWIDTH 299 0
DWIDTH 12 0
BBX 8 5 2 9
BITMAP
7F
7F
7F
7E
FE
ENDCHAR
STARTCHAR cedilla
ENCODING 184
SWIDTH 184 0
DWIDTH 7 0
BBX 9 8 -4 -7
BITMAP
0780
0F80
0F00
1F00
1F00
3E00
7E00
FC00
ENDCHAR
STARTCHAR uni00B9
ENCODING 185
SWIDTH 230 0
DWIDTH 9 0
BBX 8 15 4 16
BITMAP
0F
3E
FE
FE
DE
1E
3C
3C
3C
3C
38
78
78
78
78
ENDCHAR
STARTCHAR ordmasculine
ENCODING 186
SWIDTH 443 0
DWIDTH 17 0
BBX 15 15 3 12
BITMAP
07FC
1FFE
3FFE
3E3E
3C1E
7C1E
7C3E
783E
783E
F83C
F87C
FFFC
FFF8
7FF0
1FC0
ENDCHAR
STARTCHAR guillemotright
ENCODING 187
SWIDTH 507 0
DWIDTH 20 0
BBX 18 16 1 4
BITMAP
1E1E00
0F1E00
0F0F00
0F8F00
078F80
07CF80
07C7C0
03E7C0
07C7C0
07CF80
0F8F00
1F1F00
1E3E00
3C7C00
7C7800
F9F000
ENDCHAR
STARTCHAR onequarter
ENCODING 188
SWIDTH 701 0
DWIDTH 27 0
BBX 27 27 -1 0
BITMAP
00F001E0
03E003C0
0FE00780
0FE00F80
0DE01F00
01E01E00
01C03C00
03C07800
03C0F000
03C1F000
03C3E000
0787C000
07878F80
078F0F00
079E1E00
003C3C00
007C7C00
00F87800
00F0F1C0
01E1E380
03C1E380
0783FFE0
0F03FFE0
1F07FFC0
3E000F00
3C000F00
F8000F00
ENDCHAR
STARTCHAR onehalf
ENCODING 189
SWIDTH 744 0
DWIDTH 29 0
BBX 29 27 -1 0
BITMAP
00F001E0
03E003C0
0FE00780
0FE00F80
0DE01F00
01E01E00
01C03C00
03C07800
03C0F000
03C1F000
03C3E000
0787C000
07879FF0
078F1FF8
079E1FF8
003C0078
007C0078
00F80078
00F003F0
01E00FF0
03C03FC0
07807E00
0F007800
1F007000
3E00FFF0
3C00FFE0
F800FFE0
ENDCHAR
STARTCHAR threequarters
ENCODING 190
SWIDTH 820 0
DWIDTH 32 0
BBX 29 27 2 0
BITMAP
1FE000F8
1FF800F0
3FF801E0
007803C0
00780780
00F80F80
0FF01F00
0FC03E00
0FE03C00
00F07800
00F0F000
01F1E000
FFE3E3E0
FFE7C7C0
FF878780
000F0F00
001E1E00
003C3C00
007C3CE0
00F878E0
01F0F1E0
01E1FFF0
03C1FFF0
0781FFF0
0F0003C0
1F0003C0
3E000780
ENDCHAR
STARTCHAR questiondown
ENCODING 191
SWIDTH 464 0
DWIDTH 18 0
BBX 17 27 0 -7
BITMAP
001F80
003F80
003F80
003F80
003F00
007F00
000000
000000
000000
007E00
007E00
007C00
00FC00
07FC00
1FF800
3FF000
7FC000
FF0000
FE0000
FE0000
FC0000
FE0000
FFFF00
FFFF00
FFFF00
7FFE00
3FFE00
ENDCHAR
STARTCHAR Agrave
ENCODING 192
SWIDTH 706 0
DWIDTH 28 0
BBX 27 35 -2 0
BITMAP
0007E000
0003F000
0001F000
0000F800
00007800
00007C00
00000000
00000000
0001FF00
0003FF00
0003FF00
0007FF00
000FFF80
000FFF80
001FFF80
001F9F80
003F9F80
003F1F80
007F1F80
007E1F80
00FE1F80
00FC1FC0
01FC1FC0
01F81FC0
03F80FC0
07FFFFC0
07FFFFC0
0FFFFFC0
0FFFFFC0
1FFFFFE0
1FC00FE0
3F800FE0
3F800FE0
7F000FE0
FE000FE0
ENDCHAR
STARTCHAR Aacute
ENCODING 193
SWIDTH 706 0
DWIDTH 28 0
BBX 27 35 -2 0
BITMAP
00000FE0
00001F80
00001F00
00003E00
00007C00
00007800
00000000
00000000
0001FF00
0003FF00
0003FF00
0007FF00
000FFF80
000FFF80
001FFF80
001F9F80
003F9F80
003F1F80
007F1F80
007E1F80
00FE1F80
00FC1FC0
01FC1FC0
01F81FC0
03F80FC0
07FFFFC0
07FFFFC0
0FFFFFC0
0FFFFFC0
1FFFFFE0
1FC00FE0
3F800FE0
3F800FE0
7F000FE0
FE000FE0
ENDCHAR
STARTCHAR Acircumflex
ENCODING 194
SWIDTH 706 0
DWIDTH 28 0
BBX 27 35 -2 0
BITMAP
00003F00
00007F80
0000FF80
0001F7C0
0003E3C0
0007C1C0
00000000
00000000
0001FF00
0003FF00
0003FF00
0007FF00
000FFF80
000FFF80
001FFF80
001F9F80
003F9F80
003F1F80
007F1F80
007E1F80
00FE1F80
00FC1FC0
01FC1FC0
01F81FC0
03F80FC0
07FFFFC0
07FFFFC0
0FFFFFC0
0FFFFFC0
1FFFFFE0
1FC00FE0
3F800FE0
3F800FE0
7F000FE0
FE000FE0
ENDCHAR
STARTCHAR Atilde
ENCODING 195
SWIDTH 706 0
DWIDTH 28 0
BBX 29 35 -2 0
BITMAP
0001F078
0003FFF0
0007FFF0
0007FFE0
00070FE0
00070000
00000000
00000000
0001FF00
0003FF00
0003FF00
0007FF00
000FFF80
000FFF80
001FFF80
001F9F80
003F9F80
003F1F80
007F1F80
007E1F80
00FE1F80
00FC1FC0
01FC1FC0
01F81FC0
03F80FC0
07FFFFC0
07FFFFC0
0FFFFFC0
0FFFFFC0
1FFFFFE0
1FC00FE0
3F800FE0
3F800FE0
7F000FE0
FE000FE0
ENDCHAR
STARTCHAR Adieresis
ENCODING 196
SWIDTH 706 0
DWIDTH 28 0
BBX 28 34 -2 0
BITMAP
0003E3F0
0003E3E0
0003E3E0
0007E3E0
00000000
00000000
00000000
0001FF00
0003FF00
0003FF00
0007FF00
000FFF80
000FFF80
001FFF80
001F9F80
003F9F80
003F1F80
007F1F80
007E1F80
00FE1F80
00FC1FC0
01FC1FC0
01F81FC0
03F80FC0
07FFFFC0
07FFFFC0
0FFFFFC0
0FFFFFC0
1FFFFFE0
1FC00FE0
3F800FE0
3F800FE0
7F000FE0
FE000FE0
ENDCHAR
STARTCHAR Aring
ENCODING 197
SWIDTH 683 0
DWIDTH 28 0
BBX 27 34 -2 0
BITMAP
00007FC0
0000FFC0
0001F3E0
0001C1C0
0001C1C0
0001C1C0
0001F7C0
0001FF80
0003FF00
0003FF00
0007FF00
000FFF80
000FFF80
001FFF80
001F9F80
003F9F80
003F1F80
007F1F80
007E1F80
00FE1F80
00FC1FC0
01FC1FC0
01F81FC0
03F80FC0
07FFFFC0
07FFFFC0
0FFFFFC0
0FFFFFC0
1FFFFFE0
1FC00FE0
3F800FE0
3F800FE0
7F000FE0
FE000FE0
ENDCHAR
STARTCHAR AE
ENCODING 198
SWIDTH 981 0
DWIDTH 38 0
BBX 42 27 -2 0
BITMAP
0001FFFFFFC0
0003FFFFFFC0
0003FFFFFF80
0007FFFFFF80
000FFFFFFF80
000FFF800000
001FFF800000
001F9F800000
003F9F800000
003F1F800000
007F1F800000
007E1FFFFC00
00FE1FFFF800
00FC1FFFF800
01FC1FFFF800
01F81FFFF800
03F80FC00000
07FFFFC00000
07FFFFC00000
0FFFFFC00000
0FFFFFC00000
1FFFFFE00000
1FC00FFFF800
3F800FFFF800
3F800FFFF800
7F000FFFF000
FE000FFFF000
ENDCHAR
STARTCHAR Ccedilla
ENCODING 199
SWIDTH 573 0
DWIDTH 22 0
BBX 22 34 2 -7
BITMAP
007FFC
03FFFC
07FFFC
0FFFF8
0FFFF8
1FE000
1FC000
3F8000
3F8000
3F8000
7F0000
7F0000
7F0000
7F0000
7E0000
FE0000
FE0000
FE0000
FE0000
FE0000
FE0000
FF0000
FFFFC0
FFFF80
7FFF80
7FFF80
1FFF80
01F000
01F000
03E000
03E000
07C000
0FC000
1FC000
ENDCHAR
STARTCHAR Egrave
ENCODING 200
SWIDTH 611 0
DWIDTH 24 0
BBX 25 35 1 0
BITMAP
007E0000
003E0000
003F0000
001F0000
000F8000
00078000
00000000
00000000
07FFFF80
07FFFF00
07FFFF00
07FFFF00
07FFFF00
0FE00000
0FE00000
0FE00000
0FE00000
0FC00000
1FC00000
1FFFF000
1FFFF000
1FFFF000
3FFFF000
3FFFF000
3F800000
3F800000
3F000000
7F000000
7F000000
7F000000
7FFFF000
7FFFF000
FFFFF000
FFFFE000
FFFFE000
ENDCHAR
STARTCHAR Eacute
ENCODING 201
SWIDTH 611 0
DWIDTH 24 0
BBX 25 35 1 0
BITMAP
0000FC00
0001F800
0003F000
0007E000
0007C000
000F8000
00000000
00000000
07FFFF80
07FFFF00
07FFFF00
07FFFF00
07FFFF00
0FE00000
0FE00000
0FE00000
0FE00000
0FC00000
1FC00000
1FFFF000
1FFFF000
1FFFF000
3FFFF000
3FFFF000
3F800000
3F800000
3F000000
7F000000
7F000000
7F000000
7FFFF000
7FFFF000
FFFFF000
FFFFE000
FFFFE000
ENDCHAR
STARTCHAR Ecircumflex
ENCODING 202
SWIDTH 611 0
DWIDTH 24 0
BBX 25 35 1 0
BITMAP
0007F000
000FF000
001FF800
003E7800
007C3C00
00783C00
00000000
00000000
07FFFF80
07FFFF00
07FFFF00
07FFFF00
07FFFF00
0FE00000
0FE00000
0FE00000
0FE00000
0FC00000
1FC00000
1FFFF000
1FFFF000
1FFFF000
3FFFF000
3FFFF000
3F800000
3F800000
3F000000
7F000000
7F000000
7F000000
7FFFF000
7FFFF000
FFFFF000
FFFFE000
FFFFE000
ENDCHAR
STARTCHAR Edieresis
ENCODING 203
SWIDTH 611 0
DWIDTH 24 0
BBX 25 34 1 0
BITMAP
003E3E00
007C3E00
007C3E00
007C7C00
00000000
00000000
00000000
07FFFF80
07FFFF00
07FFFF00
07FFFF00
07FFFF00
0FE00000
0FE00000
0FE00000
0FE00000
0FC00000
1FC00000
1FFFF000
1FFFF000
1FFFF000
3FFFF000
3FFFF000
3F800000
3F800000
3F000000
7F000000
7F000000
7F000000
7FFFF000
7FFFF000
FFFFF000
FFFFE000
FFFFE000
ENDCHAR
STARTCHAR Igrave
ENCODING 204
SWIDTH 318 0
DWIDTH 12 0
BBX 12 35 1 0
BITMAP
3F80
0F80
0FC0
07C0
03E0
01E0
0000
0000
07F0
07F0
07F0
07F0
07E0
0FE0
0FE0
0FE0
0FE0
0FC0
1FC0
1FC0
1FC0
1FC0
3F80
3F80
3F80
3F80
3F00
7F00
7F00
7F00
7F00
7E00
FE00
FE00
FE00
ENDCHAR
STARTCHAR Iacute
ENCODING 205
SWIDTH 318 0
DWIDTH 12 0
BBX 16 35 1 0
BITMAP
007F
007E
00FC
01F8
01F0
03E0
0000
0000
07F0
07F0
07F0
07F0
07E0
0FE0
0FE0
0FE0
0FE0
0FC0
1FC0
1FC0
1FC0
1FC0
3F80
3F80
3F80
3F80
3F00
7F00
7F00
7F00
7F00
7E00
FE00
FE00
FE00
ENDCHAR
STARTCHAR Icircumflex
ENCODING 206
SWIDTH 318 0
DWIDTH 12 0
BBX 16 35 1 0
BITMAP
01FC
03FC
07FC
0F9E
1F1E
1E0F
0000
0000
07F0
07F0
07F0
07F0
07E0
0FE0
0FE0
0FE0
0FE0
0FC0
1FC0
1FC0
1FC0
1FC0
3F80
3F80
3F80
3F80
3F00
7F00
7F00
7F00
7F00
7E00
FE00
FE00
FE00
ENDCHAR
STARTCHAR Idieresis
ENCODING 207
SWIDTH 318 0
DWIDTH 12 0
BBX 17 34 1 0
BITMAP
1F8F80
1F0F80
1F1F00
1F1F00
000000
000000
000000
07F000
07F000
07F000
07F000
07E000
0FE000
0FE000
0FE000
0FE000
0FC000
1FC000
1FC000
1FC000
1FC000
3F8000
3F8000
3F8000
3F8000
3F0000
7F0000
7F0000
7F0000
7F0000
7E0000
FE0000
FE0000
FE0000
ENDCHAR
STARTCHAR Eth
ENCODING 208
SWIDTH 690 0
DWIDTH 27 0
BBX 26 27 1 0
BITMAP
07FFF000
07FFFE00
07FFFF80
07FFFF80
07FFFF80
0FE07FC0
0FE03FC0
0FE01FC0
0FE01F80
0FC03F80
1FC03F80
7FF83F80
FFF83F80
FFF83F80
FFF87F00
FFF07F00
3F807F00
3F807F00
3F00FE00
7F00FE00
7F00FE00
7F03FE00
7FFFFC00
7FFFFC00
FFFFF800
FFFFF000
FFFF8000
ENDCHAR
STARTCHAR Ntilde
ENCODING 209
SWIDTH 729 0
DWIDTH 28 0
BBX 28 35 1 0
BITMAP
000781C0
001FFFC0
001FFF80
003FFF80
00387F00
00380000
00000000
00000000
07F803F0
07F803F0
07FC07F0
07FC07F0
07FC07E0
0FFE07E0
0FFE07E0
0FFF0FE0
0FFF0FE0
0FFF0FC0
1FFF8FC0
1FFF9FC0
1F9FDFC0
1F9FDFC0
3F9FDF80
3F8FFF80
3F0FFF80
3F0FFF80
3F07FF00
7F07FF00
7F03FF00
7E03FF00
7E03FF00
7E01FE00
FE01FE00
FE00FE00
FC00FE00
ENDCHAR
STARTCHAR Ograve
ENCODING 210
SWIDTH 720 0
DWIDTH 28 0
BBX 26 35 2 0
BITMAP
007F0000
003F0000
001F8000
000F8000
00078000
0003C000
00000000
00000000
00FFFC00
03FFFF00
07FFFF80
0FFFFF80
1FFFFF80
1FE03FC0
1FC01FC0
3F801FC0
3F801F80
3F803F80
3F003F80
7F003F80
7F003F80
7F003F80
7F007F00
FE007F00
FE007F00
FE007F00
FE00FE00
FE00FE00
FE00FE00
FE01FC00
FFFFFC00
FFFFF800
FFFFF800
7FFFF000
1FFFC000
ENDCHAR
STARTCHAR Oacute
ENCODING 211
SWIDTH 720 0
DWIDTH 28 0
BBX 26 35 2 0
BITMAP
0000FE00
0000F800
0001F000
0003E000
0003C000
00078000
00000000
00000000
00FFFC00
03FFFF00
07FFFF80
0FFFFF80
1FFFFF80
1FE03FC0
1FC01FC0
3F801FC0
3F801F80
3F803F80
3F003F80
7F003F80
7F003F80
7F003F80
7F007F00
FE007F00
FE007F00
FE007F00
FE00FE00
FE00FE00
FE00FE00
FE01FC00
FFFFFC00
FFFFF800
FFFFF800
7FFFF000
1FFFC000
ENDCHAR
STARTCHAR Ocircumflex
ENCODING 212
SWIDTH 720 0
DWIDTH 28 0
BBX 26 35 2 0
BITMAP
0003F000
0007F800
000FF800
001F3C00
003E3C00
007C1E00
00000000
00000000
00FFFC00
03FFFF00
07FFFF80
0FFFFF80
1FFFFF80
1FE03FC0
1FC01FC0
3F801FC0
3F801F80
3F803F80
3F003F80
7F003F80
7F003F80
7F003F80
7F007F00
FE007F00
FE007F00
FE007F00
FE00FE00
FE00FE00
FE00FE00
FE01FC00
FFFFFC00
FFFFF800
FFFFF800
7FFFF000
1FFFC000
ENDCHAR
STARTCHAR Otilde
ENCODING 213
SWIDTH 720 0
DWIDTH 28 0
BBX 26 35 2 0
BITMAP
000F0780
003FFF00
003FFF00
007FFF00
0070FE00
00700000
00000000
00000000
00FFFC00
03FFFF00
07FFFF80
0FFFFF80
1FFFFF80
1FE03FC0
1FC01FC0
3F801FC0
3F801F80
3F803F80
3F003F80
7F003F80
7F003F80
7F003F80
7F007F00
FE007F00
FE007F00
FE007F00
FE00FE00
FE00FE00
FE00FE00
FE01FC00
FFFFFC00
FFFFF800
FFFFF800
7FFFF000
1FFFC000
ENDCHAR
STARTCHAR Odieresis
ENCODING 214
SWIDTH 720 0
DWIDTH 28 0
BBX 26 34 2 0
BITMAP
003F1F00
003E1F00
003E3E00
003E3E00
00000000
00000000
00000000
00FFFC00
03FFFF00
07FFFF80
0FFFFF80
1FFFFF80
1FE03FC0
1FC01FC0
3F801FC0
3F801F80
3F803F80
3F003F80
7F003F80
7F003F80
7F003F80
7F007F00
FE007F00
FE007F00
FE007F00
FE00FE00
FE00FE00
FE00FE00
FE01FC00
FFFFFC00
FFFFF800
FFFFF800
7FFFF000
1FFFC000
ENDCHAR
STARTCHAR multiply
ENCODING 215
SWIDTH 519 0
DWIDTH 20 0
BBX 16 15 2 2
BITMAP
0C04
1E1E
3F3F
3F7F
1FFE
0FFC
0FF8
0FF0
1FF0
3FF8
7FFC
FEFE
7878
3030
2020
ENDCHAR
STARTCHAR Oslash
ENCODING 216
SWIDTH 720 0
DWIDTH 28 0
BBX 29 31 0 -2
BITMAP
000000F8
000001F0
003FFFF0
00FFFFE0
01FFFFE0
03FFFFE0
07FFFFE0
07F83FF0
07F07FF0
0FE07FF0
0FE0FFE0
0FE1FFE0
0FC3FFE0
1FC3EFE0
1FC7CFE0
1FCF8FE0
1FDF9FC0
3FBF1FC0
3FBE1FC0
3FFC1FC0
3FF83F80
3FF83F80
3FF03F80
3FE07F00
3FFFFF00
3FFFFE00
3FFFFE00
1FFFFC00
3FFFF000
7C000000
FC000000
ENDCHAR
STARTCHAR Ugrave
ENCODING 217
SWIDTH 703 0
DWIDTH 27 0
BBX 26 35 2 0
BITMAP
007E0000
003F0000
001F0000
000F8000
000F8000
0007C000
00000000
00000000
0FE01FC0
0FE01FC0
0FE01FC0
0FC01FC0
1FC01F80
1FC03F80
1FC03F80
1FC03F80
1F803F80
3F807F00
3F807F00
3F807F00
3F807F00
7F007E00
7F00FE00
7F00FE00
7F00FE00
7E00FE00
7E00FC00
FE01FC00
FE01FC00
FF03FC00
FFFFF800
7FFFF800
7FFFF000
3FFFE000
1FFF8000
ENDCHAR
STARTCHAR Uacute
ENCODING 218
SWIDTH 703 0
DWIDTH 27 0
BBX 26 35 2 0
BITMAP
0000FC00
0001F800
0001F000
0003E000
0007C000
00078000
00000000
00000000
0FE01FC0
0FE01FC0
0FE01FC0
0FC01FC0
1FC01F80
1FC03F80
1FC03F80
1FC03F80
1F803F80
3F807F00
3F807F00
3F807F00
3F807F00
7F007E00
7F00FE00
7F00FE00
7F00FE00
7E00FE00
7E00FC00
FE01FC00
FE01FC00
FF03FC00
FFFFF800
7FFFF800
7FFFF000
3FFFE000
1FFF8000
ENDCHAR
STARTCHAR Ucircumflex
ENCODING 219
SWIDTH 703 0
DWIDTH 27 0
BBX 26 35 2 0
BITMAP
0007F000
0007F800
000F7800
001E7C00
003C3C00
00781C00
00000000
00000000
0FE01FC0
0FE01FC0
0FE01FC0
0FC01FC0
1FC01F80
1FC03F80
1FC03F80
1FC03F80
1F803F80
3F807F00
3F807F00
3F807F00
3F807F00
7F007E00
7F00FE00
7F00FE00
7F00FE00
7E00FE00
7E00FC00
FE01FC00
FE01FC00
FF03FC00
FFFFF800
7FFFF800
7FFFF000
3FFFE000
1FFF8000
ENDCHAR
STARTCHAR Udieresis
ENCODING 220
SWIDTH 703 0
DWIDTH 27 0
BBX 26 34 2 0
BITMAP
003E3F00
003E3E00
003E3E00
007C3E00
00000000
00000000
00000000
0FE01FC0
0FE01FC0
0FE01FC0
0FC01FC0
1FC01F80
1FC03F80
1FC03F80
1FC03F80
1F803F80
3F807F00
3F807F00
3F807F00
3F807F00
7F007E00
7F00FE00
7F00FE00
7F00FE00
7E00FE00
7E00FC00
FE01FC00
FE01FC00
FF03FC00
FFFFF800
7FFFF800
7FFFF000
3FFFE000
1FFF8000
ENDCHAR
STARTCHAR Yacute
ENCODING 221
SWIDTH 654 0
DWIDTH 26 0
BBX 25 35 4 0
BITMAP
0007E000
000FC000
000F8000
001F0000
003E0000
003C0000
00000000
00000000
FE003F80
FE007F00
FE00FE00
7E01FC00
7F01FC00
7F03F800
3F07F000
3F07E000
3F8FE000
1F9FC000
1FBF8000
1FFF0000
1FFF0000
0FFE0000
0FFC0000
0FFC0000
07F80000
07F00000
07F00000
07F00000
0FE00000
0FE00000
0FE00000
0FE00000
0FC00000
1FC00000
1FC00000
ENDCHAR
STARTCHAR Thorn
ENCODING 222
SWIDTH 643 0
DWIDTH 25 0
BBX 24 27 1 0
BITMAP
07F000
07F000
07F000
07F000
07FFE0
0FFFFC
0FFFFE
0FFFFF
0FFFFF
0FC0FF
1FC07F
1FC07F
1FC07F
1FC07F
3F80FE
3F80FE
3F80FE
3FFFFC
3FFFFC
7FFFF8
7FFFF8
7FFFE0
7F0000
7E0000
FE0000
FE0000
FE0000
ENDCHAR
STARTCHAR germandbls
ENCODING 223
SWIDTH 605 0
DWIDTH 24 0
BBX 24 29 0 0
BITMAP
003FF8
00FFFE
01FFFF
03FFFF
03FFFF
07F03F
07E03F
07E03F
07E07F
0FE07E
0FC7FC
0FC7F8
0FC7C0
0FCFF8
1FCFF8
1F81FC
1F80FC
1F80FC
3F80FC
3F81FC
3F01FC
3F01F8
3F01F8
7F03F8
7E3FF0
7E3FF0
7E7FE0
7E7FC0
FE7F00
ENDCHAR
STARTCHAR agrave
ENCODING 224
SWIDTH 589 0
DWIDTH 23 0
BBX 22 28 1 0
BITMAP
01F800
00F800
00FC00
007C00
003E00
001E00
000000
000000
07F8FC
0FFDFC
1FFFF8
1FFFF8
3FFFF8
3F83F8
3F03F8
7F03F0
7E03F0
7E03F0
7E07F0
FE07F0
FE07E0
FC07E0
FE0FE0
FFFFE0
FFFFC0
FFFFC0
7FEFC0
3FCFC0
ENDCHAR
STARTCHAR aacute
ENCODING 225
SWIDTH 589 0
DWIDTH 23 0
BBX 22 28 1 0
BITMAP
0007F0
000FC0
001F80
003F00
007E00
007800
000000
000000
07F8FC
0FFDFC
1FFFF8
1FFFF8
3FFFF8
3F83F8
3F03F8
7F03F0
7E03F0
7E03F0
7E07F0
FE07F0
FE07E0
FC07E0
FE0FE0
FFFFE0
FFFFC0
FFFFC0
7FEFC0
3FCFC0
ENDCHAR
STARTCHAR acircumflex
ENCODING 226
SWIDTH 589 0
DWIDTH 23 0
BBX 22 28 1 0
BITMAP
001F80
003FC0
007FC0
00F9E0
01F1E0
03E0F0
000000
000000
07F8FC
0FFDFC
1FFFF8
1FFFF8
3FFFF8
3F83F8
3F03F8
7F03F0
7E03F0
7E03F0
7E07F0
FE07F0
FE07E0
FC07E0
FE0FE0
FFFFE0
FFFFC0
FFFFC0
7FEFC0
3FCFC0
ENDCHAR
STARTCHAR atilde
ENCODING 227
SWIDTH 589 0
DWIDTH 23 0
BBX 22 28 1 0
BITMAP
00F03C
01FFF8
03FFF8
03FFF0
038FF0
078000
000000
000000
07F8FC
0FFDFC
1FFFF8
1FFFF8
3FFFF8
3F83F8
3F03F8
7F03F0
7E03F0
7E03F0
7E07F0
FE07F0
FE07E0
FC07E0
FE0FE0
FFFFE0
FFFFC0
FFFFC0
7FEFC0
3FCFC0
ENDCHAR
STARTCHAR adieresis
ENCODING 228
SWIDTH 589 0
DWIDTH 23 0
BBX 22 27 1 0
BITMAP
01F8F8
01F1F0
01F1F0
01F1F0
000000
000000
000000
07F8FC
0FFDFC
1FFFF8
1FFFF8
3FFFF8
3F83F8
3F03F8
7F03F0
7E03F0
7E03F0
7E07F0
FE07F0
FE07E0
FC07E0
FE0FE0
FFFFE0
FFFFC0
FFFFC0
7FEFC0
3FCFC0
ENDCHAR
STARTCHAR aring
ENCODING 229
SWIDTH 589 0
DWIDTH 23 0
BBX 22 31 1 0
BITMAP
001FE0
007FF0
0079F0
00F0F0
00F0F0
00E0E0
00FBE0
00FFE0
007F80
000000
000000
07F8FC
0FFDFC
1FFFF8
1FFFF8
3FFFF8
3F83F8
3F03F8
7F03F0
7E03F0
7E03F0
7E07F0
FE07F0
FE07E0
FC07E0
FE0FE0
FFFFE0
FFFFC0
FFFFC0
7FEFC0
3FCFC0
ENDCHAR
STARTCHAR ae
ENCODING 230
SWIDTH 860 0
DWIDTH 34 0
BBX 32 20 1 0
BITMAP
0FFF1FF8
0FFFFFFE
1FFFFFFE
1FFFFFFF
1FFFF87F
0007F03F
0007F03E
0007E07E
07FFFFFE
3FFFFFFE
7FFFFFFE
7FFFFFFE
FC0FC000
FC0FC000
FC1FC000
FC3FF838
FFFFFFF8
FFFFFFF0
FFFFFFF0
7FE1FFF0
ENDCHAR
STARTCHAR ccedilla
ENCODING 231
SWIDTH 473 0
DWIDTH 18 0
BBX 18 27 1 -7
BITMAP
03FFC0
07FFC0
0FFF80
1FFF80
3FF380
3F8000
3F0000
7F0000
7F0000
7E0000
7E0000
7E0000
FE0000
FE0000
FE0000
FF0600
FFFE00
7FFC00
7FFC00
1FFC00
03C000
07C000
0F8000
0F8000
1F0000
1F0000
3F0000
ENDCHAR
STARTCHAR egrave
ENCODING 232
SWIDTH 568 0
DWIDTH 22 0
BBX 20 28 1 0
BITMAP
03F000
01F800
00F800
007C00
003C00
003E00
000000
000000
01FFC0
07FFE0
0FFFF0
1FFFF0
1FC7F0
3F03F0
3F03F0
3F03F0
7FFFE0
7FFFE0
7FFFE0
7FFFE0
FE0000
FC0000
FE0000
FF8380
FFFF80
7FFF80
7FFF80
1FFF80
ENDCHAR
STARTCHAR eacute
ENCODING 233
SWIDTH 568 0
DWIDTH 22 0
BBX 20 28 1 0
BITMAP
0007E0
000FC0
001F80
003E00
007C00
00F800
000000
000000
01FFC0
07FFE0
0FFFF0
1FFFF0
1FC7F0
3F03F0
3F03F0
3F03F0
7FFFE0
7FFFE0
7FFFE0
7FFFE0
FE0000
FC0000
FE0000
FF8380
FFFF80
7FFF80
7FFF80
1FFF80
ENDCHAR
STARTCHAR ecircumflex
ENCODING 234
SWIDTH 568 0
DWIDTH 22 0
BBX 20 28 1 0
BITMAP
003F80
007F80
00FBC0
00F3C0
01E1E0
03C1E0
000000
000000
01FFC0
07FFE0
0FFFF0
1FFFF0
1FC7F0
3F03F0
3F03F0
3F03F0
7FFFE0
7FFFE0
7FFFE0
7FFFE0
FE0000
FC0000
FE0000
FF8380
FFFF80
7FFF80
7FFF80
1FFF80
ENDCHAR
STARTCHAR edieresis
ENCODING 235
SWIDTH 568 0
DWIDTH 22 0
BBX 21 27 1 0
BITMAP
01F1F8
01F1F0
03F1F0
03E1F0
000000
000000
000000
01FFC0
07FFE0
0FFFF0
1FFFF0
1FC7F0
3F03F0
3F03F0
3F03F0
7FFFE0
7FFFE0
7FFFE0
7FFFE0
FE0000
FC0000
FE0000
FF8380
FFFF80
7FFF80
7FFF80
1FFF80
ENDCHAR
STARTCHAR igrave
ENCODING 236
SWIDTH 289 0
DWIDTH 11 0
BBX 10 28 1 0
BITMAP
7E00
3E00
1F00
1F00
0F80
0780
0000
0000
0FC0
1FC0
1FC0
1F80
1F80
1F80
3F80
3F80
3F00
3F00
3F00
7F00
7E00
7E00
7E00
FE00
FE00
FC00
FC00
FC00
ENDCHAR
STARTCHAR iacute
ENCODING 237
SWIDTH 289 0
DWIDTH 11 0
BBX 14 28 1 0
BITMAP
01FC
03F0
07E0
07C0
0F80
1F00
0000
0000
0FC0
1FC0
1FC0
1F80
1F80
1F80
3F80
3F80
3F00
3F00
3F00
7F00
7E00
7E00
7E00
FE00
FE00
FC00
FC00
FC00
ENDCHAR
STARTCHAR icircumflex
ENCODING 238
SWIDTH 289 0
DWIDTH 11 0
BBX 14 28 1 0
BITMAP
07E0
0FF0
1FF0
3E78
7C78
783C
0000
0000
0FC0
1FC0
1FC0
1F80
1F80
1F80
3F80
3F80
3F00
3F00
3F00
7F00
7E00
7E00
7E00
FE00
FE00
FC00
FC00
FC00
ENDCHAR
STARTCHAR idieresis
ENCODING 239
SWIDTH 289 0
DWIDTH 11 0
BBX 15 27 1 0
BITMAP
7E3E
7C3E
7C7C
7C7C
0000
0000
0000
0FC0
1FC0
1FC0
1F80
1F80
1F80
3F80
3F80
3F00
3F00
3F00
7F00
7E00
7E00
7E00
FE00
FE00
FC00
FC00
FC00
ENDCHAR
STARTCHAR eth
ENCODING 240
SWIDTH 585 0
DWIDTH 23 0
BBX 23 29 1 0
BITMAP
003F80
001FC6
000FFE
007FFE
007FFE
007FF0
00C3F0
0003F8
0003F8
03FFF8
0FFFF8
1FFFF8
1FFFF8
3FEFF8
3F03F8
3F03F8
7F03F0
7E03F0
7E03F0
7E03F0
FE07F0
FE07E0
FC07E0
FC0FE0
FE1FE0
FFFFC0
FFFFC0
7FFF80
3FFE00
ENDCHAR
STARTCHAR ntilde
ENCODING 241
SWIDTH 603 0
DWIDTH 24 0
BBX 23 28 0 0
BITMAP
003C0E
00FFFC
00FFFC
01FFFC
01C7F8
01C000
000000
000000
07E7F0
0FCFFC
0FDFFC
0FFFFC
0FFFFC
0FE1FC
1FC0FC
1FC1FC
1F81FC
1F81F8
1F81F8
3F81F8
3F03F8
3F03F8
3F03F0
7F03F0
7F03F0
7E07F0
7E07E0
FE07E0
ENDCHAR
STARTCHAR ograve
ENCODING 242
SWIDTH 573 0
DWIDTH 22 0
BBX 21 28 1 0
BITMAP
03F800
01F800
00FC00
007C00
003C00
001E00
000000
000000
03FFC0
0FFFF0
1FFFF0
3FFFF0
3FEFF8
3F03F8
7F03F0
7E03F0
7E03F0
7E03F0
FE07F0
FE07E0
FC07E0
FC07E0
FC0FE0
FE1FC0
FFFFC0
FFFF80
7FFF80
3FFE00
ENDCHAR
STARTCHAR oacute
ENCODING 243
SWIDTH 573 0
DWIDTH 22 0
BBX 21 28 1 0
BITMAP
0007F0
000FC0
001F80
003E00
007C00
00F800
000000
000000
03FFC0
0FFFF0
1FFFF0
3FFFF0
3FEFF8
3F03F8
7F03F0
7E03F0
7E03F0
7E03F0
FE07F0
FE07E0
FC07E0
FC07E0
FC0FE0
FE1FC0
FFFFC0
FFFF80
7FFF80
3FFE00
ENDCHAR
STARTCHAR ocircumflex
ENCODING 244
SWIDTH 573 0
DWIDTH 22 0
BBX 21 28 1 0
BITMAP
003F80
007FC0
007BC0
00F3C0
01E1E0
03C0E0
000000
000000
03FFC0
0FFFF0
1FFFF0
3FFFF0
3FEFF8
3F03F8
7F03F0
7E03F0
7E03F0
7E03F0
FE07F0
FE07E0
FC07E0
FC07E0
FC0FE0
FE1FC0
FFFFC0
FFFF80
7FFF80
3FFE00
ENDCHAR
STARTCHAR otilde
ENCODING 245
SWIDTH 573 0
DWIDTH 22 0
BBX 21 28 1 0
BITMAP
00F038
01FFF8
03FFF8
03FFF0
078FE0
070000
000000
000000
03FFC0
0FFFF0
1FFFF0
3FFFF0
3FEFF8
3F03F8
7F03F0
7E03F0
7E03F0
7E03F0
FE07F0
FE07E0
FC07E0
FC07E0
FC0FE0
FE1FC0
FFFFC0
FFFF80
7FFF80
3FFE00
ENDCHAR
STARTCHAR odieresis
ENCODING 246
SWIDTH 573 0
DWIDTH 22 0
BBX 21 27 1 0
BITMAP
01F1F8
01F1F0
01F1F0
03E1F0
000000
000000
000000
03FFC0
0FFFF0
1FFFF0
3FFFF0
3FEFF8
3F03F8
7F03F0
7E03F0
7E03F0
7E03F0
FE07F0
FE07E0
FC07E0
FC07E0
FC0FE0
FE1FC0
FFFFC0
FFFF80
7FFF80
3FFE00
ENDCHAR
STARTCHAR divide
ENCODING 247
SWIDTH 546 0
DWIDTH 21 0
BBX 17 19 2 0
BITMAP
00F800
00F800
00F000
00F000
000000
000000
000000
7FFF80
7FFF80
7FFF80
7FFF00
800000
000000
000000
000000
07C000
078000
078000
0F8000
ENDCHAR
STARTCHAR oslash
ENCODING 248
SWIDTH 573 0
DWIDTH 22 0
BBX 24 24 -1 -2
BITMAP
00001F
00003E
00FFFC
03FFFC
07FFFC
0FFFFC
0FFBFE
0FC7FE
1FCFFC
1F8FFC
1F9FFC
1FBEFC
3FFDFC
3FFDF8
3FF9F8
3FF1F8
3FE3F8
3FE7F0
3FFFF0
3FFFE0
1FFFE0
3FFF80
7E0000
FC0000
ENDCHAR
STARTCHAR ugrave
ENCODING 249
SWIDTH 591 0
DWIDTH 23 0
BBX 22 28 1 0
BITMAP
03F800
00F800
00FC00
007C00
003E00
001E00
000000
000000
1FC0FC
1F81FC
1F81F8
1F81F8
3F81F8
3F81F8
3F03F8
3F03F0
3F03F0
7F03F0
7E07F0
7E07F0
7E07E0
7E07E0
FE0FE0
FFFFE0
FFFFE0
7FFFC0
7FEFC0
3F8FC0
ENDCHAR
STARTCHAR uacute
ENCODING 250
SWIDTH 591 0
DWIDTH 23 0
BBX 22 28 1 0
BITMAP
0007F0
000FC0
001F80
003F00
007C00
007800
000000
000000
1FC0FC
1F81FC
1F81F8
1F81F8
3F81F8
3F81F8
3F03F8
3F03F0
3F03F0
7F03F0
7E07F0
7E07F0
7E07E0
7E07E0
FE0FE0
FFFFE0
FFFFE0
7FFFC0
7FEFC0
3F8FC0
ENDCHAR
STARTCHAR ucircumflex
ENCODING 251
SWIDTH 591 0
DWIDTH 23 0
BBX 22 28 1 0
BITMAP
001F80
003FC0
007FC0
00FBE0
01F1E0
03E0F0
000000
000000
1FC0FC
1F81FC
1F81F8
1F81F8
3F81F8
3F81F8
3F03F8
3F03F0
3F03F0
7F03F0
7E07F0
7E07F0
7E07E0
7E07E0
FE0FE0
FFFFE0
FFFFE0
7FFFC0
7FEFC0
3F8FC0
ENDCHAR
STARTCHAR udieresis
ENCODING 252
SWIDTH 591 0
DWIDTH 23 0
BBX 22 27 1 0
BITMAP
01F0F8
01F1F0
01F1F0
03F1F0
000000
000000
000000
1FC0FC
1F81FC
1F81F8
1F81F8
3F81F8
3F81F8
3F03F8
3F03F0
3F03F0
7F03F0
7E07F0
7E07F0
7E07E0
7E07E0
FE0FE0
FFFFE0
FFFFE0
7FFFC0
7FEFC0
3F8FC0
ENDCHAR
STARTCHAR yacute
ENCODING 253
SWIDTH 606 0
DWIDTH 24 0
BBX 23 36 0 -8
BITMAP
0003F8
0003F0
0007C0
000F80
001F00
003E00
000000
000000
07E07E
0FE0FE
0FE0FE
0FC0FC
0FC0FC
0FC0FC
1FC1FC
1F81F8
1F81F8
1F81F8
1F81F8
3F83F8
3F03F0
3F03F0
3F87F0
3FFFF0
3FFFF0
3FFFE0
3FF7E0
0FC7E0
000FE0
000FC0
001FC0
7FFFC0
7FFF80
7FFF00
7FFE00
FFF800
ENDCHAR
STARTCHAR thorn
ENCODING 254
SWIDTH 598 0
DWIDTH 23 0
BBX 23 37 -1 -8
BITMAP
00FC00
01FC00
01F800
01F800
01F800
01F800
03F800
03F000
03F000
03F3F8
03F7FE
07FFFE
07FFFE
07FFFE
07F07E
0FE07E
0FE07E
0FC07E
0FC07E
0FC0FE
1FC0FC
1FC0FC
1F80FC
1FC1FC
1FFFF8
3FFFF8
3FFFF0
3F7FE0
3F3FC0
7F0000
7F0000
7E0000
7E0000
7E0000
FE0000
FC0000
FC0000
ENDCHAR
STARTCHAR ydieresis
ENCODING 255
SWIDTH 606 0
DWIDTH 24 0
BBX 23 35 0 -8
BITMAP
007C7C
00F87C
00F87C
00F8F8
000000
000000
000000
07E07E
0FE0FE
0FE0FE
0FC0FC
0FC0FC
0FC0FC
1FC1FC
1F81F8
1F81F8
1F81F8
1F81F8
3F83F8
3F03F0
3F03F0
3F87F0
3FFFF0
3FFFF0
3FFFE0
3FF7E0
0FC7E0
000FE0
000FC0
001FC0
7FFFC0
7FFF80
7FFF00
7FFE00
FFF800
ENDCHAR
STARTCHAR Amacron
ENCODING 256
SWIDTH 706 0
DWIDTH 28 0
BBX 28 34 -2 0
BITMAP
0003FFF0
0003FFE0
0003FFE0
0007FFE0
00000000
00000000
00000000
0001FF00
0003FF00
0003FF00
0007FF00
000FFF80
000FFF80
001FFF80
001F9F80
003F9F80
003F1F80
007F1F80
007E1F80
00FE1F80
00FC1FC0
01FC1FC0
01F81FC0
03F80FC0
07FFFFC0
07FFFFC0
0FFFFFC0
0FFFFFC0
1FFFFFE0
1FC00FE0
3F800FE0
3F800FE0
7F000FE0
FE000FE0
ENDCHAR
STARTCHAR amacron
ENCODING 257
SWIDTH 589 0
DWIDTH 23 0
BBX 22 27 1 0
BITMAP
01FFF8
01FFF8
01FFF0
03FFF0
000000
000000
000000
07F8FC
0FFDFC
1FFFF8
1FFFF8
3FFFF8
3F83F8
3F03F8
7F03F0
7E03F0
7E03F0
7E07F0
FE07F0
FE07E0
FC07E0
FE0FE0
FFFFE0
FFFFC0
FFFFC0
7FEFC0
3FCFC0
ENDCHAR
STARTCHAR Abreve
ENCODING 258
SWIDTH 706 0
DWIDTH 28 0
BBX 27 35 -2 0
BITMAP
0001E1E0
0001C1E0
0001FFC0
0001FFC0
0001FF80
00003C00
00000000
00000000
0001FF00
0003FF00
0003FF00
0007FF00
000FFF80
000FFF80
001FFF80
001F9F80
003F9F80
003F1F80
007F1F80
007E1F80
00FE1F80
00FC1FC0
01FC1FC0
01F81FC0
03F80FC0
07FFFFC0
07FFFFC0
0FFFFFC0
0FFFFFC0
1FFFFFE0
1FC00FE0
3F800FE0
3F800FE0
7F000FE0
FE000FE0
ENDCHAR
STARTCHAR abreve
ENCODING 259
SWIDTH 589 0
DWIDTH 23 0
BBX 22 28 1 0
BITMAP
00F070
00F0F0
00FFF0
00FFE0
007FC0
001F00
000000
000000
07F8FC
0FFDFC
1FFFF8
1FFFF8
3FFFF8
3F83F8
3F03F8
7F03F0
7E03F0
7E03F0
7E07F0
FE07F0
FE07E0
FC07E0
FE0FE0
FFFFE0
FFFFC0
FFFFC0
7FEFC0
3FCFC0
ENDCHAR
STARTCHAR Aogonek
ENCODING 260
SWIDTH 706 0
DWIDTH 28 0
BBX 27 35 -2 -8
BITMAP
0001FF00
0003FF00
0003FF00
0007FF00
000FFF80
000FFF80
001FFF80
001F9F80
003F9F80
003F1F80
007F1F80
007E1F80
00FE1F80
00FC1FC0
01FC1FC0
01F81FC0
03F80FC0
07FFFFC0
07FFFFC0
0FFFFFC0
0FFFFFC0
1FFFFFE0
1FC00FE0
3F800FE0
3F800FE0
7F000FE0
FE000FE0
000007C0
00000F80
00001F00
00001F00
00001FC0
00001FC0
00001FC0
000003C0
ENDCHAR
STARTCHAR aogonek
ENCODING 261
SWIDTH 589 0
DWIDTH 23 0
BBX 22 28 1 -8
BITMAP
07F8FC
0FFDFC
1FFFF8
1FFFF8
3FFFF8
3F83F8
3F03F8
7F03F0
7E03F0
7E03F0
7E07F0
FE07F0
FE07E0
FC07E0
FE0FE0
FFFFE0
FFFFC0
FFFFC0
7FEFC0
3FCFC0
000F80
001F00
003E00
007C00
007F80
007F80
003F00
001F00
ENDCHAR
STARTCHAR Cacute
ENCODING 262
SWIDTH 573 0
DWIDTH 22 0
BBX 22 35 2 0
BITMAP
0001F8
0003F0
0007E0
0007C0
000F80
001F00
000000
000000
007FFC
03FFFC
07FFFC
0FFFF8
0FFFF8
1FE000
1FC000
3F8000
3F8000
3F8000
7F0000
7F0000
7F0000
7F0000
7E0000
FE0000
FE0000
FE0000
FE0000
FE0000
FE0000
FF0000
FFFFC0
FFFF80
7FFF80
7FFF80
1FFF80
ENDCHAR
STARTCHAR cacute
ENCODING 263
SWIDTH 473 0
DWIDTH 18 0
BBX 18 28 1 0
BITMAP
001FC0
001F80
003E00
007C00
00F800
01F000
000000
000000
03FFC0
07FFC0
0FFF80
1FFF80
3FF380
3F8000
3F0000
7F0000
7F0000
7E0000
7E0000
7E0000
FE0000
FE0000
FE0000
FF0600
FFFE00
7FFC00
7FFC00
1FFC00
ENDCHAR
STARTCHAR Ccircumflex
ENCODING 264
SWIDTH 573 0
DWIDTH 22 0
BBX 22 35 2 0
BITMAP
000FE0
001FE0
003FF0
007CF0
007878
00F078
000000
000000
007FFC
03FFFC
07FFFC
0FFFF8
0FFFF8
1FE000
1FC000
3F8000
3F8000
3F8000
7F0000
7F0000
7F0000
7F0000
7E0000
FE0000
FE0000
FE0000
FE0000
FE0000
FE0000
FF0000
FFFFC0
FFFF80
7FFF80
7FFF80
1FFF80
ENDCHAR
STARTCHAR ccircumflex
ENCODING 265
SWIDTH 473 0
DWIDTH 18 0
BBX 18 28 1 0
BITMAP
007F00
00FF00
01FF80
03E780
07C3C0
0783C0
000000
000000
03FFC0
07FFC0
0FFF80
1FFF80
3FF380
3F8000
3F0000
7F0000
7F0000
7E0000
7E0000
7E0000
FE0000
FE0000
FE0000
FF0600
FFFE00
7FFC00
7FFC00
1FFC00
ENDCHAR
STARTCHAR Cdotaccent
ENCODING 266
SWIDTH 573 0
DWIDTH 22 0
BBX 22 34 2 0
BITMAP
0007C0
0007C0
000FC0
000F80
000000
000000
000000
007FFC
03FFFC
07FFFC
0FFFF8
0FFFF8
1FE000
1FC000
3F8000
3F8000
3F8000
7F0000
7F0000
7F0000
7F0000
7E0000
FE0000
FE0000
FE0000
FE0000
FE0000
FE0000
FF0000
FFFFC0
FFFF80
7FFF80
7FFF80
1FFF80
ENDCHAR
STARTCHAR cdotaccent
ENCODING 267
SWIDTH 473 0
DWIDTH 18 0
BBX 18 27 1 0
BITMAP
003E00
003E00
007C00
007C00
000000
000000
000000
03FFC0
07FFC0
0FFF80
1FFF80
3FF380
3F8000
3F0000
7F0000
7F0000
7E0000
7E0000
7E0000
FE0000
FE0000
FE0000
FF0600
FFFE00
7FFC00
7FFC00
1FFC00
ENDCHAR
STARTCHAR Ccaron
ENCODING 268
SWIDTH 573 0
DWIDTH 22 0
BBX 22 35 2 0
BITMAP
00783C
003C78
003EF0
001FE0
001FE0
000FC0
000000
000000
007FFC
03FFFC
07FFFC
0FFFF8
0FFFF8
1FE000
1FC000
3F8000
3F8000
3F8000
7F0000
7F0000
7F0000
7F0000
7E0000
FE0000
FE0000
FE0000
FE0000
FE0000
FE0000
FF0000
FFFFC0
FFFF80
7FFF80
7FFF80
1FFF80
ENDCHAR
STARTCHAR ccaron
ENCODING 269
SWIDTH 473 0
DWIDTH 18 0
BBX 19 28 1 0
BITMAP
07C3E0
03C780
03EF00
01FF00
01FE00
00FC00
000000
000000
03FFC0
07FFC0
0FFF80
1FFF80
3FF380
3F8000
3F0000
7F0000
7F0000
7E0000
7E0000
7E0000
FE0000
FE0000
FE0000
FF0600
FFFE00
7FFC00
7FFC00
1FFC00
ENDCHAR
STARTCHAR Dcaron
ENCODING 270
SWIDTH 690 0
DWIDTH 27 0
BBX 26 35 1 0
BITMAP
001E0F00
000F1E00
000FBC00
0007F800
0007F800
0003F000
00000000
00000000
07FFF000
07FFFE00
07FFFF80
07FFFF80
07FFFF80
0FE07FC0
0FE03FC0
0FE01FC0
0FE01F80
0FC03F80
1FC03F80
1FC03F80
1FC03F80
1FC03F80
3F807F00
3F807F00
3F807F00
3F807F00
3F00FE00
7F00FE00
7F00FE00
7F03FE00
7FFFFC00
7FFFFC00
FFFFF800
FFFFF000
FFFF8000
ENDCHAR
STARTCHAR dcaron
ENCODING 271
SWIDTH 598 0
DWIDTH 23 0
BBX 30 29 1 0
BITMAP
00007F00
00007F00
00007E7C
00007E7C
00007EF8
0000FEF8
0000FEF0
0000FCF0
0000FDF0
03F8FDE0
0FFDFDE0
1FFFFBC0
1FFFF800
3FFFF800
3F83F800
3F03F800
7F03F000
7E03F000
7E03F000
7E07F000
FE07F000
FE07E000
FC07E000
FE0FE000
FFFFE000
FFFFC000
FFFFC000
7FEFC000
3FCFC000
ENDCHAR
STARTCHAR Dcroat
ENCODING 272
SWIDTH 690 0
DWIDTH 27 0
BBX 26 27 1 0
BITMAP
07FFF000
07FFFE00
07FFFF80
07FFFF80
07FFFF80
0FE07FC0
0FE03FC0
0FE01FC0
0FE01F80
0FC03F80
1FC03F80
7FF83F80
FFF83F80
FFF83F80
FFF87F00
FFF07F00
3F807F00
3F807F00
3F00FE00
7F00FE00
7F00FE00
7F03FE00
7FFFFC00
7FFFFC00
FFFFF800
FFFFF000
FFFF8000
ENDCHAR
STARTCHAR dcroat
ENCODING 273
SWIDTH 598 0
DWIDTH 23 0
BBX 26 29 1 0
BITMAP
00007F00
00007F00
000FFFC0
000FFFC0
000FFF80
000FFF80
000FFF80
0000FC00
0000FC00
03F8FC00
0FFDFC00
1FFFF800
1FFFF800
3FFFF800
3F83F800
3F03F800
7F03F000
7E03F000
7E03F000
7E07F000
FE07F000
FE07E000
FC07E000
FE0FE000
FFFFE000
FFFFC000
FFFFC000
7FEFC000
3FCFC000
ENDCHAR
STARTCHAR Emacron
ENCODING 274
SWIDTH 611 0
DWIDTH 24 0
BBX 25 34 1 0
BITMAP
003FFE00
007FFE00
007FFE00
007FFC00
00000000
00000000
00000000
07FFFF80
07FFFF00
07FFFF00
07FFFF00
07FFFF00
0FE00000
0FE00000
0FE00000
0FE00000
0FC00000
1FC00000
1FFFF000
1FFFF000
1FFFF000
3FFFF000
3FFFF000
3F800000
3F800000
3F000000
7F000000
7F000000
7F000000
7FFFF000
7FFFF000
FFFFF000
FFFFE000
FFFFE000
ENDCHAR
STARTCHAR emacron
ENCODING 275
SWIDTH 568 0
DWIDTH 22 0
BBX 20 27 1 0
BITMAP
01FFF0
01FFF0
03FFF0
03FFF0
000000
000000
000000
01FFC0
07FFE0
0FFFF0
1FFFF0
1FC7F0
3F03F0
3F03F0
3F03F0
7FFFE0
7FFFE0
7FFFE0
7FFFE0
FE0000
FC0000
FE0000
FF8380
FFFF80
7FFF80
7FFF80
1FFF80
ENDCHAR
STARTCHAR Ebreve
ENCODING 276
SWIDTH 611 0
DWIDTH 24 0
BBX 25 35 1 0
BITMAP
003C1C00
003C3C00
003FFC00
003FF800
001FF000
0007C000
00000000
00000000
07FFFF80
07FFFF00
07FFFF00
07FFFF00
07FFFF00
0FE00000
0FE00000
0FE00000
0FE00000
0FC00000
1FC00000
1FFFF000
1FFFF000
1FFFF000
3FFFF000
3FFFF000
3F800000
3F800000
3F000000
7F000000
7F000000
7F000000
7FFFF000
7FFFF000
FFFFF000
FFFFE000
FFFFE000
ENDCHAR
STARTCHAR ebreve
ENCODING 277
SWIDTH 568 0
DWIDTH 22 0
BBX 20 28 1 0
BITMAP
00E0F0
00E0F0
00FFE0
00FFE0
00FFC0
001E00
000000
000000
01FFC0
07FFE0
0FFFF0
1FFFF0
1FC7F0
3F03F0
3F03F0
3F03F0
7FFFE0
7FFFE0
7FFFE0
7FFFE0
FE0000
FC0000
FE0000
FF8380
FFFF80
7FFF80
7FFF80
1FFF80
ENDCHAR
STARTCHAR Edotaccent
ENCODING 278
SWIDTH 611 0
DWIDTH 24 0
BBX 25 34 1 0
BITMAP
0003E000
0003E000
0007C000
0007C000
00000000
00000000
00000000
07FFFF80
07FFFF00
07FFFF00
07FFFF00
07FFFF00
0FE00000
0FE00000
0FE00000
0FE00000
0FC00000
1FC00000
1FFFF000
1FFFF000
1FFFF000
3FFFF000
3FFFF000
3F800000
3F800000
3F000000
7F000000
7F000000
7F000000
7FFFF000
7FFFF000
FFFFF000
FFFFE000
FFFFE000
ENDCHAR
STARTCHAR edotaccent
ENCODING 279
SWIDTH 568 0
DWIDTH 22 0
BBX 20 27 1 0
BITMAP
001F00
001F00
001F00
003E00
000000
000000
000000
01FFC0
07FFE0
0FFFF0
1FFFF0
1FC7F0
3F03F0
3F03F0
3F03F0
7FFFE0
7FFFE0
7FFFE0
7FFFE0
FE0000
FC0000
FE0000
FF8380
FFFF80
7FFF80
7FFF80
1FFF80
ENDCHAR
STARTCHAR Eogonek
ENCODING 280
SWIDTH 611 0
DWIDTH 24 0
BBX 25 35 1 -8
BITMAP
07FFFF80
07FFFF00
07FFFF00
07FFFF00
07FFFF00
0FE00000
0FE00000
0FE00000
0FE00000
0FC00000
1FC00000
1FFFF000
1FFFF000
1FFFF000
3FFFF000
3FFFF000
3F800000
3F800000
3F000000
7F000000
7F000000
7F000000
7FFFF000
7FFFF000
FFFFF000
FFFFE000
FFFFE000
0007C000
000F8000
001F0000
001F0000
003FC000
003FC000
001FC000
00038000
ENDCHAR
STARTCHAR eogonek
ENCODING 281
SWIDTH 568 0
DWIDTH 22 0
BBX 20 28 1 -8
BITMAP
01FFC0
07FFE0
0FFFF0
1FFFF0
1FC7F0
3F03F0
3F03F0
3F03F0
7FFFE0
7FFFE0
7FFFE0
7FFFE0
FE0000
FC0000
FE0000
FF8380
FFFF80
7FFF80
7FFF80
1FFF80
003E00
007C00
007C00
00F800
00FF00
00FE00
00FE00
001E00
ENDCHAR
STARTCHAR Ecaron
ENCODING 282
SWIDTH 611 0
DWIDTH 24 0
BBX 25 35 1 0
BITMAP
003C3E00
001E7C00
001F7800
000FF000
000FE000
0007C000
00000000
00000000
07FFFF80
07FFFF00
07FFFF00
07FFFF00
07FFFF00
0FE00000
0FE00000
0FE00000
0FE00000
0FC00000
1FC00000
1FFFF000
1FFFF000
1FFFF000
3FFFF000
3FFFF000
3F800000
3F800000
3F000000
7F000000
7F000000
7F000000
7FFFF000
7FFFF000
FFFFF000
FFFFE000
FFFFE000
ENDCHAR
STARTCHAR ecaron
ENCODING 283
SWIDTH 568 0
DWIDTH 22 0
BBX 20 28 1 0
BITMAP
01E1F0
01F3E0
00F7C0
00FF80
007F00
007E00
000000
000000
01FFC0
07FFE0
0FFFF0
1FFFF0
1FC7F0
3F03F0
3F03F0
3F03F0
7FFFE0
7FFFE0
7FFFE0
7FFFE0
FE0000
FC0000
FE0000
FF8380
FFFF80
7FFF80
7FFF80
1FFF80
ENDCHAR
STARTCHAR Gcircumflex
ENCODING 284
SWIDTH 674 0
DWIDTH 26 0
BBX 25 35 2 0
BITMAP
0007F000
000FF000
001FF800
003E7800
007C3C00
00783C00
00000000
00000000
007FFE00
03FFFF80
07FFFF80
0FFFFF00
0FFFFF00
1FE00100
1FC00000
3F800000
3F800000
3F000000
7F000000
7F000000
7F0FFE00
7E0FFC00
FE0FFC00
FE0FFC00
FE00FC00
FE01FC00
FE01F800
FE01F800
FE01F800
FE01F800
FFFFF800
FFFFF000
7FFFF000
3FFFF000
0FFFF000
ENDCHAR
STARTCHAR gcircumflex
ENCODING 285
SWIDTH 596 0
DWIDTH 23 0
BBX 23 36 0 -8
BITMAP
000FC0
001FE0
003FE0
007CF0
00F8F0
01F078
000000
000000
01FC7E
03FE7E
07FFFC
0FFFFC
0FFFFC
1FC3FC
1F81FC
1F81F8
3F81F8
3F81F8
3F03F8
3F03F0
3F03F0
3F07F0
7F8FF0
7FFFF0
3FFFE0
3FFFE0
3FF7E0
0FCFE0
000FC0
000FC0
001FC0
7FFF80
7FFF80
FFFF00
FFFE00
FFF000
ENDCHAR
STARTCHAR Gbreve
ENCODING 286
SWIDTH 674 0
DWIDTH 26 0
BBX 25 35 2 0
BITMAP
001C1E00
003C1C00
003FFC00
001FF800
001FF000
0007C000
00000000
00000000
007FFE00
03FFFF80
07FFFF80
0FFFFF00
0FFFFF00
1FE00100
1FC00000
3F800000
3F800000
3F000000
7F000000
7F000000
7F0FFE00
7E0FFC00
FE0FFC00
FE0FFC00
FE00FC00
FE01FC00
FE01F800
FE01F800
FE01F800
FE01F800
FFFFF800
FFFFF000
7FFFF000
3FFFF000
0FFFF000
ENDCHAR
STARTCHAR gbreve
ENCODING 287
SWIDTH 596 0
DWIDTH 23 0
BBX 23 36 0 -8
BITMAP
007838
007878
007FF8
007FF0
003FE0
000F80
000000
000000
01FC7E
03FE7E
07FFFC
0FFFFC
0FFFFC
1FC3FC
1F81FC
1F81F8
3F81F8
3F81F8
3F03F8
3F03F0
3F03F0
3F07F0
7F8FF0
7FFFF0
3FFFE0
3FFFE0
3FF7E0
0FCFE0
000FC0
000FC0
001FC0
7FFF80
7FFF80
FFFF00
FFFE00
FFF000
ENDCHAR
STARTCHAR Gdotaccent
ENCODING 288
SWIDTH 674 0
DWIDTH 26 0
BBX 25 34 2 0
BITMAP
0003E000
0003E000
0007E000
0007C000
00000000
00000000
00000000
007FFE00
03FFFF80
07FFFF80
0FFFFF00
0FFFFF00
1FE00100
1FC00000
3F800000
3F800000
3F000000
7F000000
7F000000
7F0FFE00
7E0FFC00
FE0FFC00
FE0FFC00
FE00FC00
FE01FC00
FE01F800
FE01F800
FE01F800
FE01F800
FFFFF800
FFFFF000
7FFFF000
3FFFF000
0FFFF000
ENDCHAR
STARTCHAR gdotaccent
ENCODING 289
SWIDTH 596 0
DWIDTH 23 0
BBX 23 35 0 -8
BITMAP
000FC0
000F80
000F80
000F80
000000
000000
000000
01FC7E
03FE7E
07FFFC
0FFFFC
0FFFFC
1FC3FC
1F81FC
1F81F8
3F81F8
3F81F8
3F03F8
3F03F0
3F03F0
3F07F0
7F8FF0
7FFFF0
3FFFE0
3FFFE0
3FF7E0
0FCFE0
000FC0
000FC0
001FC0
7FFF80
7FFF80
FFFF00
FFFE00
FFF000
ENDCHAR
STARTCHAR uni0122
ENCODING 290
SWIDTH 674 0
DWIDTH 26 0
BBX 25 38 2 -11
BITMAP
007FFE00
03FFFF80
07FFFF80
0FFFFF00
0FFFFF00
1FE00100
1FC00000
3F800000
3F800000
3F000000
7F000000
7F000000
7F0FFE00
7E0FFC00
FE0FFC00
FE0FFC00
FE00FC00
FE01FC00
FE01F800
FE01F800
FE01F800
FE01F800
FFFFF800
FFFFF000
7FFFF000
3FFFF000
0FFFF000
00000000
00000000
03F00000
03F00000
03F00000
03F00000
07E00000
00E00000
01E00000
07C00000
0F800000
ENDCHAR
STARTCHAR uni0123
ENCODING 291
SWIDTH 596 0
DWIDTH 23 0
BBX 23 39 0 -8
BITMAP
0003E0
0007E0
000F80
000F00
000FC0
000FC0
001FC0
001FC0
001F80
000000
000000
01FC7E
03FE7E
07FFFC
0FFFFC
0FFFFC
1FC3FC
1F81FC
1F81F8
3F81F8
3F81F8
3F03F8
3F03F0
3F03F0
3F07F0
7F8FF0
7FFFF0
3FFFE0
3FFFE0
3FF7E0
0FCFE0
000FC0
000FC0
001FC0
7FFF80
7FFF80
FFFF00
FFFE00
FFF000
ENDCHAR
STARTCHAR Hcircumflex
ENCODING 292
SWIDTH 724 0
DWIDTH 28 0
BBX 28 35 1 0
BITMAP
0001F800
0003FC00
0007FC00
000F9E00
001F1E00
001E0F00
00000000
00000000
07F007F0
07F007F0
07F007F0
07F007E0
07E00FE0
0FE00FE0
0FE00FE0
0FE00FE0
0FE00FC0
0FC01FC0
1FC01FC0
1FFFFFC0
1FFFFFC0
1FFFFF80
3FFFFF80
3FFFFF80
3F803F80
3F803F00
3F007F00
7F007F00
7F007F00
7F007F00
7F007E00
7E00FE00
FE00FE00
FE00FE00
FE00FE00
ENDCHAR
STARTCHAR hcircumflex
ENCODING 293
SWIDTH 603 0
DWIDTH 24 0
BBX 22 35 0 0
BITMAP
01FC00
03FC00
03DE00
079E00
0F0F00
1E0F00
01F800
03F800
03F000
03F000
03F000
07F000
07F000
07E000
07E000
07E7F0
0FEFFC
0FFFFC
0FFFFC
0FFFFC
0FE1FC
1FC0FC
1FC1FC
1F81FC
1F81F8
3F81F8
3F81F8
3F03F8
3F03F8
3F03F0
7F03F0
7F03F0
7E07F0
7E07E0
FE07E0
ENDCHAR
STARTCHAR Hbar
ENCODING 294
SWIDTH 724 0
DWIDTH 28 0
BBX 28 27 1 0
BITMAP
07F007F0
07F007F0
07F007F0
07F007E0
07FFFFE0
0FFFFFE0
0FFFFFE0
0FFFFFE0
0FE00FC0
1FC01FC0
1FC01FC0
1FC01FC0
1FFFFFC0
1FFFFF80
3FFFFF80
3FFFFF80
3FFFFF80
3FFFFF00
3F007F00
7F007F00
7F007F00
7F007F00
7F007E00
7E00FE00
FE00FE00
FE00FE00
FE00FE00
ENDCHAR
STARTCHAR hbar
ENCODING 295
SWIDTH 603 0
DWIDTH 24 0
BBX 22 29 0 0
BITMAP
01F800
03F800
0FFF80
0FFF80
1FFF80
1FFF80
1FFF80
07E000
07E000
07E7F0
0FEFFC
0FFFFC
0FFFFC
0FFFFC
0FE1FC
1FC0FC
1FC1FC
1F81FC
1F81F8
3F81F8
3F81F8
3F03F8
3F03F8
3F03F0
7F03F0
7F03F0
7E07F0
7E07E0
FE07E0
ENDCHAR
STARTCHAR Itilde
ENCODING 296
SWIDTH 318 0
DWIDTH 12 0
BBX 18 35 1 0
BITMAP
0781C0
1FFFC0
1FFF80
3FFF80
387F00
380000
000000
000000
07F000
07F000
07F000
07F000
07E000
0FE000
0FE000
0FE000
0FE000
0FC000
1FC000
1FC000
1FC000
1FC000
3F8000
3F8000
3F8000
3F8000
3F0000
7F0000
7F0000
7F0000
7F0000
7E0000
FE0000
FE0000
FE0000
ENDCHAR
STARTCHAR itilde
ENCODING 297
SWIDTH 289 0
DWIDTH 11 0
BBX 16 28 1 0
BITMAP
1E0F
7FFE
7FFE
FFFE
E3FC
E000
0000
0000
0FC0
1FC0
1FC0
1F80
1F80
1F80
3F80
3F80
3F00
3F00
3F00
7F00
7E00
7E00
7E00
FE00
FE00
FC00
FC00
FC00
ENDCHAR
STARTCHAR Imacron
ENCODING 298
SWIDTH 318 0
DWIDTH 12 0
BBX 17 34 1 0
BITMAP
1FFF80
1FFF80
1FFF00
1FFF00
000000
000000
000000
07F000
07F000
07F000
07F000
07E000
0FE000
0FE000
0FE000
0FE000
0FC000
1FC000
1FC000
1FC000
1FC000
3F8000
3F8000
3F8000
3F8000
3F0000
7F0000
7F0000
7F0000
7F0000
7E0000
FE0000
FE0000
FE0000
ENDCHAR
STARTCHAR imacron
ENCODING 299
SWIDTH 289 0
DWIDTH 11 0
BBX 15 27 1 0
BITMAP
7FFE
7FFE
7FFC
7FFC
0000
0000
0000
0FC0
1FC0
1FC0
1F80
1F80
1F80
3F80
3F80
3F00
3F00
3F00
7F00
7E00
7E00
7E00
FE00
FE00
FC00
FC00
FC00
ENDCHAR
STARTCHAR Ibreve
ENCODING 300
SWIDTH 318 0
DWIDTH 12 0
BBX 16 35 1 0
BITMAP
0F07
0F0F
0FFF
0FFE
07FC
01F0
0000
0000
07F0
07F0
07F0
07F0
07E0
0FE0
0FE0
0FE0
0FE0
0FC0
1FC0
1FC0
1FC0
1FC0
3F80
3F80
3F80
3F80
3F00
7F00
7F00
7F00
7F00
7E00
FE00
FE00
FE00
ENDCHAR
STARTCHAR ibreve
ENCODING 301
SWIDTH 289 0
DWIDTH 11 0
BBX 14 28 1 0
BITMAP
3C1C
3C3C
3FFC
3FF8
1FF0
07C0
0000
0000
0FC0
1FC0
1FC0
1F80
1F80
1F80
3F80
3F80
3F00
3F00
3F00
7F00
7E00
7E00
7E00
FE00
FE00
FC00
FC00
FC00
ENDCHAR
STARTCHAR Iogonek
ENCODING 302
SWIDTH 318 0
DWIDTH 12 0
BBX 14 35 -1 -8
BITMAP
01FC
01FC
01FC
01FC
01F8
03F8
03F8
03F8
03F8
03F0
07F0
07F0
07F0
07F0
0FE0
0FE0
0FE0
0FE0
0FC0
1FC0
1FC0
1FC0
1FC0
1F80
3F80
3F80
3F80
1F00
3C00
7C00
F800
FF00
FE00
7E00
1E00
ENDCHAR
STARTCHAR iogonek
ENCODING 303
SWIDTH 289 0
DWIDTH 11 0
BBX 15 37 -2 -8
BITMAP
00FE
00FE
00FE
00FC
00FC
0000
0000
0000
0000
01F8
03F8
03F8
03F0
03F0
03F0
07F0
07F0
07E0
07E0
07E0
0FE0
0FC0
0FC0
0FC0
1FC0
1FC0
1F80
1F80
1F80
1F00
3E00
7C00
7C00
FF00
FF00
7F00
0E00
ENDCHAR
STARTCHAR Idotaccent
ENCODING 304
SWIDTH 318 0
DWIDTH 12 0
BBX 13 34 1 0
BITMAP
00F8
01F0
01F0
01F0
0000
0000
0000
07F0
07F0
07F0
07F0
07E0
0FE0
0FE0
0FE0
0FE0
0FC0
1FC0
1FC0
1FC0
1FC0
3F80
3F80
3F80
3F80
3F00
7F00
7F00
7F00
7F00
7E00
FE00
FE00
FE00
ENDCHAR
STARTCHAR dotlessi
ENCODING 305
SWIDTH 289 0
DWIDTH 11 0
BBX 10 20 1 0
BITMAP
0FC0
1FC0
1FC0
1F80
1F80
1F80
3F80
3F80
3F00
3F00
3F00
7F00
7E00
7E00
7E00
FE00
FE00
FC00
FC00
FC00
ENDCHAR
STARTCHAR IJ
ENCODING 306
SWIDTH 723 0
DWIDTH 28 0
BBX 28 27 1 0
BITMAP
07F007F0
07F007F0
07F007F0
07F007F0
07E00FE0
0FE00FE0
0FE00FE0
0FE00FE0
0FE00FC0
0FC01FC0
1FC01FC0
1FC01FC0
1FC01FC0
1FC01F80
3F803F80
3F803F80
3F803F80
3F803F80
3F007F00
7F007F00
7F007F00
7F00FF00
7F1FFE00
7E1FFE00
FE1FFC00
FE1FF800
FE3FE000
ENDCHAR
STARTCHAR ij
ENCODING 307
SWIDTH 585 0
DWIDTH 23 0
BBX 24 37 1 -8
BITMAP
07F07F
07F07E
07F07E
07E0FE
07E0FE
000000
000000
000000
000000
0FC1FC
1FC1F8
1FC1F8
1F83F8
1F83F8
1F83F0
3F83F0
3F83F0
3F07F0
3F07F0
3F07E0
7F07E0
7E07E0
7E0FE0
7E0FE0
FE0FC0
FE0FC0
FC0FC0
FC1FC0
FC1FC0
001F80
001F80
003F80
01FF00
01FF00
01FF00
03FE00
03F000
ENDCHAR
STARTCHAR Jcircumflex
ENCODING 308
SWIDTH 405 0
DWIDTH 16 0
BBX 21 35 -1 0
BITMAP
000FE0
000FF0
001EF0
003CF8
007878
00F038
000000
000000
001FC0
001FC0
003F80
003F80
003F80
003F80
003F80
007F00
007F00
007F00
007F00
007E00
00FE00
00FE00
00FE00
00FE00
01FC00
01FC00
01FC00
01FC00
03F800
07F800
7FF800
7FF000
FFF000
FFE000
FF8000
ENDCHAR
STARTCHAR jcircumflex
ENCODING 309
SWIDTH 289 0
DWIDTH 11 0
BBX 19 36 -4 -8
BITMAP
003F00
007F80
00FF80
01F3C0
03E3C0
03C1E0
000000
000000
007E00
007E00
00FE00
00FE00
00FC00
00FC00
00FC00
01FC00
01FC00
01F800
01F800
01F800
03F800
03F800
03F000
03F000
07F000
07F000
07E000
07E000
07E000
0FE000
0FE000
7FC000
7FC000
FF8000
FF0000
F80000
ENDCHAR
STARTCHAR uni0136
ENCODING 310
SWIDTH 699 0
DWIDTH 27 0
BBX 29 38 1 -11
BITMAP
07F003F8
07F007F0
07F00FE0
07F01FC0
07E03F80
0FE07F80
0FE0FF00
0FE1FE00
0FE3FC00
0FC3F800
1FC7F000
1FFFE000
1FFFC000
1FFF8000
3FFFC000
3FFFC000
3F8FE000
3F8FE000
3F0FF000
7F07F000
7F07F800
7F03F800
7F03FC00
7E01FC00
FE01FE00
FE00FE00
FE00FF00
00000000
00000000
01F80000
01F80000
01F80000
01F00000
03F00000
00F00000
00F00000
07E00000
07C00000
ENDCHAR
STARTCHAR uni0137
ENCODING 311
SWIDTH 595 0
DWIDTH 23 0
BBX 23 40 1 -11
BITMAP
03F000
07F000
07E000
07E000
07E000
0FE000
0FE000
0FC000
0FC000
0FC0FE
1FC1FC
1F83F8
1F83F0
1F87E0
1F8FC0
3F9FC0
3F3F80
3FFF00
3FFE00
3FFE00
7FFE00
7E7F00
7E7F00
7E3F80
FE3F80
FE1FC0
FC1FC0
FC0FE0
FC0FE0
000000
000000
07F000
07F000
07E000
07E000
0FE000
01E000
03C000
0FC000
1F0000
ENDCHAR
STARTCHAR kgreenlandic
ENCODING 312
SWIDTH 586 0
DWIDTH 23 0
BBX 25 20 0 0
BITMAP
07E07F80
07E0FE00
0FE1FC00
0FC1F800
0FC3F800
0FC7F000
1FCFE000
1F9FC000
1FFF8000
1FFF0000
1FFF0000
3FFF0000
3F3F8000
3F3F8000
3F1FC000
7F1FC000
7E0FE000
7E0FE000
7E07F000
FE07F000
ENDCHAR
STARTCHAR Lacute
ENCODING 313
SWIDTH 540 0
DWIDTH 21 0
BBX 19 35 1 0
BITMAP
003F00
007E00
00FC00
00F800
01F000
03E000
000000
000000
07F000
07F000
07F000
07F000
07E000
0FE000
0FE000
0FE000
0FE000
0FC000
1FC000
1FC000
1FC000
1FC000
3F8000
3F8000
3F8000
3F8000
3F0000
7F0000
7F0000
7F0020
7FFFC0
7FFFC0
FFFFC0
FFFFC0
FFFF80
ENDCHAR
STARTCHAR lacute
ENCODING 314
SWIDTH 286 0
DWIDTH 11 0
BBX 15 36 1 0
BITMAP
007E
00FC
01F8
01F0
03E0
03C0
0000
03F0
07F0
07E0
07E0
07E0
0FE0
0FE0
0FC0
0FC0
0FC0
1FC0
1FC0
1F80
1F80
1F80
3F80
3F80
3F00
3F00
3F00
7F00
7E00
7E00
7E00
FE00
FE00
FC00
FC00
FC00
ENDCHAR
STARTCHAR uni013B
ENCODING 315
SWIDTH 540 0
DWIDTH 21 0
BBX 19 38 1 -11
BITMAP
07F000
07F000
07F000
07F000
07E000
0FE000
0FE000
0FE000
0FE000
0FC000
1FC000
1FC000
1FC000
1FC000
3F8000
3F8000
3F8000
3F8000
3F0000
7F0000
7F0000
7F0020
7FFFC0
7FFFC0
FFFFC0
FFFFC0
FFFF80
000000
000000
07E000
07E000
07E000
07E000
07E000
01C000
03C000
0F8000
1F0000
ENDCHAR
STARTCHAR uni013C
ENCODING 316
SWIDTH 286 0
DWIDTH 11 0
BBX 15 40 -2 -11
BITMAP
007E
00FE
00FC
00FC
00FC
01FC
01FC
01F8
01F8
01F8
03F8
03F8
03F0
03F0
03F0
07F0
07F0
07E0
07E0
07E0
0FE0
0FC0
0FC0
0FC0
1FC0
1FC0
1F80
1F80
1F80
0000
0000
3F00
3F00
3F00
7F00
7F00
1E00
1E00
FC00
F800
ENDCHAR
STARTCHAR Lcaron
ENCODING 317
SWIDTH 540 0
DWIDTH 21 0
BBX 22 27 1 0
BITMAP
07F07C
07F0F8
07F0F8
07F0F8
07E1F0
0FE1F0
0FE1E0
0FE1E0
0FE3C0
0FC3C0
1FC000
1FC000
1FC000
1FC000
3F8000
3F8000
3F8000
3F8000
3F0000
7F0000
7F0000
7F0020
7FFFC0
7FFFC0
FFFFC0
FFFFC0
FFFF80
ENDCHAR
STARTCHAR lcaron
ENCODING 318
SWIDTH 286 0
DWIDTH 11 0
BBX 18 29 1 0
BITMAP
03F000
07F000
07E7C0
07E7C0
07E7C0
0FEF80
0FEF80
0FCF00
0FDF00
0FDE00
1FDE00
1FFC00
1F8000
1F8000
1F8000
3F8000
3F8000
3F0000
3F0000
3F0000
7F0000
7E0000
7E0000
7E0000
FE0000
FE0000
FC0000
FC0000
FC0000
ENDCHAR
STARTCHAR Ldot
ENCODING 319
SWIDTH 543 0
DWIDTH 21 0
BBX 21 27 1 0
BITMAP
07F000
07F000
07F000
07F000
07E000
0FE000
0FE000
0FE000
0FE000
0FC3F8
1FC3F8
1FC3F0
1FC3F0
1FC7F0
3F87F0
3F8000
3F8000
3F8000
3F0000
7F0000
7F0000
7F0020
7FFFC0
7FFFC0
FFFFC0
FFFFC0
FFFF80
ENDCHAR
STARTCHAR ldot
ENCODING 320
SWIDTH 361 0
DWIDTH 14 0
BBX 15 29 1 0
BITMAP
03F0
07F0
07E0
07E0
07E0
0FE0
0FE0
0FC0
0FC0
0FC0
1FC0
1FC0
1F80
1F80
1FBE
3FBE
3FBE
3F3E
3F7E
3F7C
7F00
7E00
7E00
7E00
FE00
FE00
FC00
FC00
FC00
ENDCHAR
STARTCHAR Lslash
ENCODING 321
SWIDTH 547 0
DWIDTH 21 0
BBX 19 27 1 0
BITMAP
07F000
07F000
07F000
07F000
07E000
0FE000
0FE000
0FE080
0FE380
0FDF00
1FFF00
1FFF00
3FFC00
FFE000
FF8000
FF8000
FF8000
3F8000
3F0000
7F0000
7F0000
7F0020
7FFFC0
7FFFC0
FFFFC0
FFFFC0
FFFF80
ENDCHAR
STARTCHAR lslash
ENCODING 322
SWIDTH 312 0
DWIDTH 12 0
BBX 13 29 1 0
BITMAP
03F0
03F0
07F0
07F0
07F0
07E0
07E0
0FE0
0FE0
0FC0
0FD8
1FF0
1FF0
3FF0
7FF0
FF80
FF80
FF80
3F80
3F00
3F00
7F00
7F00
7E00
7E00
7E00
FE00
FE00
FC00
ENDCHAR
STARTCHAR Nacute
ENCODING 323
SWIDTH 729 0
DWIDTH 28 0
BBX 28 35 1 0
BITMAP
00007F00
00007E00
0000FC00
0001F800
0001F000
0003E000
00000000
00000000
07F803F0
07F803F0
07FC07F0
07FC07F0
07FC07E0
0FFE07E0
0FFE07E0
0FFF0FE0
0FFF0FE0
0FFF0FC0
1FFF8FC0
1FFF9FC0
1F9FDFC0
1F9FDFC0
3F9FDF80
3F8FFF80
3F0FFF80
3F0FFF80
3F07FF00
7F07FF00
7F03FF00
7E03FF00
7E03FF00
7E01FE00
FE01FE00
FE00FE00
FC00FE00
ENDCHAR
STARTCHAR nacute
ENCODING 324
SWIDTH 603 0
DWIDTH 24 0
BBX 22 28 0 0
BITMAP
0003F8
0003F0
0007C0
000F80
001F00
003E00
000000
000000
07E7F0
0FCFFC
0FDFFC
0FFFFC
0FFFFC
0FE1FC
1FC0FC
1FC1FC
1F81FC
1F81F8
1F81F8
3F81F8
3F03F8
3F03F8
3F03F0
7F03F0
7F03F0
7E07F0
7E07E0
FE07E0
ENDCHAR
STARTCHAR uni0145
ENCODING 325
SWIDTH 729 0
DWIDTH 28 0
BBX 28 38 1 -11
BITMAP
07F803F0
07F803F0
07FC07F0
07FC07F0
07FC07E0
0FFE07E0
0FFE07E0
0FFF0FE0
0FFF0FE0
0FFF0FC0
1FFF8FC0
1FFF9FC0
1F9FDFC0
1F9FDFC0
3F9FDF80
3F8FFF80
3F0FFF80
3F0FFF80
3F07FF00
7F07FF00
7F03FF00
7E03FF00
7E03FF00
7E01FE00
FE01FE00
FE00FE00
FC00FE00
00000000
00000000
00FC0000
00FC0000
01F80000
01F80000
01F80000
00780000
00F00000
03F00000
03E00000
ENDCHAR
STARTCHAR uni0146
ENCODING 326
SWIDTH 603 0
DWIDTH 24 0
BBX 22 31 0 -11
BITMAP
07E7F0
0FCFFC
0FDFFC
0FFFFC
0FFFFC
0FE1FC
1FC0FC
1FC1FC
1F81FC
1F81F8
1F81F8
3F81F8
3F03F8
3F03F8
3F03F0
7F03F0
7F03F0
7E07F0
7E07E0
7E07E0
800000
000000
03F800
03F800
03F000
03F000
03F000
00F000
01E000
07E000
0F8000
ENDCHAR
STARTCHAR Ncaron
ENCODING 327
SWIDTH 729 0
DWIDTH 28 0
BBX 28 35 1 0
BITMAP
000F0F80
00079F00
0007BE00
0003FC00
0003F800
0001F000
00000000
00000000
07F803F0
07F803F0
07FC07F0
07FC07F0
07FC07E0
0FFE07E0
0FFE07E0
0FFF0FE0
0FFF0FE0
0FFF0FC0
1FFF8FC0
1FFF9FC0
1F9FDFC0
1F9FDFC0
3F9FDF80
3F8FFF80
3F0FFF80
3F0FFF80
3F07FF00
7F07FF00
7F03FF00
7E03FF00
7E03FF00
7E01FE00
FE01FE00
FE00FE00
FC00FE00
ENDCHAR
STARTCHAR ncaron
ENCODING 328
SWIDTH 603 0
DWIDTH 24 0
BBX 22 28 0 0
BITMAP
00F87C
0078F0
007DE0
003FE0
003FC0
001F80
000000
000000
07E7F0
0FCFFC
0FDFFC
0FFFFC
0FFFFC
0FE1FC
1FC0FC
1FC1FC
1F81FC
1F81F8
1F81F8
3F81F8
3F03F8
3F03F8
3F03F0
7F03F0
7F03F0
7E07F0
7E07E0
FE07E0
ENDCHAR
STARTCHAR napostrophe
ENCODING 329
SWIDTH 603 0
DWIDTH 24 0
BBX 22 28 0 0
BITMAP
0F8000
0F0000
1F0000
070000
070000
1E0000
3C0000
000000
07E7F0
0FCFFC
0FDFFC
0FFFFC
0FFFFC
0FE1FC
1FC0FC
1FC1FC
1F81FC
1F81F8
1F81F8
3F81F8
3F03F8
3F03F8
3F03F0
7F03F0
7F03F0
7E07F0
7E07E0
FE07E0
ENDCHAR
STARTCHAR Eng
ENCODING 330
SWIDTH 729 0
DWIDTH 28 0
BBX 28 35 1 -8
BITMAP
07F803F0
07F803F0
07FC07F0
07FC07F0
07FC07E0
0FFE07E0
0FFE07E0
0FFF0FE0
0FFF0FE0
0FFF0FC0
1FFF8FC0
1FFF9FC0
1F9FDFC0
1F9FDF80
3F9FDF80
3F8FFF80
3F0FFF80
3F0FFF80
3F07FF00
7F07FF00
7F03FF00
7E03FF00
7E03FF00
7E01FE00
FE01FE00
FE00FE00
FC00FE00
0000FC00
0000FC00
0000FC00
0007FC00
000FF800
000FF800
000FF000
001F8000
ENDCHAR
STARTCHAR eng
ENCODING 331
SWIDTH 603 0
DWIDTH 24 0
BBX 22 28 0 -8
BITMAP
07E7F0
0FCFFC
0FDFFC
0FFFFC
0FFFFC
0FE1FC
1FC0FC
1FC1FC
1F81FC
1F81F8
1F81F8
3F81F8
3F03F8
3F03F8
3F03F0
7F03F0
7F03F0
7E07F0
7E07E0
7E07E0
8007E0
0007E0
000FE0
007FC0
007FC0
00FF80
00FF00
00F800
ENDCHAR
STARTCHAR Omacron
ENCODING 332
SWIDTH 720 0
DWIDTH 28 0
BBX 26 34 2 0
BITMAP
003FFF00
003FFF00
003FFE00
003FFE00
00000000
00000000
00000000
00FFFC00
03FFFF00
07FFFF80
0FFFFF80
1FFFFF80
1FE03FC0
1FC01FC0
3F801FC0
3F801F80
3F803F80
3F003F80
7F003F80
7F003F80
7F003F80
7F007F00
FE007F00
FE007F00
FE007F00
FE00FE00
FE00FE00
FE00FE00
FE01FC00
FFFFFC00
FFFFF800
FFFFF800
7FFFF000
1FFFC000
ENDCHAR
STARTCHAR omacron
ENCODING 333
SWIDTH 573 0
DWIDTH 22 0
BBX 21 27 1 0
BITMAP
01FFF8
01FFF0
03FFF0
03FFF0
000000
000000
000000
03FFC0
0FFFF0
1FFFF0
3FFFF0
3FEFF8
3F03F8
7F03F0
7E03F0
7E03F0
7E03F0
FE07F0
FE07E0
FC07E0
FC07E0
FC0FE0
FE1FC0
FFFFC0
FFFF80
7FFF80
3FFE00
ENDCHAR
STARTCHAR Obreve
ENCODING 334
SWIDTH 720 0
DWIDTH 28 0
BBX 26 35 2 0
BITMAP
001E0E00
001E1E00
001FFC00
001FFC00
000FF800
0003E000
00000000
00000000
00FFFC00
03FFFF00
07FFFF80
0FFFFF80
1FFFFF80
1FE03FC0
1FC01FC0
3F801FC0
3F801F80
3F803F80
3F003F80
7F003F80
7F003F80
7F003F80
7F007F00
FE007F00
FE007F00
FE007F00
FE00FE00
FE00FE00
FE00FE00
FE01FC00
FFFFFC00
FFFFF800
FFFFF800
7FFFF000
1FFFC000
ENDCHAR
STARTCHAR obreve
ENCODING 335
SWIDTH 573 0
DWIDTH 22 0
BBX 21 28 1 0
BITMAP
00F0F0
00F0F0
00FFE0
00FFE0
00FFC0
001E00
000000
000000
03FFC0
0FFFF0
1FFFF0
3FFFF0
3FEFF8
3F03F8
7F03F0
7E03F0
7E03F0
7E03F0
FE07F0
FE07E0
FC07E0
FC07E0
FC0FE0
FE1FC0
FFFFC0
FFFF80
7FFF80
3FFE00
ENDCHAR
STARTCHAR Ohungarumlaut
ENCODING 336
SWIDTH 720 0
DWIDTH 28 0
BBX 26 34 2 0
BITMAP
0007EFC0
000F9F00
001F3E00
003C3C00
00787800
00000000
00000000
00FFFC00
03FFFF00
07FFFF80
0FFFFF80
1FFFFF80
1FE03FC0
1FC01FC0
3F801FC0
3F801F80
3F803F80
3F003F80
7F003F80
7F003F80
7F003F80
7F007F00
FE007F00
FE007F00
FE007F00
FE00FE00
FE00FE00
FE00FE00
FE01FC00
FFFFFC00
FFFFF800
FFFFF800
7FFFF000
1FFFC000
ENDCHAR
STARTCHAR ohungarumlaut
ENCODING 337
SWIDTH 573 0
DWIDTH 22 0
BBX 22 27 1 0
BITMAP
007EFC
00F9F0
01F3E0
03C3C0
038780
000000
000000
03FFC0
0FFFF0
1FFFF0
3FFFF0
3FEFF8
3F03F8
7F03F0
7E03F0
7E03F0
7E03F0
FE07F0
FE07E0
FC07E0
FC07E0
FC0FE0
FE1FC0
FFFFC0
FFFF80
7FFF80
3FFE00
ENDCHAR
STARTCHAR OE
ENCODING 338
SWIDTH 997 0
DWIDTH 39 0
BBX 39 27 2 0
BITMAP
003FFFFFFE
03FFFFFFFC
07FFFFFFFC
0FFFFFFFFC
1FFFFFFFFC
1FF0FF8000
1FC03F8000
3F803F8000
3F803F8000
3F803F8000
3F003F8000
7F003FFFE0
7F007FFFC0
7F007FFFC0
7E007FFFC0
FE007FFFC0
FE007E0000
FE00FE0000
FE00FE0000
FE00FE0000
FE01FC0000
FF03FC0000
FFFFFFFFC0
FFFFFFFFC0
FFFFFFFFC0
7FFFFFFF80
0FFFFFFF80
ENDCHAR
STARTCHAR oe
ENCODING 339
SWIDTH 895 0
DWIDTH 35 0
BBX 33 20 1 0
BITMAP
03FF8FFC00
0FFFFFFF00
1FFFFFFF00
3FFFFFFF80
3FEFFC3F80
3F03F81F80
7F03F81F00
7E03F03F00
7E03FFFF00
7E03FFFF00
FE07FFFF00
FE07FFFE00
FC07E00000
FC07E00000
FC0FE00000
FE1FF81C00
FFFFFFFC00
FFFFFFF800
7FFFFFF800
3FFCFFF800
ENDCHAR
STARTCHAR Racute
ENCODING 340
SWIDTH 679 0
DWIDTH 26 0
BBX 26 35 1 0
BITMAP
0000FC00
0001F800
0001F000
0003E000
0007C000
00078000
00000000
00000000
07FFFC00
07FFFF00
07FFFF80
07FFFFC0
07FFFFC0
0FE03FC0
0FE01FC0
0FE01FC0
0FE01FC0
0FC03F80
1FC03F80
1FC03F80
1FC3FF00
1FFFFF00
3FFFFE00
3FFFFC00
3FFFF000
3F83F000
3F03F000
7F03F800
7F03F800
7F03F800
7F03F800
7E01F800
FE01FC00
FE01FC00
FE01FC00
ENDCHAR
STARTCHAR racute
ENCODING 341
SWIDTH 416 0
DWIDTH 16 0
BBX 18 28 0 0
BITMAP
001FC0
003F00
007E00
00F800
01F000
03E000
000000
000000
07E7C0
0FCF80
0FDF80
0FFF80
0FFF80
0FFF00
1FE000
1FC000
1FC000
1F8000
1F8000
3F8000
3F0000
3F0000
3F0000
7F0000
7F0000
7E0000
7E0000
FE0000
ENDCHAR
STARTCHAR uni0156
ENCODING 342
SWIDTH 679 0
DWIDTH 26 0
BBX 26 38 1 -11
BITMAP
07FFFC00
07FFFF00
07FFFF80
07FFFFC0
07FFFFC0
0FE03FC0
0FE01FC0
0FE01FC0
0FE01FC0
0FC03F80
1FC03F80
1FC03F80
1FC3FF00
1FFFFF00
3FFFFE00
3FFFFC00
3FFFF000
3F83F000
3F03F000
7F03F800
7F03F800
7F03F800
7F03F800
7E01F800
FE01FC00
FE01FC00
FE01FC00
00000000
00000000
01F80000
01F80000
03F00000
03F00000
03F00000
00F00000
01E00000
07E00000
07C00000
ENDCHAR
STARTCHAR uni0157
ENCODING 343
SWIDTH 416 0
DWIDTH 16 0
BBX 20 31 -2 -11
BITMAP
01F9F0
03F3E0
03F7E0
03FFE0
03FFE0
03FFC0
07F800
07F000
07F000
07E000
07E000
0FE000
0FC000
0FC000
0FC000
1FC000
1FC000
1F8000
1F8000
1F8000
200000
000000
3F0000
3F0000
3F0000
7F0000
7F0000
1E0000
1E0000
FC0000
F80000
ENDCHAR
STARTCHAR Rcaron
ENCODING 344
SWIDTH 679 0
DWIDTH 26 0
BBX 26 35 1 0
BITMAP
001E1F00
001E3C00
000F7C00
000FF800
0007F000
0007E000
00000000
00000000
07FFFC00
07FFFF00
07FFFF80
07FFFFC0
07FFFFC0
0FE03FC0
0FE01FC0
0FE01FC0
0FE01FC0
0FC03F80
1FC03F80
1FC03F80
1FC3FF00
1FFFFF00
3FFFFE00
3FFFFC00
3FFFF000
3F83F000
3F03F000
7F03F800
7F03F800
7F03F800
7F03F800
7E01F800
FE01FC00
FE01FC00
FE01FC00
ENDCHAR
STARTCHAR rcaron
ENCODING 345
SWIDTH 416 0
DWIDTH 16 0
BBX 18 28 0 0
BITMAP
0787C0
07CF80
03DF00
03FE00
01FC00
01F800
000000
000000
07E7C0
0FCF80
0FDF80
0FFF80
0FFF80
0FFF00
1FE000
1FC000
1FC000
1F8000
1F8000
3F8000
3F0000
3F0000
3F0000
7F0000
7F0000
7E0000
7E0000
FE0000
ENDCHAR
STARTCHAR Sacute
ENCODING 346
SWIDTH 631 0
DWIDTH 25 0
BBX 24 35 1 0
BITMAP
0000FC
0001F8
0003F0
0007E0
0007C0
000F80
000000
000000
007FFF
03FFFF
07FFFF
07FFFE
0FFFFE
0FE000
1FC000
1FC000
1FC000
1FC000
1FFC00
1FFFE0
1FFFF8
1FFFFC
0FFFFC
03FFFC
000FFC
0001FC
0001FC
0001F8
0003F8
0003F8
7FFFF8
FFFFF0
FFFFE0
FFFFC0
FFFF80
ENDCHAR
STARTCHAR sacute
ENCODING 347
SWIDTH 519 0
DWIDTH 20 0
BBX 20 28 0 0
BITMAP
0007F0
000FC0
001F80
003E00
007C00
00F800
000000
000000
03FFF0
07FFE0
0FFFE0
1FFFE0
1FC060
1F8000
1F0000
3FE000
3FFF00
3FFFC0
1FFFC0
0FFFC0
003FC0
000FC0
000FC0
003F80
7FFF80
7FFF80
7FFF00
FFFC00
ENDCHAR
STARTCHAR Scircumflex
ENCODING 348
SWIDTH 631 0
DWIDTH 25 0
BBX 24 35 1 0
BITMAP
0007F0
000FF0
001FF8
003E78
007C3C
00783C
000000
000000
007FFF
03FFFF
07FFFF
07FFFE
0FFFFE
0FE000
1FC000
1FC000
1FC000
1FC000
1FFC00
1FFFE0
1FFFF8
1FFFFC
0FFFFC
03FFFC
000FFC
0001FC
0001FC
0001F8
0003F8
0003F8
7FFFF8
FFFFF0
FFFFE0
FFFFC0
FFFF80
ENDCHAR
STARTCHAR scircumflex
ENCODING 349
SWIDTH 519 0
DWIDTH 20 0
BBX 20 28 0 0
BITMAP
003F80
007F80
007BC0
00F3C0
01E1E0
03C1E0
000000
000000
03FFF0
07FFE0
0FFFE0
1FFFE0
1FC060
1F8000
1F0000
3FE000
3FFF00
3FFFC0
1FFFC0
0FFFC0
003FC0
000FC0
000FC0
003F80
7FFF80
7FFF80
7FFF00
FFFC00
ENDCHAR
STARTCHAR Scedilla
ENCODING 350
SWIDTH 631 0
DWIDTH 25 0
BBX 24 34 1 -7
BITMAP
007FFF
03FFFF
07FFFF
07FFFE
0FFFFE
0FE000
1FC000
1FC000
1FC000
1FC000
1FFC00
1FFFE0
1FFFF8
1FFFFC
0FFFFC
03FFFC
000FFC
0001FC
0001FC
0001F8
0003F8
0003F8
7FFFF8
FFFFF0
FFFFE0
FFFFC0
FFFF80
00F800
00F000
01F000
03F000
03E000
07E000
0FC000
ENDCHAR
STARTCHAR scedilla
ENCODING 351
SWIDTH 519 0
DWIDTH 20 0
BBX 20 27 0 -7
BITMAP
03FFF0
07FFE0
0FFFE0
1FFFE0
1FC060
1F8000
1F0000
3FE000
3FFF00
3FFFC0
1FFFC0
0FFFC0
003FC0
000FC0
000FC0
003F80
7FFF80
7FFF80
7FFF00
FFFC00
03C000
07C000
0F8000
0F8000
1F0000
1F0000
3F0000
ENDCHAR
STARTCHAR Scaron
ENCODING 352
SWIDTH 631 0
DWIDTH 25 0
BBX 24 35 1 0
BITMAP
003C3E
001E7C
001F78
000FF0
000FE0
0007C0
000000
000000
007FFF
03FFFF
07FFFF
07FFFE
0FFFFE
0FE000
1FC000
1FC000
1FC000
1FC000
1FFC00
1FFFE0
1FFFF8
1FFFFC
0FFFFC
03FFFC
000FFC
0001FC
0001FC
0001F8
0003F8
0003F8
7FFFF8
FFFFF0
FFFFE0
FFFFC0
FFFF80
ENDCHAR
STARTCHAR scaron
ENCODING 353
SWIDTH 519 0
DWIDTH 20 0
BBX 20 28 0 0
BITMAP
01E1F0
01F3E0
00F7C0
00FF80
007F00
007E00
000000
000000
03FFF0
07FFE0
0FFFE0
1FFFE0
1FC060
1F8000
1F0000
3FE000
3FFF00
3FFFC0
1FFFC0
0FFFC0
003FC0
000FC0
000FC0
003F80
7FFF80
7FFF80
7FFF00
FFFC00
ENDCHAR
STARTCHAR uni0162
ENCODING 354
SWIDTH 591 0
DWIDTH 23 0
BBX 23 34 3 -7
BITMAP
7FFFFE
7FFFFE
7FFFFE
FFFFFC
FFFFFC
FFFFFC
01FC00
01FC00
01FC00
01FC00
01F800
03F800
03F800
03F800
03F800
07F000
07F000
07F000
07F000
07E000
0FE000
0FE000
0FE000
0FE000
0FC000
1FC000
1FC000
0F8000
1F0000
1F0000
3E0000
3E0000
7E0000
FC0000
ENDCHAR
STARTCHAR uni0163
ENCODING 355
SWIDTH 422 0
DWIDTH 16 0
BBX 16 33 1 -7
BITMAP
01F8
03F8
03F8
03F0
03F0
03F0
3FFF
7FFF
7FFF
7FFF
7FFE
0FE0
0FC0
0FC0
0FC0
1FC0
1FC0
1F80
1F80
1F80
3F80
3FC0
3FF8
3FF8
1FF8
07F0
0F80
0F00
1F00
1F00
3E00
7E00
FC00
ENDCHAR
STARTCHAR Tcaron
ENCODING 356
SWIDTH 591 0
DWIDTH 23 0
BBX 23 35 3 0
BITMAP
01F0F0
00F1E0
00FBC0
007F80
007F80
003F00
000000
000000
7FFFFE
7FFFFE
7FFFFE
FFFFFC
FFFFFC
FFFFFC
01FC00
01FC00
01FC00
01FC00
01F800
03F800
03F800
03F800
03F800
07F000
07F000
07F000
07F000
07E000
0FE000
0FE000
0FE000
0FE000
0FC000
1FC000
1FC000
ENDCHAR
STARTCHAR tcaron
ENCODING 357
SWIDTH 422 0
DWIDTH 16 0
BBX 20 32 2 0
BITMAP
0001F0
0001F0
0001F0
0003E0
0003E0
0003C0
03F3C0
07F780
07F780
07E780
07E000
07E000
7FFE00
FFFE00
FFFE00
FFFE00
FFFC00
1FC000
1F8000
1F8000
1F8000
3F8000
3F8000
3F0000
3F0000
3F0000
7F0000
7F8000
7FF000
7FF000
3FF000
0FE000
ENDCHAR
STARTCHAR Tbar
ENCODING 358
SWIDTH 591 0
DWIDTH 23 0
BBX 24 27 2 0
BITMAP
3FFFFF
3FFFFF
3FFFFF
7FFFFE
7FFFFE
7FFFFE
00FE00
00FE00
00FE00
00FE00
00FC00
01FC00
7FFFF8
FFFFF0
FFFFF0
FFFFF0
FFFFF0
03F800
03F800
03F000
07F000
07F000
07F000
07F000
07E000
0FE000
0FE000
ENDCHAR
STARTCHAR tbar
ENCODING 359
SWIDTH 422 0
DWIDTH 16 0
BBX 17 26 0 0
BITMAP
00FC00
01FC00
01FC00
01F800
01F800
01F800
1FFF80
3FFF80
3FFF80
3FFF80
3FFF00
07F000
07E000
07E000
7FFE00
7FFE00
7FFE00
FFFE00
0FC000
0FC000
1FC000
1FE000
1FFC00
1FFC00
0FFC00
03F800
ENDCHAR
STARTCHAR Utilde
ENCODING 360
SWIDTH 703 0
DWIDTH 27 0
BBX 26 35 2 0
BITMAP
001F0700
003FFF00
007FFF00
007FFE00
0071FC00
00F00000
00000000
00000000
0FE01FC0
0FE01FC0
0FE01FC0
0FC01FC0
1FC01F80
1FC03F80
1FC03F80
1FC03F80
1F803F80
3F807F00
3F807F00
3F807F00
3F807F00
7F007E00
7F00FE00
7F00FE00
7F00FE00
7E00FE00
7E00FC00
FE01FC00
FE01FC00
FF03FC00
FFFFF800
7FFFF800
7FFFF000
3FFFE000
1FFF8000
ENDCHAR
STARTCHAR utilde
ENCODING 361
SWIDTH 591 0
DWIDTH 23 0
BBX 22 28 1 0
BITMAP
00F038
01FFF8
03FFF8
03FFF0
038FE0
078000
000000
000000
1FC0FC
1F81FC
1F81F8
1F81F8
3F81F8
3F81F8
3F03F8
3F03F0
3F03F0
7F03F0
7E07F0
7E07F0
7E07E0
7E07E0
FE0FE0
FFFFE0
FFFFE0
7FFFC0
7FEFC0
3F8FC0
ENDCHAR
STARTCHAR Umacron
ENCODING 362
SWIDTH 703 0
DWIDTH 27 0
BBX 26 34 2 0
BITMAP
003FFF00
003FFE00
003FFE00
007FFE00
00000000
00000000
00000000
0FE01FC0
0FE01FC0
0FE01FC0
0FC01FC0
1FC01F80
1FC03F80
1FC03F80
1FC03F80
1F803F80
3F807F00
3F807F00
3F807F00
3F807F00
7F007E00
7F00FE00
7F00FE00
7F00FE00
7E00FE00
7E00FC00
FE01FC00
FE01FC00
FF03FC00
FFFFF800
7FFFF800
7FFFF000
3FFFE000
1FFF8000
ENDCHAR
STARTCHAR umacron
ENCODING 363
SWIDTH 591 0
DWIDTH 23 0
BBX 22 27 1 0
BITMAP
01FFF8
01FFF0
01FFF0
03FFF0
000000
000000
000000
1FC0FC
1F81FC
1F81F8
1F81F8
3F81F8
3F81F8
3F03F8
3F03F0
3F03F0
7F03F0
7E07F0
7E07F0
7E07E0
7E07E0
FE0FE0
FFFFE0
FFFFE0
7FFFC0
7FEFC0
3F8FC0
ENDCHAR
STARTCHAR Ubreve
ENCODING 364
SWIDTH 703 0
DWIDTH 27 0
BBX 26 35 2 0
BITMAP
001C1E00
001C1E00
001FFC00
001FFC00
001FF800
0003C000
00000000
00000000
0FE01FC0
0FE01FC0
0FE01FC0
0FC01FC0
1FC01F80
1FC03F80
1FC03F80
1FC03F80
1F803F80
3F807F00
3F807F00
3F807F00
3F807F00
7F007E00
7F00FE00
7F00FE00
7F00FE00
7E00FE00
7E00FC00
FE01FC00
FE01FC00
FF03FC00
FFFFF800
7FFFF800
7FFFF000
3FFFE000
1FFF8000
ENDCHAR
STARTCHAR ubreve
ENCODING 365
SWIDTH 591 0
DWIDTH 23 0
BBX 22 28 1 0
BITMAP
00F070
00F0F0
00FFE0
00FFE0
007FC0
001E00
000000
000000
1FC0FC
1F81FC
1F81F8
1F81F8
3F81F8
3F81F8
3F03F8
3F03F0
3F03F0
7F03F0
7E07F0
7E07F0
7E07E0
7E07E0
FE0FE0
FFFFE0
FFFFE0
7FFFC0
7FEFC0
3F8FC0
ENDCHAR
STARTCHAR Uring
ENCODING 366
SWIDTH 703 0
DWIDTH 27 0
BBX 26 38 2 0
BITMAP
0007FC00
000FFE00
000F3E00
001E1E00
001C1C00
001C1C00
001F7C00
001FF800
000FF000
00000000
00000000
0FE01FC0
0FE01FC0
0FE01FC0
0FC01FC0
1FC01F80
1FC03F80
1FC03F80
1FC03F80
1F803F80
3F807F00
3F807F00
3F807F00
3F807F00
7F007E00
7F00FE00
7F00FE00
7F00FE00
7E00FE00
7E00FC00
FE01FC00
FE01FC00
FF03FC00
FFFFF800
7FFFF800
7FFFF000
3FFFE000
1FFF8000
ENDCHAR
STARTCHAR uring
ENCODING 367
SWIDTH 591 0
DWIDTH 23 0
BBX 22 31 1 0
BITMAP
003FE0
007FF0
0079F0
00F0F0
00E0F0
00E0E0
00FBE0
00FFC0
007F80
000000
000000
1FC0FC
1F81FC
1F81F8
1F81F8
3F81F8
3F81F8
3F03F8
3F03F0
3F03F0
7F03F0
7E07F0
7E07F0
7E07E0
7E07E0
FE0FE0
FFFFE0
FFFFE0
7FFFC0
7FEFC0
3F8FC0
ENDCHAR
STARTCHAR Uhungarumlaut
ENCODING 368
SWIDTH 703 0
DWIDTH 27 0
BBX 26 34 2 0
BITMAP
000FCFC0
001F1F00
001E3E00
003C7C00
00787000
00000000
00000000
0FE01FC0
0FE01FC0
0FE01FC0
0FC01FC0
1FC01F80
1FC03F80
1FC03F80
1FC03F80
1F803F80
3F807F00
3F807F00
3F807F00
3F807F00
7F007E00
7F00FE00
7F00FE00
7F00FE00
7E00FE00
7E00FC00
FE01FC00
FE01FC00
FF03FC00
FFFFF800
7FFFF800
7FFFF000
3FFFE000
1FFF8000
ENDCHAR
STARTCHAR uhungarumlaut
ENCODING 369
SWIDTH 591 0
DWIDTH 23 0
BBX 22 27 1 0
BITMAP
007EFC
00F9F0
01F1E0
03E3C0
03C780
000000
000000
1FC0FC
1F81FC
1F81F8
1F81F8
3F81F8
3F81F8
3F03F8
3F03F0
3F03F0
7F03F0
7E07F0
7E07F0
7E07E0
7E07E0
FE0FE0
FFFFE0
FFFFE0
7FFFC0
7FEFC0
3F8FC0
ENDCHAR
STARTCHAR Uogonek
ENCODING 370
SWIDTH 703 0
DWIDTH 27 0
BBX 26 35 2 -8
BITMAP
0FE01FC0
0FE01FC0
0FE01FC0
0FC01FC0
1FC01F80
1FC03F80
1FC03F80
1FC03F80
1F803F80
3F807F00
3F807F00
3F807F00
3F807F00
7F007E00
7F00FE00
7F00FE00
7F00FE00
7E00FE00
7E00FC00
FE01FC00
FE01FC00
FF03FC00
FFFFF800
7FFFF800
7FFFF000
3FFFE000
1FFF8000
01F00000
03E00000
07C00000
07C00000
0FF00000
0FF00000
07F00000
00E00000
ENDCHAR
STARTCHAR uogonek
ENCODING 371
SWIDTH 591 0
DWIDTH 23 0
BBX 22 28 1 -8
BITMAP
1FC0FC
1F81FC
1F81F8
1F81F8
3F81F8
3F81F8
3F03F8
3F03F0
3F03F0
7F03F0
7E07F0
7E07F0
7E07E0
7E07E0
FE0FE0
FFFFE0
FFFFE0
7FFFC0
7FEFC0
3FCFC0
000F80
001F00
003E00
007E00
007F80
007F80
003F00
000F00
ENDCHAR
STARTCHAR Wcircumflex
ENCODING 372
SWIDTH 1003 0
DWIDTH 39 0
BBX 38 35 4 0
BITMAP
00007F0000
0000FF0000
0001FF8000
0001E78000
0003C3C000
000783C000
0000000000
0000000000
FE01FE01FC
FE01FE01FC
FE01FE03F8
FE03FE03F8
FE03FE07F0
FE07FE07F0
FE07FE07E0
FE0FFE0FE0
FE0FFE0FE0
FE1FFE1FC0
FE1FFE1FC0
FE1F7E1F80
FE3F7E3F80
FE3E7E3F00
FE7E7E7F00
FE7C7E7E00
FEFC7E7E00
FEF87EFE00
FFF83EFC00
FFF83FFC00
FFF03FF800
FFF03FF800
7FE03FF000
7FE03FF000
7FC03FE000
7FC03FE000
7F803FE000
ENDCHAR
STARTCHAR wcircumflex
ENCODING 373
SWIDTH 855 0
DWIDTH 33 0
BBX 32 28 3 0
BITMAP
0003F000
0007F800
000FF800
001F3C00
003E3C00
007C1E00
00000000
00000000
FC07E03F
FC0FE07E
FC0FE07E
FC1FE0FC
FC1FE0FC
FC3FE1F8
FC3FE1F8
FC7FE1F8
FC7FE3F0
FC7FE3F0
7CFBE7E0
7CFBE7E0
7DF3E7C0
7DF3FFC0
7FE1FF80
7FE1FF80
7FC1FF00
7FC1FF00
7F81FE00
7F81FE00
ENDCHAR
STARTCHAR Ycircumflex
ENCODING 374
SWIDTH 654 0
DWIDTH 26 0
BBX 25 35 4 0
BITMAP
003F8000
007FC000
007BC000
00F3C000
01E1E000
03C0E000
00000000
00000000
FE003F80
FE007F00
FE00FE00
7E01FC00
7F01FC00
7F03F800
3F07F000
3F07E000
3F8FE000
1F9FC000
1FBF8000
1FFF0000
1FFF0000
0FFE0000
0FFC0000
0FFC0000
07F80000
07F00000
07F00000
07F00000
0FE00000
0FE00000
0FE00000
0FE00000
0FC00000
1FC00000
1FC00000
ENDCHAR
STARTCHAR ycircumflex
ENCODING 375
SWIDTH 606 0
DWIDTH 24 0
BBX 23 36 0 -8
BITMAP
000FE0
001FE0
003FF0
007CF0
00F878
00F078
000000
000000
07E07E
0FE0FE
0FE0FE
0FC0FC
0FC0FC
0FC0FC
1FC1FC
1F81F8
1F81F8
1F81F8
1F81F8
3F83F8
3F03F0
3F03F0
3F87F0
3FFFF0
3FFFF0
3FFFE0
3FF7E0
0FC7E0
000FE0
000FC0
001FC0
7FFFC0
7FFF80
7FFF00
7FFE00
FFF800
ENDCHAR
STARTCHAR Ydieresis
ENCODING 376
SWIDTH 654 0
DWIDTH 26 0
BBX 25 34 4 0
BITMAP
01F1F800
01F1F000
01F1F000
03E1F000
00000000
00000000
00000000
FE003F80
FE007F00
FE00FE00
7E01FC00
7F01FC00
7F03F800
3F07F000
3F07E000
3F8FE000
1F9FC000
1FBF8000
1FFF0000
1FFF0000
0FFE0000
0FFC0000
0FFC0000
07F80000
07F00000
07F00000
07F00000
0FE00000
0FE00000
0FE00000
0FE00000
0FC00000
1FC00000
1FC00000
ENDCHAR
STARTCHAR Zacute
ENCODING 377
SWIDTH 628 0
DWIDTH 24 0
BBX 26 35 0 0
BITMAP
0000FE00
0000FC00
0001F800
0003F000
0003E000
0007C000
00000000
00000000
03FFFFC0
07FFFFC0
07FFFFC0
07FFFF80
07FFFF80
0000FF80
0001FF00
0003FE00
0007FC00
000FF800
001FF000
003FE000
007FC000
007F8000
00FF0000
01FE0000
03FC0000
07F80000
0FF00000
1FF00000
3FE00000
7FC00000
FFFFFC00
FFFFF800
FFFFF800
FFFFF800
FFFFF800
ENDCHAR
STARTCHAR zacute
ENCODING 378
SWIDTH 535 0
DWIDTH 21 0
BBX 21 28 0 0
BITMAP
0007F0
000FC0
001F80
003E00
007C00
00F800
000000
000000
0FFFF8
0FFFF8
0FFFF8
0FFFF8
1FFFF0
001FE0
003FC0
007F80
00FF00
01FE00
03FC00
07F800
0FF000
1FE000
3FC000
7FFFC0
FFFFC0
FFFFC0
FFFF80
FFFF80
ENDCHAR
STARTCHAR Zdotaccent
ENCODING 379
SWIDTH 628 0
DWIDTH 24 0
BBX 26 34 0 0
BITMAP
0001F000
0001F000
0003E000
0003E000
00000000
00000000
00000000
03FFFFC0
07FFFFC0
07FFFFC0
07FFFF80
07FFFF80
0000FF80
0001FF00
0003FE00
0007FC00
000FF800
001FF000
003FE000
007FC000
007F8000
00FF0000
01FE0000
03FC0000
07F80000
0FF00000
1FF00000
3FE00000
7FC00000
FFFFFC00
FFFFF800
FFFFF800
FFFFF800
FFFFF800
ENDCHAR
STARTCHAR zdotaccent
ENCODING 380
SWIDTH 535 0
DWIDTH 21 0
BBX 21 27 0 0
BITMAP
001F00
001F00
001F00
001F00
000000
000000
000000
0FFFF8
0FFFF8
0FFFF8
0FFFF8
1FFFF0
001FE0
003FC0
007F80
00FF00
01FE00
03FC00
07F800
0FF000
1FE000
3FC000
7FFFC0
FFFFC0
FFFFC0
FFFF80
FFFF80
ENDCHAR
STARTCHAR Zcaron
ENCODING 381
SWIDTH 628 0
DWIDTH 24 0
BBX 26 35 0 0
BITMAP
001E1F00
000F3E00
000F7C00
0007F800
0007F000
0003E000
00000000
00000000
03FFFFC0
07FFFFC0
07FFFFC0
07FFFF80
07FFFF80
0000FF80
0001FF00
0003FE00
0007FC00
000FF800
001FF000
003FE000
007FC000
007F8000
00FF0000
01FE0000
03FC0000
07F80000
0FF00000
1FF00000
3FE00000
7FC00000
FFFFFC00
FFFFF800
FFFFF800
FFFFF800
FFFFF800
ENDCHAR
STARTCHAR zcaron
ENCODING 382
SWIDTH 535 0
DWIDTH 21 0
BBX 21 28 0 0
BITMAP
01E1F0
01F3E0
00F7C0
00FF80
007F00
007E00
000000
000000
0FFFF8
0FFFF8
0FFFF8
0FFFF8
1FFFF0
001FE0
003FC0
007F80
00FF00
01FE00
03FC00
07F800
0FF000
1FE000
3FC000
7FFFC0
FFFFC0
FFFFC0
FFFF80
FFFF80
ENDCHAR
STARTCHAR longs
ENCODING 383
SWIDTH 406 0
DWIDTH 16 0
BBX 18 29 2 0
BITMAP
001FC0
00FFC0
01FF80
03FF80
03FC00
03F000
07F000
07E000
07E000
7FE000
7FE000
7FE000
FFC000
FFC000
0FC000
1FC000
1FC000
1F8000
1F8000
1F8000
3F8000
3F0000
3F0000
3F0000
7F0000
7F0000
7E0000
7E0000
7E0000
ENDCHAR
STARTCHAR uni018F
ENCODING 399
SWIDTH 692 0
DWIDTH 27 0
BBX 25 27 2 0
BITMAP
01FFF000
01FFFC00
01FFFE00
03FFFF00
03FFFF00
0000FF00
00007F80
00003F00
00003F00
00007F00
00007F00
7FFFFF00
7FFFFF00
7FFFFF00
7FFFFE00
7FFFFE00
FE00FE00
FE00FE00
FE00FC00
FE01FC00
FE01FC00
FE03FC00
FFFFF800
FFFFF000
FFFFF000
7FFFE000
1FFF0000
ENDCHAR
STARTCHAR florin
ENCODING 402
SWIDTH 499 0
DWIDTH 19 0
BBX 30 37 -7 -8
BITMAP
000001FC
00000FF8
00001FF8
00003FF8
00007F80
00007E00
0000FE00
0000FC00
0000FC00
000FFFE0
001FFFC0
001FFFC0
001FFF80
003FFF80
0007F000
0007E000
0007E000
000FE000
000FC000
000FC000
001FC000
001F8000
003F8000
003F0000
003F0000
007F0000
007E0000
00FE0000
00FC0000
00FC0000
01FC0000
01F80000
3FF80000
7FF00000
7FE00000
7FC00000
FC000000
ENDCHAR
STARTCHAR uni019D
ENCODING 413
SWIDTH 731 0
DWIDTH 29 0
BBX 33 35 -4 -8
BITMAP
003FC01F80
003FC01F80
003FC03F80
003FE03F80
003FE03F00
007FF03F00
007FF07F00
007FF87F00
007FF87F00
007FF87E00
00FFFC7E00
00FFFCFE00
00FCFEFE00
00FCFEFE00
01FCFEFC00
01FC7FFC00
01FC7FFC00
01F83FFC00
01F83FF800
03F83FF800
03F81FF800
03F81FF800
03F00FF800
03F00FF000
07F00FF000
07F007F000
07E007F000
07E0000000
0FE0000000
0FE0000000
7FC0000000
7FC0000000
FF80000000
FF00000000
F800000000
ENDCHAR
STARTCHAR Ohorn
ENCODING 416
SWIDTH 720 0
DWIDTH 28 0
BBX 29 30 2 0
BITMAP
00000078
000000F0
000000F0
00FFFFF0
03FFFFE0
07FFFF80
0FFFFF80
1FFFFF80
1FE03FC0
1FC01FC0
3F801FC0
3F801F80
3F803F80
3F003F80
7F003F80
7F003F80
7F003F80
7F007F00
FE007F00
FE007F00
FE007F00
FE00FE00
FE00FE00
FE00FE00
FE01FC00
FFFFFC00
FFFFF800
FFFFF800
7FFFF000
1FFFC000
ENDCHAR
STARTCHAR ohorn
ENCODING 417
SWIDTH 573 0
DWIDTH 22 0
BBX 23 23 1 0
BITMAP
00003E
00003C
00003C
03FFF8
0FFFF0
1FFFF0
3FFFF0
3FEFF8
3F03F8
7F03F0
7E03F0
7E03F0
7E03F0
FE07F0
FE07E0
FC07E0
FC07E0
FC0FE0
FE1FC0
FFFFC0
FFFF80
7FFF80
3FFE00
ENDCHAR
STARTCHAR Uhorn
ENCODING 431
SWIDTH 703 0
DWIDTH 27 0
BBX 31 30 2 0
BITMAP
0000003E
0000003C
0000003C
0FE01FF8
0FE01FF0
0FE01FC0
0FC01FC0
1FC01F80
1FC03F80
1FC03F80
1FC03F80
1F803F80
3F807F00
3F807F00
3F807F00
3F807F00
7F007E00
7F00FE00
7F00FE00
7F00FE00
7E00FE00
7E00FC00
FE01FC00
FE01FC00
FF03FC00
FFFFF800
7FFFF800
7FFFF000
3FFFE000
1FFF8000
ENDCHAR
STARTCHAR uhorn
ENCODING 432
SWIDTH 591 0
DWIDTH 23 0
BBX 26 23 1 0
BITMAP
000003C0
00000780
00000780
1FC0FF80
1F81FE00
1F81F800
1F81F800
3F81F800
3F81F800
3F03F800
3F03F000
3F03F000
7F03F000
7E07F000
7E07F000
7E07E000
7E07E000
FE0FE000
FFFFE000
FFFFE000
7FFFC000
7FEFC000
3F8FC000
ENDCHAR
STARTCHAR uni01C4
ENCODING 452
SWIDTH 1318 0
DWIDTH 51 0
BBX 52 35 1 0
BITMAP
000000000787C0
0000000003CF80
0000000003DF00
0000000003FE00
0000000001FC00
0000000001F800
00000000000000
00000000000000
07FFF001FFFFF0
07FFFE01FFFFF0
07FFFF81FFFFF0
07FFFF81FFFFE0
07FFFF81FFFFE0
0FE07FC2003FC0
0FE03FC0007FC0
0FE01FC000FF80
0FE01F8001FF00
0FC03F8003FE00
1FC03F8007FC00
1FC03F800FF800
1FC03F801FF000
1FC03F803FE000
3F807F003FC000
3F807F007F8000
3F807F00FF0000
3F807F01FE0000
3F00FE03FC0000
7F00FE07F80000
7F00FE0FF80000
7F03FE1FF00000
7FFFFC3FFFFE00
7FFFFC3FFFFE00
FFFFF83FFFFE00
FFFFF03FFFFE00
FFFF807FFFFC00
ENDCHAR
STARTCHAR uni01C5
ENCODING 453
SWIDTH 1225 0
DWIDTH 48 0
BBX 47 28 1 0
BITMAP
00000000787C
07FFF0007CF8
07FFFE003DF0
07FFFF803FE0
07FFFF801FC0
07FFFF801F80
0FE07FC00000
0FE03FC00000
0FE01FC3FFFE
0FE01F83FFFE
0FC03F83FFFE
1FC03F87FFFC
1FC03F87FFFC
1FC03F8007F8
1FC03F800FF0
3F807F001FE0
3F807F003FC0
3F807F007F80
3F807F00FF00
3F00FE01FE00
7F00FE03FC00
7F00FE07F800
7F03FE1FF000
7FFFFC3FFFF0
7FFFFC3FFFF0
FFFFF83FFFE0
FFFFF03FFFE0
FFFF807FFFE0
ENDCHAR
STARTCHAR uni01C6
ENCODING 454
SWIDTH 1132 0
DWIDTH 44 0
BBX 44 29 1 0
BITMAP
00007F000000
00007F0787C0
00007E03CF80
00007E03EF00
00007E01FE00
0000FE01FC00
0000FE00F800
0000FC000000
0000FC000000
03F8FC3FFFF0
0FFDFC3FFFE0
1FFFF83FFFE0
1FFFF83FFFE0
3FFFF83FFFE0
3F83F8007FC0
3F03F800FF80
7F03F001FE00
7E03F003FC00
7E03F007F800
7E07F00FF000
FE07F01FE000
FE07E03FC000
FC07E07F8000
FE0FE0FF0000
FFFFE1FFFF00
FFFFC1FFFF00
FFFFC3FFFF00
7FEFC3FFFF00
3FCFC3FFFE00
ENDCHAR
STARTCHAR uni01C7
ENCODING 455
SWIDTH 945 0
DWIDTH 37 0
BBX 37 27 1 0
BITMAP
07F00003F8
07F00003F8
07F00003F0
07F00007F0
07E00007F0
0FE00007F0
0FE00007F0
0FE0000FE0
0FE0000FE0
0FC0000FE0
1FC0000FE0
1FC0000FE0
1FC0001FC0
1FC0001FC0
3F80001FC0
3F80001FC0
3F80001F80
3F80003F80
3F00003F80
7F00003F80
7F00007F80
7F00207F00
7FFFCFFF00
7FFFCFFE00
FFFFDFFE00
FFFFDFFC00
FFFF9FF000
ENDCHAR
STARTCHAR uni01C8
ENCODING 456
SWIDTH 836 0
DWIDTH 33 0
BBX 33 37 1 -8
BITMAP
0000001F80
0000001F80
07F0003F80
07F0003F80
07F0003F00
07F0000000
07E0000000
0FE0000000
0FE0000000
0FE0007E00
0FE0007E00
0FC000FE00
1FC000FE00
1FC000FC00
1FC000FC00
1FC000FC00
3F8001FC00
3F8001FC00
3F8001F800
3F8001F800
3F0001F800
7F0003F800
7F0003F800
7F0023F000
7FFFC3F000
7FFFC3F000
FFFFC7F000
FFFFC7F000
FFFF87E000
000007E000
00000FE000
00000FE000
00007FC000
00007FC000
0000FF8000
0000FF0000
0000F80000
ENDCHAR
STARTCHAR uni01C9
ENCODING 457
SWIDTH 582 0
DWIDTH 23 0
BBX 23 37 1 -8
BITMAP
03F07E
07F07E
07E0FE
07E0FE
07E0FE
0FE000
0FE000
0FC000
0FC000
0FC1F8
1FC1F8
1FC1F8
1F83F8
1F83F8
1F83F0
3F83F0
3F83F0
3F07F0
3F07F0
3F07E0
7F07E0
7E0FE0
7E0FE0
7E0FC0
FE0FC0
FE0FC0
FC1FC0
FC1FC0
FC1F80
001F80
001F80
003F80
01FF00
01FF00
03FE00
03FE00
03F000
ENDCHAR
STARTCHAR uni01CA
ENCODING 458
SWIDTH 1134 0
DWIDTH 44 0
BBX 44 27 1 0
BITMAP
07F803F007F0
07F803F007F0
07FC07F007F0
07FC07F007F0
07FC07E00FE0
0FFE07E00FE0
0FFE07E00FE0
0FFF0FE00FE0
0FFF0FE00FE0
0FFF0FC01FC0
1FFF8FC01FC0
1FFF9FC01FC0
1F9FDFC01FC0
1F9FDFC01F80
3F9FDF803F80
3F8FFF803F80
3F0FFF803F80
3F0FFF803F80
3F07FF007F00
7F07FF007F00
7F03FF007F00
7E03FF00FF00
7E03FF1FFE00
7E01FE1FFE00
FE01FE1FFC00
FE00FE1FF800
FC00FE3FE000
ENDCHAR
STARTCHAR uni01CB
ENCODING 459
SWIDTH 1025 0
DWIDTH 40 0
BBX 41 37 1 -8
BITMAP
000000003F80
000000003F00
07F803F03F00
07F803F03F00
07FC07F07F00
07FC07F00000
07FC07E00000
0FFE07E00000
0FFE07E00000
0FFF0FE0FE00
0FFF0FE0FC00
0FFF0FC0FC00
1FFF8FC0FC00
1FFF9FC1FC00
1F9FDFC1FC00
1F9FDFC1F800
3F9FDF81F800
3F8FFF81F800
3F0FFF83F800
3F0FFF83F800
3F07FF03F000
7F07FF03F000
7F03FF03F000
7E03FF07F000
7E03FF07F000
7E01FE07E000
FE01FE07E000
FE00FE0FE000
FC00FE0FE000
0000000FC000
0000000FC000
0000000FC000
000000FFC000
000000FF8000
000000FF8000
000000FF0000
000001F80000
ENDCHAR
STARTCHAR uni01CC
ENCODING 460
SWIDTH 899 0
DWIDTH 35 0
BBX 37 37 0 -8
BITMAP
00000003F8
00000003F8
00000003F0
00000003F0
00000007F0
0000000000
0000000000
0000000000
0000000000
07E7F00FE0
0FCFFC0FE0
0FDFFC0FC0
0FFFFC0FC0
0FFFFC0FC0
0FE1FC1FC0
1FC0FC1F80
1FC1FC1F80
1F81FC1F80
1F81F83F80
1F81F83F80
3F81F83F00
3F03F83F00
3F03F83F00
3F03F07F00
7F03F07F00
7F03F07E00
7E07F07E00
7E07E07E00
7E07E0FE00
800000FE00
000000FC00
000000FC00
00000FFC00
00000FF800
00000FF800
00000FF000
00001FC000
ENDCHAR
STARTCHAR uni01CD
ENCODING 461
SWIDTH 706 0
DWIDTH 28 0
BBX 28 35 -2 0
BITMAP
0001E1F0
0001E3E0
0000F7C0
0000FF80
00007F00
00007E00
00000000
00000000
0001FF00
0003FF00
0003FF00
0007FF00
000FFF80
000FFF80
001FFF80
001F9F80
003F9F80
003F1F80
007F1F80
007E1F80
00FE1F80
00FC1FC0
01FC1FC0
01F81FC0
03F80FC0
07FFFFC0
07FFFFC0
0FFFFFC0
0FFFFFC0
1FFFFFE0
1FC00FE0
3F800FE0
3F800FE0
7F000FE0
FE000FE0
ENDCHAR
STARTCHAR uni01CE
ENCODING 462
SWIDTH 589 0
DWIDTH 23 0
BBX 22 28 1 0
BITMAP
01E1F0
00F3E0
00FFC0
007F80
007F00
003E00
000000
000000
07F8FC
0FFDFC
1FFFF8
1FFFF8
3FFFF8
3F83F8
3F03F8
7F03F0
7E03F0
7E03F0
7E07F0
FE07F0
FE07E0
FC07E0
FE0FE0
FFFFE0
FFFFC0
FFFFC0
7FEFC0
3FCFC0
ENDCHAR
STARTCHAR uni01CF
ENCODING 463
SWIDTH 318 0
DWIDTH 12 0
BBX 17 35 1 0
BITMAP
0F0F80
079F00
07BE00
03FC00
03F800
03F000
000000
000000
07F000
07F000
07F000
07F000
07E000
0FE000
0FE000
0FE000
0FE000
0FC000
1FC000
1FC000
1FC000
1FC000
3F8000
3F8000
3F8000
3F8000
3F0000
7F0000
7F0000
7F0000
7F0000
7E0000
FE0000
FE0000
FE0000
ENDCHAR
STARTCHAR uni01D0
ENCODING 464
SWIDTH 289 0
DWIDTH 11 0
BBX 14 28 1 0
BITMAP
787C
3C78
3EF0
1FE0
1FC0
0FC0
0000
0000
0FC0
1FC0
1FC0
1F80
1F80
1F80
3F80
3F80
3F00
3F00
3F00
7F00
7E00
7E00
7E00
FE00
FE00
FC00
FC00
FC00
ENDCHAR
STARTCHAR uni01D1
ENCODING 465
SWIDTH 720 0
DWIDTH 28 0
BBX 26 35 2 0
BITMAP
001E1F00
001F3E00
000F7C00
000FF800
0007F000
0007E000
00000000
00000000
00FFFC00
03FFFF00
07FFFF80
0FFFFF80
1FFFFF80
1FE03FC0
1FC01FC0
3F801FC0
3F801F80
3F803F80
3F003F80
7F003F80
7F003F80
7F003F80
7F007F00
FE007F00
FE007F00
FE007F00
FE00FE00
FE00FE00
FE00FE00
FE01FC00
FFFFFC00
FFFFF800
FFFFF800
7FFFF000
1FFFC000
ENDCHAR
STARTCHAR uni01D2
ENCODING 466
SWIDTH 573 0
DWIDTH 22 0
BBX 21 28 1 0
BITMAP
01E1F0
01F3E0
00F7C0
00FF80
007F00
007E00
000000
000000
03FFC0
0FFFF0
1FFFF0
3FFFF0
3FEFF8
3F03F8
7F03F0
7E03F0
7E03F0
7E03F0
FE07F0
FE07E0
FC07E0
FC07E0
FC0FE0
FE1FC0
FFFFC0
FFFF80
7FFF80
3FFE00
ENDCHAR
STARTCHAR uni01D3
ENCODING 467
SWIDTH 703 0
DWIDTH 27 0
BBX 26 35 2 0
BITMAP
003E1F00
001E3C00
000F7C00
000FF800
0007F000
0007E000
00000000
00000000
0FE01FC0
0FE01FC0
0FE01FC0
0FC01FC0
1FC01F80
1FC03F80
1FC03F80
1FC03F80
1F803F80
3F807F00
3F807F00
3F807F00
3F807F00
7F007E00
7F00FE00
7F00FE00
7F00FE00
7E00FE00
7E00FC00
FE01FC00
FE01FC00
FF03FC00
FFFFF800
7FFFF800
7FFFF000
3FFFE000
1FFF8000
ENDCHAR
STARTCHAR uni01D4
ENCODING 468
SWIDTH 591 0
DWIDTH 23 0
BBX 22 28 1 0
BITMAP
01E1F0
01F3E0
00F7C0
00FF80
007F00
007E00
000000
000000
1FC0FC
1F81FC
1F81F8
1F81F8
3F81F8
3F81F8
3F03F8
3F03F0
3F03F0
7F03F0
7E07F0
7E07F0
7E07E0
7E07E0
FE0FE0
FFFFE0
FFFFE0
7FFFC0
7FEFC0
3F8FC0
ENDCHAR
STARTCHAR uni01D5
ENCODING 469
SWIDTH 703 0
DWIDTH 27 0
BBX 26 41 2 0
BITMAP
001FFF80
001FFF80
001FFF80
001FFF00
00000000
00000000
00000100
003E3E00
003E3E00
003E3E00
007C3E00
00000000
00000000
00000000
0FE01FC0
0FE01FC0
0FE01FC0
0FC01FC0
1FC01F80
1FC03F80
1FC03F80
1FC03F80
1F803F80
3F807F00
3F807F00
3F807F00
3F807F00
7F007E00
7F00FE00
7F00FE00
7F00FE00
7E00FE00
7E00FC00
FE01FC00
FE01FC00
FF03FC00
FFFFF800
7FFFF800
7FFFF000
3FFFE000
1FFF8000
ENDCHAR
STARTCHAR uni01D6
ENCODING 470
SWIDTH 591 0
DWIDTH 23 0
BBX 22 33 1 0
BITMAP
00FFFC
00FFFC
00FFF8
00FFF8
000000
000000
01F0F8
01F1F0
01F1F0
03F1F0
000000
000000
000000
1FC0FC
1F81FC
1F81F8
1F81F8
3F81F8
3F81F8
3F03F8
3F03F0
3F03F0
7F03F0
7E07F0
7E07F0
7E07E0
7E07E0
FE0FE0
FFFFE0
FFFFE0
7FFFC0
7FEFC0
3F8FC0
ENDCHAR
STARTCHAR uni01D7
ENCODING 471
SWIDTH 703 0
DWIDTH 27 0
BBX 26 42 2 0
BITMAP
00007F00
00007E00
0000FC00
0001F800
0001F000
0003E000
00000000
00000100
003E3E00
003E3E00
003E3E00
007C3E00
00000000
00000000
00000000
0FE01FC0
0FE01FC0
0FE01FC0
0FC01FC0
1FC01F80
1FC03F80
1FC03F80
1FC03F80
1F803F80
3F807F00
3F807F00
3F807F00
3F807F00
7F007E00
7F00FE00
7F00FE00
7F00FE00
7E00FE00
7E00FC00
FE01FC00
FE01FC00
FF03FC00
FFFFF800
7FFFF800
7FFFF000
3FFFE000
1FFF8000
ENDCHAR
STARTCHAR uni01D8
ENCODING 472
SWIDTH 591 0
DWIDTH 23 0
BBX 22 34 1 0
BITMAP
0003F8
0007E0
000FC0
000F80
001F00
003E00
000000
01F0F8
01F1F0
01F1F0
03F1F0
000000
000000
000000
1FC0FC
1F81FC
1F81F8
1F81F8
3F81F8
3F81F8
3F03F8
3F03F0
3F03F0
7F03F0
7E07F0
7E07F0
7E07E0
7E07E0
FE0FE0
FFFFE0
FFFFE0
7FFFC0
7FEFC0
3F8FC0
ENDCHAR
STARTCHAR uni01D9
ENCODING 473
SWIDTH 703 0
DWIDTH 27 0
BBX 26 42 2 0
BITMAP
000F0F80
00079F00
0007BE00
0003FC00
0003F800
0003F000
00000000
00000100
003E3E00
003E3E00
003E3E00
007C3E00
00000000
00000000
00000000
0FE01FC0
0FE01FC0
0FE01FC0
0FC01FC0
1FC01F80
1FC03F80
1FC03F80
1FC03F80
1F803F80
3F807F00
3F807F00
3F807F00
3F807F00
7F007E00
7F00FE00
7F00FE00
7F00FE00
7E00FE00
7E00FC00
FE01FC00
FE01FC00
FF03FC00
FFFFF800
7FFFF800
7FFFF000
3FFFE000
1FFF8000
ENDCHAR
STARTCHAR uni01DA
ENCODING 474
SWIDTH 591 0
DWIDTH 23 0
BBX 22 34 1 0
BITMAP
00F078
0078F0
007DE0
003FC0
003F80
001F80
000000
01F0F8
01F1F0
01F1F0
03F1F0
000000
000000
000000
1FC0FC
1F81FC
1F81F8
1F81F8
3F81F8
3F81F8
3F03F8
3F03F0
3F03F0
7F03F0
7E07F0
7E07F0
7E07E0
7E07E0
FE0FE0
FFFFE0
FFFFE0
7FFFC0
7FEFC0
3F8FC0
ENDCHAR
STARTCHAR uni01DB
ENCODING 475
SWIDTH 703 0
DWIDTH 27 0
BBX 26 42 2 0
BITMAP
003F8000
000F8000
000FC000
0007C000
0003E000
0001E000
00000000
00000100
003E3E00
003E3E00
003E3E00
007C3E00
00000000
00000000
00000000
0FE01FC0
0FE01FC0
0FE01FC0
0FC01FC0
1FC01F80
1FC03F80
1FC03F80
1FC03F80
1F803F80
3F807F00
3F807F00
3F807F00
3F807F00
7F007E00
7F00FE00
7F00FE00
7F00FE00
7E00FE00
7E00FC00
FE01FC00
FE01FC00
FF03FC00
FFFFF800
7FFFF800
7FFFF000
3FFFE000
1FFF8000
ENDCHAR
STARTCHAR uni01DC
ENCODING 476
SWIDTH 591 0
DWIDTH 23 0
BBX 22 34 1 0
BITMAP
00FC00
007E00
003E00
003E00
001F00
000F00
000000
01F0F8
01F1F0
01F1F0
03F1F0
000000
000000
000000
1FC0FC
1F81FC
1F81F8
1F81F8
3F81F8
3F81F8
3F03F8
3F03F0
3F03F0
7F03F0
7E07F0
7E07F0
7E07E0
7E07E0
FE0FE0
FFFFE0
FFFFE0
7FFFC0
7FEFC0
3F8FC0
ENDCHAR
STARTCHAR Gcaron
ENCODING 486
SWIDTH 674 0
DWIDTH 26 0
BBX 25 35 2 0
BITMAP
003C3E00
001E3C00
001F7800
000FF000
000FE000
0007E000
00000000
00000000
007FFE00
03FFFF80
07FFFF80
0FFFFF00
0FFFFF00
1FE00100
1FC00000
3F800000
3F800000
3F000000
7F000000
7F000000
7F0FFE00
7E0FFC00
FE0FFC00
FE0FFC00
FE00FC00
FE01FC00
FE01F800
FE01F800
FE01F800
FE01F800
FFFFF800
FFFFF000
7FFFF000
3FFFF000
0FFFF000
ENDCHAR
STARTCHAR gcaron
ENCODING 487
SWIDTH 596 0
DWIDTH 23 0
BBX 23 36 0 -8
BITMAP
00F0F8
0079F0
007BE0
003FC0
003F80
001F00
000000
000000
01FC7E
03FE7E
07FFFC
0FFFFC
0FFFFC
1FC3FC
1F81FC
1F81F8
3F81F8
3F81F8
3F03F8
3F03F0
3F03F0
3F07F0
7F8FF0
7FFFF0
3FFFE0
3FFFE0
3FF7E0
0FCFE0
000FC0
000FC0
001FC0
7FFF80
7FFF80
FFFF00
FFFE00
FFF000
ENDCHAR
STARTCHAR uni01EA
ENCODING 490
SWIDTH 720 0
DWIDTH 28 0
BBX 26 35 2 -8
BITMAP
00FFFC00
03FFFF00
07FFFF80
0FFFFF80
1FFFFF80
1FE03FC0
1FC01FC0
3F801FC0
3F801F80
3F803F80
3F003F80
7F003F80
7F003F80
7F003F80
7F007F00
FE007F00
FE007F00
FE007F00
FE00FE00
FE00FE00
FE00FE00
FE01FC00
FFFFFC00
FFFFF800
FFFFF800
7FFFF000
1FFFC000
01F00000
03E00000
07C00000
07C00000
07F00000
07F00000
07F00000
00F00000
ENDCHAR
STARTCHAR uni01EB
ENCODING 491
SWIDTH 573 0
DWIDTH 22 0
BBX 21 28 1 -8
BITMAP
03FFC0
0FFFF0
1FFFF0
3FFFF0
3FEFF8
3F03F8
7F03F0
7E03F0
7E03F0
7E03F0
FE07F0
FE07E0
FC07E0
FC07E0
FC0FE0
FE1FC0
FFFFC0
FFFF80
7FFF80
3FFE00
07C000
0F8000
0F0000
1F0000
1FC000
1FC000
1FC000
03C000
ENDCHAR
STARTCHAR uni01F1
ENCODING 497
SWIDTH 1318 0
DWIDTH 51 0
BBX 52 27 1 0
BITMAP
07FFF001FFFFF0
07FFFE01FFFFF0
07FFFF81FFFFF0
07FFFF81FFFFE0
07FFFF81FFFFE0
0FE07FC2003FC0
0FE03FC0007FC0
0FE01FC000FF80
0FE01F8001FF00
0FC03F8003FE00
1FC03F8007FC00
1FC03F800FF800
1FC03F801FF000
1FC03F803FE000
3F807F003FC000
3F807F007F8000
3F807F00FF0000
3F807F01FE0000
3F00FE03FC0000
7F00FE07F80000
7F00FE0FF80000
7F03FE1FF00000
7FFFFC3FFFFE00
7FFFFC3FFFFE00
FFFFF83FFFFE00
FFFFF03FFFFE00
FFFF807FFFFC00
ENDCHAR
STARTCHAR uni01F2
ENCODING 498
SWIDTH 1225 0
DWIDTH 48 0
BBX 47 27 1 0
BITMAP
07FFF0000000
07FFFE000000
07FFFF800000
07FFFF800000
07FFFF800000
0FE07FC00000
0FE03FC00000
0FE01FC3FFFE
0FE01F83FFFE
0FC03F83FFFE
1FC03F87FFFC
1FC03F87FFFC
1FC03F8007F8
1FC03F800FF0
3F807F001FE0
3F807F003FC0
3F807F007F80
3F807F00FF00
3F00FE01FE00
7F00FE03FC00
7F00FE07F800
7F03FE1FF000
7FFFFC3FFFF0
7FFFFC3FFFF0
FFFFF83FFFE0
FFFFF03FFFE0
FFFF807FFFE0
ENDCHAR
STARTCHAR uni01F3
ENCODING 499
SWIDTH 1132 0
DWIDTH 44 0
BBX 44 29 1 0
BITMAP
00007F000000
00007F000000
00007E000000
00007E000000
00007E000000
0000FE000000
0000FE000000
0000FC000000
0000FC000000
03F8FC3FFFF0
0FFDFC3FFFE0
1FFFF83FFFE0
1FFFF83FFFE0
3FFFF83FFFE0
3F83F8007FC0
3F03F800FF80
7F03F001FE00
7E03F003FC00
7E03F007F800
7E07F00FF000
FE07F01FE000
FE07E03FC000
FC07E07F8000
FE0FE0FF0000
FFFFE1FFFF00
FFFFC1FFFF00
FFFFC3FFFF00
7FEFC3FFFF00
3FCFC3FFFE00
ENDCHAR
STARTCHAR uni01F4
ENCODING 500
SWIDTH 674 0
DWIDTH 26 0
BBX 25 35 2 0
BITMAP
0000FC00
0001F800
0003F000
0003E000
0007C000
000F8000
00000000
00000000
007FFE00
03FFFF80
07FFFF80
0FFFFF00
0FFFFF00
1FE00100
1FC00000
3F800000
3F800000
3F000000
7F000000
7F000000
7F0FFE00
7E0FFC00
FE0FFC00
FE0FFC00
FE00FC00
FE01FC00
FE01F800
FE01F800
FE01F800
FE01F800
FFFFF800
FFFFF000
7FFFF000
3FFFF000
0FFFF000
ENDCHAR
STARTCHAR uni01F5
ENCODING 501
SWIDTH 596 0
DWIDTH 23 0
BBX 23 36 0 -8
BITMAP
0003F8
0007E0
000FC0
001F80
003F00
003C00
000000
000000
01FC7E
03FE7E
07FFFC
0FFFFC
0FFFFC
1FC3FC
1F81FC
1F81F8
3F81F8
3F81F8
3F03F8
3F03F0
3F03F0
3F07F0
7F8FF0
7FFFF0
3FFFE0
3FFFE0
3FF7E0
0FCFE0
000FC0
000FC0
001FC0
7FFF80
7FFF80
FFFF00
FFFE00
FFF000
ENDCHAR
STARTCHAR Aringacute
ENCODING 506
SWIDTH 683 0
DWIDTH 28 0
BBX 28 40 -2 0
BITMAP
000003F0
000007E0
000007C0
00000F80
00001F00
00001E00
00007FC0
0000FFC0
0001F3E0
0001C1C0
0001C1C0
0001C1C0
0001F7C0
0001FF80
0003FF00
0003FF00
0007FF00
000FFF80
000FFF80
001FFF80
001F9F80
003F9F80
003F1F80
007F1F80
007E1F80
00FE1F80
00FC1FC0
01FC1FC0
01F81FC0
03F80FC0
07FFFFC0
07FFFFC0
0FFFFFC0
0FFFFFC0
1FFFFFE0
1FC00FE0
3F800FE0
3F800FE0
7F000FE0
FE000FE0
ENDCHAR
STARTCHAR aringacute
ENCODING 507
SWIDTH 589 0
DWIDTH 23 0
BBX 22 38 1 0
BITMAP
0001FC
0003F0
0007E0
0007C0
000F80
001F00
000000
001FE0
007FF0
0079F0
00F0F0
00F0F0
00E0E0
00FBE0
00FFE0
007F80
000000
000000
07F8FC
0FFDFC
1FFFF8
1FFFF8
3FFFF8
3F83F8
3F03F8
7F03F0
7E03F0
7E03F0
7E07F0
FE07F0
FE07E0
FC07E0
FE0FE0
FFFFE0
FFFFC0
FFFFC0
7FEFC0
3FCFC0
ENDCHAR
STARTCHAR AEacute
ENCODING 508
SWIDTH 981 0
DWIDTH 38 0
BBX 42 35 -2 0
BITMAP
000001F80000
000003F00000
000007E00000
000007C00000
00000F800000
00001F000000
000000000000
000000000000
0001FFFFFFC0
0003FFFFFFC0
0003FFFFFF80
0007FFFFFF80
000FFFFFFF80
000FFF800000
001FFF800000
001F9F800000
003F9F800000
003F1F800000
007F1F800000
007E1FFFFC00
00FE1FFFF800
00FC1FFFF800
01FC1FFFF800
01F81FFFF800
03F80FC00000
07FFFFC00000
07FFFFC00000
0FFFFFC00000
0FFFFFC00000
1FFFFFE00000
1FC00FFFF800
3F800FFFF800
3F800FFFF800
7F000FFFF000
FE000FFFF000
ENDCHAR
STARTCHAR aeacute
ENCODING 509
SWIDTH 860 0
DWIDTH 34 0
BBX 32 28 1 0
BITMAP
00003F80
00007E00
0000FC00
0000F800
0001F000
0003E000
00000000
00000000
0FFF1FF8
0FFFFFFE
1FFFFFFE
1FFFFFFF
1FFFF87F
0007F03F
0007F03E
0007E07E
07FFFFFE
3FFFFFFE
7FFFFFFE
7FFFFFFE
FC0FC000
FC0FC000
FC1FC000
FC3FF838
FFFFFFF8
FFFFFFF0
FFFFFFF0
7FE1FFF0
ENDCHAR
STARTCHAR Oslashacute
ENCODING 510
SWIDTH 720 0
DWIDTH 28 0
BBX 29 37 0 -2
BITMAP
00003F80
00003E00
00007C00
0000F800
0000F000
0001F000
000000F8
000001F0
003FFFF0
00FFFFE0
01FFFFE0
03FFFFE0
07FFFFE0
07F83FF0
07F07FF0
0FE07FF0
0FE0FFE0
0FE1FFE0
0FC3FFE0
1FC3EFE0
1FC7CFE0
1FCF8FE0
1FDF9FC0
3FBF1FC0
3FBE1FC0
3FFC1FC0
3FF83F80
3FF83F80
3FF03F80
3FE07F00
3FFFFF00
3FFFFE00
3FFFFE00
1FFFFC00
3FFFF000
7C000000
FC000000
ENDCHAR
STARTCHAR oslashacute
ENCODING 511
SWIDTH 573 0
DWIDTH 22 0
BBX 24 30 -1 -2
BITMAP
0001FC
0003F0
0007E0
000F80
001F00
003E00
00001F
00003E
00FFFC
03FFFC
07FFFC
0FFFFC
0FFBFE
0FC7FE
1FCFFC
1F8FFC
1F9FFC
1FBEFC
3FFDFC
3FFDF8
3FF9F8
3FF1F8
3FE3F8
3FE7F0
3FFFF0
3FFFE0
1FFFE0
3FFF80
7E0000
FC0000
ENDCHAR
STARTCHAR uni0200
ENCODING 512
SWIDTH 706 0
DWIDTH 28 0
BBX 27 34 -2 0
BITMAP
001F3F00
000F9F00
00078F80
0007C780
0003C380
00000000
00000000
0001FF00
0003FF00
0003FF00
0007FF00
000FFF80
000FFF80
001FFF80
001F9F80
003F9F80
003F1F80
007F1F80
007E1F80
00FE1F80
00FC1FC0
01FC1FC0
01F81FC0
03F80FC0
07FFFFC0
07FFFFC0
0FFFFFC0
0FFFFFC0
1FFFFFE0
1FC00FE0
3F800FE0
3F800FE0
7F000FE0
FE000FE0
ENDCHAR
STARTCHAR uni0201
ENCODING 513
SWIDTH 589 0
DWIDTH 23 0
BBX 22 27 1 0
BITMAP
0F9F80
07C780
03C780
01E3C0
00E1C0
000000
000000
07F8FC
0FFDFC
1FFFF8
1FFFF8
3FFFF8
3F83F8
3F03F8
7F03F0
7E03F0
7E03F0
7E07F0
FE07F0
FE07E0
FC07E0
FE0FE0
FFFFE0
FFFFC0
FFFFC0
7FEFC0
3FCFC0
ENDCHAR
STARTCHAR uni0202
ENCODING 514
SWIDTH 706 0
DWIDTH 28 0
BBX 27 35 -2 0
BITMAP
00007F80
0000FFC0
0001FFC0
0003C3C0
0003C1C0
00000200
00000000
00000000
0001FF00
0003FF00
0003FF00
0007FF00
000FFF80
000FFF80
001FFF80
001F9F80
003F9F80
003F1F80
007F1F80
007E1F80
00FE1F80
00FC1FC0
01FC1FC0
01F81FC0
03F80FC0
07FFFFC0
07FFFFC0
0FFFFFC0
0FFFFFC0
1FFFFFE0
1FC00FE0
3F800FE0
3F800FE0
7F000FE0
FE000FE0
ENDCHAR
STARTCHAR uni0203
ENCODING 515
SWIDTH 589 0
DWIDTH 23 0
BBX 22 28 1 0
BITMAP
003FC0
007FE0
00FFE0
00F0E0
01E0E0
000000
000000
000000
07F8FC
0FFDFC
1FFFF8
1FFFF8
3FFFF8
3F83F8
3F03F8
7F03F0
7E03F0
7E03F0
7E07F0
FE07F0
FE07E0
FC07E0
FE0FE0
FFFFE0
FFFFC0
FFFFC0
7FEFC0
3FCFC0
ENDCHAR
STARTCHAR uni0204
ENCODING 516
SWIDTH 611 0
DWIDTH 24 0
BBX 25 34 1 0
BITMAP
03F3E000
01F1F000
00F8F000
0078F800
00387800
00000000
00000000
07FFFF80
07FFFF00
07FFFF00
07FFFF00
07FFFF00
0FE00000
0FE00000
0FE00000
0FE00000
0FC00000
1FC00000
1FFFF000
1FFFF000
1FFFF000
3FFFF000
3FFFF000
3F800000
3F800000
3F000000
7F000000
7F000000
7F000000
7FFFF000
7FFFF000
FFFFF000
FFFFE000
FFFFE000
ENDCHAR
STARTCHAR uni0205
ENCODING 517
SWIDTH 568 0
DWIDTH 22 0
BBX 20 27 1 0
BITMAP
0F9F00
078F80
03C780
01C3C0
00E1C0
000000
000000
01FFC0
07FFE0
0FFFF0
1FFFF0
1FC7F0
3F03F0
3F03F0
3F03F0
7FFFE0
7FFFE0
7FFFE0
7FFFE0
FE0000
FC0000
FE0000
FF8380
FFFF80
7FFF80
7FFF80
1FFF80
ENDCHAR
STARTCHAR uni0206
ENCODING 518
SWIDTH 611 0
DWIDTH 24 0
BBX 25 35 1 0
BITMAP
000FF800
001FF800
003FFC00
003C3C00
00383800
00400000
00000000
00000000
07FFFF80
07FFFF00
07FFFF00
07FFFF00
07FFFF00
0FE00000
0FE00000
0FE00000
0FE00000
0FC00000
1FC00000
1FFFF000
1FFFF000
1FFFF000
3FFFF000
3FFFF000
3F800000
3F800000
3F000000
7F000000
7F000000
7F000000
7FFFF000
7FFFF000
FFFFF000
FFFFE000
FFFFE000
ENDCHAR
STARTCHAR uni0207
ENCODING 519
SWIDTH 568 0
DWIDTH 22 0
BBX 20 28 1 0
BITMAP
003FC0
00FFE0
00FFE0
01E1E0
01E1E0
000000
000000
000000
01FFC0
07FFE0
0FFFF0
1FFFF0
1FC7F0
3F03F0
3F03F0
3F03F0
7FFFE0
7FFFE0
7FFFE0
7FFFE0
FE0000
FC0000
FE0000
FF8380
FFFF80
7FFF80
7FFF80
1FFF80
ENDCHAR
STARTCHAR uni0208
ENCODING 520
SWIDTH 318 0
DWIDTH 12 0
BBX 15 34 1 0
BITMAP
FCF8
7C7C
3E7C
1E3C
1E1E
0000
0000
07F0
07F0
07F0
07F0
07E0
0FE0
0FE0
0FE0
0FE0
0FC0
1FC0
1FC0
1FC0
1FC0
3F80
3F80
3F80
3F80
3F00
7F00
7F00
7F00
7F00
7E00
FE00
FE00
FE00
ENDCHAR
STARTCHAR uni0209
ENCODING 521
SWIDTH 289 0
DWIDTH 11 0
BBX 15 27 -1 0
BITMAP
F9F8
3C78
3E3C
1E3C
0E1E
0000
0000
03F0
07F0
07F0
07E0
07E0
07E0
0FE0
0FE0
0FC0
0FC0
0FC0
1FC0
1F80
1F80
1F80
3F80
3F80
3F00
3F00
3F00
ENDCHAR
STARTCHAR uni020A
ENCODING 522
SWIDTH 318 0
DWIDTH 12 0
BBX 15 35 1 0
BITMAP
03FC
07FE
0FFE
0F0E
1E0E
0000
0000
0000
07F0
07F0
07F0
07F0
07E0
0FE0
0FE0
0FE0
0FE0
0FC0
1FC0
1FC0
1FC0
1FC0
3F80
3F80
3F80
3F80
3F00
7F00
7F00
7F00
7F00
7E00
FE00
FE00
FE00
ENDCHAR
STARTCHAR uni020B
ENCODING 523
SWIDTH 289 0
DWIDTH 11 0
BBX 14 28 1 0
BITMAP
0FF0
1FF8
3FF8
3C3C
7838
0000
0000
0000
0FC0
1FC0
1FC0
1F80
1F80
1F80
3F80
3F80
3F00
3F00
3F00
7F00
7E00
7E00
7E00
FE00
FE00
FC00
FC00
FC00
ENDCHAR
STARTCHAR uni020C
ENCODING 524
SWIDTH 720 0
DWIDTH 28 0
BBX 26 34 2 0
BITMAP
01FBF000
00F8F000
0078F800
003C7800
003C3C00
00000000
00000000
00FFFC00
03FFFF00
07FFFF80
0FFFFF80
1FFFFF80
1FE03FC0
1FC01FC0
3F801FC0
3F801F80
3F803F80
3F003F80
7F003F80
7F003F80
7F003F80
7F007F00
FE007F00
FE007F00
FE007F00
FE00FE00
FE00FE00
FE00FE00
FE01FC00
FFFFFC00
FFFFF800
FFFFF800
7FFFF000
1FFFC000
ENDCHAR
STARTCHAR uni020D
ENCODING 525
SWIDTH 573 0
DWIDTH 22 0
BBX 21 27 1 0
BITMAP
0F9F00
07CF80
03C780
01E3C0
00E1C0
000000
000000
03FFC0
0FFFF0
1FFFF0
3FFFF0
3FEFF8
3F03F8
7F03F0
7E03F0
7E03F0
7E03F0
FE07F0
FE07E0
FC07E0
FC07E0
FC0FE0
FE1FC0
FFFFC0
FFFF80
7FFF80
3FFE00
ENDCHAR
STARTCHAR uni020E
ENCODING 526
SWIDTH 720 0
DWIDTH 28 0
BBX 26 35 2 0
BITMAP
0007F800
000FFC00
001FFC00
001E1C00
003C1C00
00000000
00000000
00000000
00FFFC00
03FFFF00
07FFFF80
0FFFFF80
1FFFFF80
1FE03FC0
1FC01FC0
3F801FC0
3F801F80
3F803F80
3F003F80
7F003F80
7F003F80
7F003F80
7F007F00
FE007F00
FE007F00
FE007F00
FE00FE00
FE00FE00
FE00FE00
FE01FC00
FFFFFC00
FFFFF800
FFFFF800
7FFFF000
1FFFC000
ENDCHAR
STARTCHAR uni020F
ENCODING 527
SWIDTH 573 0
DWIDTH 22 0
BBX 21 28 1 0
BITMAP
003FC0
00FFE0
00FFE0
01E1E0
01E1E0
000000
000000
000000
03FFC0
0FFFF0
1FFFF0
3FFFF0
3FEFF8
3F03F8
7F03F0
7E03F0
7E03F0
7E03F0
FE07F0
FE07E0
FC07E0
FC07E0
FC0FE0
FE1FC0
FFFFC0
FFFF80
7FFF80
3FFE00
ENDCHAR
STARTCHAR uni0210
ENCODING 528
SWIDTH 679 0
DWIDTH 26 0
BBX 26 34 1 0
BITMAP
01F3F000
00F9F000
0078F800
007C7800
003C3800
00000000
00000000
07FFFC00
07FFFF00
07FFFF80
07FFFFC0
07FFFFC0
0FE03FC0
0FE01FC0
0FE01FC0
0FE01FC0
0FC03F80
1FC03F80
1FC03F80
1FC3FF00
1FFFFF00
3FFFFE00
3FFFFC00
3FFFF000
3F83F000
3F03F000
7F03F800
7F03F800
7F03F800
7F03F800
7E01F800
FE01FC00
FE01FC00
FE01FC00
ENDCHAR
STARTCHAR uni0211
ENCODING 529
SWIDTH 416 0
DWIDTH 16 0
BBX 18 27 0 0
BITMAP
3E7C00
1E3E00
0F1E00
078F00
038700
000000
000000
07E7C0
0FCF80
0FDF80
0FFF80
0FFF80
0FFF00
1FE000
1FC000
1FC000
1F8000
1F8000
3F8000
3F0000
3F0000
3F0000
7F0000
7F0000
7E0000
7E0000
FE0000
ENDCHAR
STARTCHAR uni0212
ENCODING 530
SWIDTH 679 0
DWIDTH 26 0
BBX 26 35 1 0
BITMAP
0007F800
001FFC00
001FFC00
003C3C00
003C3C00
00000000
00000000
00000000
07FFFC00
07FFFF00
07FFFF80
07FFFFC0
07FFFFC0
0FE03FC0
0FE01FC0
0FE01FC0
0FE01FC0
0FC03F80
1FC03F80
1FC03F80
1FC3FF00
1FFFFF00
3FFFFE00
3FFFFC00
3FFFF000
3F83F000
3F03F000
7F03F800
7F03F800
7F03F800
7F03F800
7E01F800
FE01FC00
FE01FC00
FE01FC00
ENDCHAR
STARTCHAR uni0213
ENCODING 531
SWIDTH 416 0
DWIDTH 16 0
BBX 18 28 0 0
BITMAP
00FF00
03FF80
03FF80
078780
078780
000000
000000
000000
07E7C0
0FCF80
0FDF80
0FFF80
0FFF80
0FFF00
1FE000
1FC000
1FC000
1F8000
1F8000
3F8000
3F0000
3F0000
3F0000
7F0000
7F0000
7E0000
7E0000
FE0000
ENDCHAR
STARTCHAR uni0214
ENCODING 532
SWIDTH 703 0
DWIDTH 27 0
BBX 26 34 2 0
BITMAP
01F3F000
00F9F000
0078F800
007C7800
003C7800
00000000
00000000
0FE01FC0
0FE01FC0
0FE01FC0
0FC01FC0
1FC01F80
1FC03F80
1FC03F80
1FC03F80
1F803F80
3F807F00
3F807F00
3F807F00
3F807F00
7F007E00
7F00FE00
7F00FE00
7F00FE00
7E00FE00
7E00FC00
FE01FC00
FE01FC00
FF03FC00
FFFFF800
7FFFF800
7FFFF000
3FFFE000
1FFF8000
ENDCHAR
STARTCHAR uni0215
ENCODING 533
SWIDTH 591 0
DWIDTH 23 0
BBX 22 27 1 0
BITMAP
0F9F00
07CF80
03C780
01E3C0
00E1C0
000000
000000
1FC0FC
1F81FC
1F81F8
1F81F8
3F81F8
3F81F8
3F03F8
3F03F0
3F03F0
7F03F0
7E07F0
7E07F0
7E07E0
7E07E0
FE0FE0
FFFFE0
FFFFE0
7FFFC0
7FEFC0
3F8FC0
ENDCHAR
STARTCHAR uni0216
ENCODING 534
SWIDTH 703 0
DWIDTH 27 0
BBX 26 35 2 0
BITMAP
0007F800
001FFC00
001FFC00
003C3C00
003C3C00
00000000
00000000
00000000
0FE01FC0
0FE01FC0
0FE01FC0
0FC01FC0
1FC01F80
1FC03F80
1FC03F80
1FC03F80
1F803F80
3F807F00
3F807F00
3F807F00
3F807F00
7F007E00
7F00FE00
7F00FE00
7F00FE00
7E00FE00
7E00FC00
FE01FC00
FE01FC00
FF03FC00
FFFFF800
7FFFF800
7FFFF000
3FFFE000
1FFF8000
ENDCHAR
STARTCHAR uni0217
ENCODING 535
SWIDTH 591 0
DWIDTH 23 0
BBX 22 28 1 0
BITMAP
003FC0
007FE0
00FFE0
01E1E0
01E0E0
000100
000000
000000
1FC0FC
1F81FC
1F81F8
1F81F8
3F81F8
3F81F8
3F03F8
3F03F0
3F03F0
7F03F0
7E07F0
7E07F0
7E07E0
7E07E0
FE0FE0
FFFFE0
FFFFE0
7FFFC0
7FEFC0
3F8FC0
ENDCHAR
STARTCHAR uni0218
ENCODING 536
SWIDTH 631 0
DWIDTH 25 0
BBX 24 38 1 -11
BITMAP
007FFF
03FFFF
07FFFF
07FFFE
0FFFFE
0FE000
1FC000
1FC000
1FC000
1FC000
1FFC00
1FFFE0
1FFFF8
1FFFFC
0FFFFC
03FFFC
000FFC
0001FC
0001FC
0001F8
0003F8
0003F8
7FFFF8
FFFFF0
FFFFE0
FFFFC0
FFFF80
000000
000000
03F000
03F000
07E000
07E000
07E000
01E000
03C000
0FC000
0F8000
ENDCHAR
STARTCHAR uni0219
ENCODING 537
SWIDTH 519 0
DWIDTH 20 0
BBX 20 31 0 -11
BITMAP
03FFF0
07FFE0
0FFFE0
1FFFE0
1FC060
1F8000
1F0000
3FE000
3FFF00
3FFFC0
1FFFC0
0FFFC0
003FC0
000FC0
000FC0
003F80
7FFF80
7FFF80
7FFF00
FFFC00
000000
000000
07E000
0FE000
0FE000
0FC000
0FC000
03C000
078000
1F8000
3F0000
ENDCHAR
STARTCHAR uni021A
ENCODING 538
SWIDTH 591 0
DWIDTH 23 0
BBX 23 38 3 -11
BITMAP
7FFFFE
7FFFFE
7FFFFE
FFFFFC
FFFFFC
FFFFFC
01FC00
01FC00
01FC00
01FC00
01F800
03F800
03F800
03F800
03F800
07F000
07F000
07F000
07F000
07E000
0FE000
0FE000
0FE000
0FE000
0FC000
1FC000
1FC000
000000
000000
1F8000
1F8000
3F0000
3F0000
3F0000
0F0000
0E0000
7E0000
7C0000
ENDCHAR
STARTCHAR uni021B
ENCODING 539
SWIDTH 422 0
DWIDTH 16 0
BBX 15 37 2 -11
BITMAP
03F0
07F0
07F0
07E0
07E0
07E0
7FFE
FFFE
FFFE
FFFE
FFFC
1FC0
1F80
1F80
1F80
3F80
3F80
3F00
3F00
3F00
7F00
7F80
7FF0
7FF0
3FF0
0FE0
0000
0000
3F80
3F80
3F00
3F00
7F00
0F00
1E00
7E00
F800
ENDCHAR
STARTCHAR uni022A
ENCODING 554
SWIDTH 720 0
DWIDTH 28 0
BBX 26 41 2 0
BITMAP
000FFF80
000FFF80
001FFF80
001FFF80
00000000
00000000
00010000
003E1F00
003E1F00
003E3E00
003E3E00
00000000
00000000
00000000
00FFFC00
03FFFF00
07FFFF80
0FFFFF80
1FFFFF80
1FE03FC0
1FC01FC0
3F801FC0
3F801F80
3F803F80
3F003F80
7F003F80
7F003F80
7F003F80
7F007F00
FE007F00
FE007F00
FE007F00
FE00FE00
FE00FE00
FE00FE00
FE01FC00
FFFFFC00
FFFFF800
FFFFF800
7FFFF000
1FFFC000
ENDCHAR
STARTCHAR uni022B
ENCODING 555
SWIDTH 573 0
DWIDTH 22 0
BBX 22 33 1 0
BITMAP
00FFFC
00FFFC
00FFF8
00FFF8
000000
000008
01F1F0
01F1F0
01F1F0
03E1F0
000000
000000
000000
03FFC0
0FFFF0
1FFFF0
3FFFF0
3FEFF8
3F03F8
7F03F0
7E03F0
7E03F0
7E03F0
FE07F0
FE07E0
FC07E0
FC07E0
FC0FE0
FE1FC0
FFFFC0
FFFF80
7FFF80
3FFE00
ENDCHAR
STARTCHAR uni022C
ENCODING 556
SWIDTH 720 0
DWIDTH 28 0
BBX 26 41 2 0
BITMAP
000FFF80
000FFF80
001FFF80
001FFF80
00000000
00000000
000F0780
003FFF00
003FFF00
007FFF00
0070FE00
00700000
00000000
00000000
00FFFC00
03FFFF00
07FFFF80
0FFFFF80
1FFFFF80
1FE03FC0
1FC01FC0
3F801FC0
3F801F80
3F803F80
3F003F80
7F003F80
7F003F80
7F003F80
7F007F00
FE007F00
FE007F00
FE007F00
FE00FE00
FE00FE00
FE00FE00
FE01FC00
FFFFFC00
FFFFF800
FFFFF800
7FFFF000
1FFFC000
ENDCHAR
STARTCHAR uni022D
ENCODING 557
SWIDTH 573 0
DWIDTH 22 0
BBX 22 34 1 0
BITMAP
00FFFC
00FFF8
00FFF8
01FFF8
000000
000000
00F038
01FFF8
03FFF8
03FFF0
078FE0
070000
000000
000000
03FFC0
0FFFF0
1FFFF0
3FFFF0
3FEFF8
3F03F8
7F03F0
7E03F0
7E03F0
7E03F0
FE07F0
FE07E0
FC07E0
FC07E0
FC0FE0
FE1FC0
FFFFC0
FFFF80
7FFF80
3FFE00
ENDCHAR
STARTCHAR uni0230
ENCODING 560
SWIDTH 720 0
DWIDTH 28 0
BBX 26 40 2 0
BITMAP
000FFF80
001FFF80
001FFF80
001FFF80
00000000
00000000
0001F000
0003E000
0003E000
0003E000
00000000
00000000
00000000
00FFFC00
03FFFF00
07FFFF80
0FFFFF80
1FFFFF80
1FE03FC0
1FC01FC0
3F801FC0
3F801F80
3F803F80
3F003F80
7F003F80
7F003F80
7F003F80
7F007F00
FE007F00
FE007F00
FE007F00
FE00FE00
FE00FE00
FE00FE00
FE01FC00
FFFFFC00
FFFFF800
FFFFF800
7FFFF000
1FFFC000
ENDCHAR
STARTCHAR uni0231
ENCODING 561
SWIDTH 573 0
DWIDTH 22 0
BBX 22 34 1 0
BITMAP
00FFFC
00FFFC
00FFF8
00FFF8
000000
000000
000000
001F00
001F00
001F00
003F00
000000
000000
000000
03FFC0
0FFFF0
1FFFF0
3FFFF0
3FEFF8
3F03F8
7F03F0
7E03F0
7E03F0
7E03F0
FE07F0
FE07E0
FC07E0
FC07E0
FC0FE0
FE1FC0
FFFFC0
FFFF80
7FFF80
3FFE00
ENDCHAR
STARTCHAR uni0232
ENCODING 562
SWIDTH 654 0
DWIDTH 26 0
BBX 25 34 4 0
BITMAP
01FFF800
01FFF000
03FFF000
03FFF000
00000000
00000000
00000000
FE003F80
FE007F00
FE00FE00
7E01FC00
7F01FC00
7F03F800
3F07F000
3F07E000
3F8FE000
1F9FC000
1FBF8000
1FFF0000
1FFF0000
0FFE0000
0FFC0000
0FFC0000
07F80000
07F00000
07F00000
07F00000
0FE00000
0FE00000
0FE00000
0FE00000
0FC00000
1FC00000
1FC00000
ENDCHAR
STARTCHAR uni0233
ENCODING 563
SWIDTH 606 0
DWIDTH 24 0
BBX 23 35 0 -8
BITMAP
007FFC
00FFFC
00FFFC
00FFF8
000000
000000
000000
07E07E
0FE0FE
0FE0FE
0FC0FC
0FC0FC
0FC0FC
1FC1FC
1F81F8
1F81F8
1F81F8
1F81F8
3F83F8
3F03F0
3F03F0
3F87F0
3FFFF0
3FFFF0
3FFFE0
3FF7E0
0FC7E0
000FE0
000FC0
001FC0
7FFFC0
7FFF80
7FFF00
7FFE00
FFF800
ENDCHAR
STARTCHAR uni0237
ENCODING 567
SWIDTH 289 0
DWIDTH 11 0
BBX 15 28 -4 -8
BITMAP
007E
007E
00FE
00FE
00FC
00FC
00FC
01FC
01FC
01F8
01F8
01F8
03F8
03F8
03F0
03F0
07F0
07F0
07E0
07E0
07E0
0FE0
0FE0
7FC0
7FC0
FF80
FF00
F800
ENDCHAR
STARTCHAR uni0259
ENCODING 601
SWIDTH 568 0
DWIDTH 22 0
BBX 20 20 1 0
BITMAP
0FFF80
1FFFE0
1FFFE0
1FFFF0
1FFFF0
0003F0
0003F0
0003F0
7FFFF0
7FFFE0
7FFFE0
7FFFE0
7C0FE0
FC0FC0
FC0FC0
FE1FC0
FFFF80
FFFF80
7FFF00
3FFC00
ENDCHAR
STARTCHAR uni0272
ENCODING 626
SWIDTH 603 0
DWIDTH 24 0
BBX 26 28 -4 -8
BITMAP
007E7F00
00FCFFC0
00FDFFC0
00FFFFC0
00FFFFC0
00FE1FC0
01FC0FC0
01FC1FC0
01F81FC0
01F81F80
01F81F80
03F81F80
03F03F80
03F03F80
03F03F00
07F03F00
07F03F00
07E07F00
07E07E00
07E07E00
0FE00000
0FC00000
0FC00000
7FC00000
FFC00000
FF800000
FF000000
F8000000
ENDCHAR
STARTCHAR uni02B9
ENCODING 697
SWIDTH 170 0
DWIDTH 7 0
BBX 9 13 1 14
BITMAP
1F80
1F80
1F80
3F00
3F00
3F00
3E00
7E00
7C00
7C00
F800
F800
F000
ENDCHAR
STARTCHAR uni02BA
ENCODING 698
SWIDTH 376 0
DWIDTH 15 0
BBX 17 13 1 14
BITMAP
1F9F80
1F9F80
1F9F80
3F3F00
3F3F00
3F3F00
3E3E00
7E7E00
7C7C00
7C7C00
F87800
F8F800
F0F800
ENDCHAR
STARTCHAR uni02BC
ENCODING 700
SWIDTH 169 0
DWIDTH 7 0
BBX 9 10 2 19
BITMAP
3F80
3F00
3F00
3F00
0F00
1E00
1E00
FE00
FC00
E000
ENDCHAR
STARTCHAR circumflex
ENCODING 710
SWIDTH 341 0
DWIDTH 13 0
BBX 13 6 3 22
BITMAP
0FE0
1FE0
3FF0
7CF0
F878
F078
ENDCHAR
STARTCHAR caron
ENCODING 711
SWIDTH 339 0
DWIDTH 13 0
BBX 13 6 4 22
BITMAP
F0F8
F9F0
7BE0
7FC0
3F80
3F00
ENDCHAR
STARTCHAR uni02C9
ENCODING 713
SWIDTH 347 0
DWIDTH 14 0
BBX 14 4 3 23
BITMAP
7FFC
FFFC
FFFC
FFF8
ENDCHAR
STARTCHAR breve
ENCODING 728
SWIDTH 305 0
DWIDTH 12 0
BBX 12 6 4 22
BITMAP
E0F0
E0E0
FFE0
FFC0
FFC0
3F00
ENDCHAR
STARTCHAR dotaccent
ENCODING 729
SWIDTH 130 0
DWIDTH 5 0
BBX 6 4 3 23
BITMAP
7C
F8
F8
F8
ENDCHAR
STARTCHAR ring
ENCODING 730
SWIDTH 293 0
DWIDTH 11 0
BBX 12 9 3 22
BITMAP
1FE0
3FF0
7CF0
7070
7070
F0F0
FBE0
FFE0
7FC0
ENDCHAR
STARTCHAR ogonek
ENCODING 731
SWIDTH 195 0
DWIDTH 8 0
BBX 9 9 -3 -8
BITMAP
0880
3F00
7C00
7C00
F800
FF00
FE00
FE00
1E00
ENDCHAR
STARTCHAR tilde
ENCODING 732
SWIDTH 380 0
DWIDTH 15 0
BBX 16 6 3 22
BITMAP
3E0F
7FFE
7FFE
FFFE
E1FC
E000
ENDCHAR
STARTCHAR hungarumlaut
ENCODING 733
SWIDTH 397 0
DWIDTH 15 0
BBX 16 5 3 22
BITMAP
1FBF
3E7C
7C78
F8F0
E1E0
ENDCHAR
STARTCHAR gravecomb
ENCODING 768
SWIDTH 0 0
DWIDTH 0 0
BBX 8 6 4 22
BITMAP
FC
7E
3E
3F
1F
0F
ENDCHAR
STARTCHAR acutecomb
ENCODING 769
SWIDTH 0 0
DWIDTH 0 0
BBX 11 6 3 22
BITMAP
0FE0
1F80
3F00
7E00
FC00
F000
ENDCHAR
STARTCHAR uni0302
ENCODING 770
SWIDTH 0 0
DWIDTH 0 0
BBX 13 6 3 22
BITMAP
0FE0
1FE0
3FF0
7CF0
F878
F078
ENDCHAR
STARTCHAR tildecomb
ENCODING 771
SWIDTH 0 0
DWIDTH 0 0
BBX 16 6 3 22
BITMAP
1E0F
7FFE
7FFE
FFFE
E3FC
E000
ENDCHAR
STARTCHAR uni0304
ENCODING 772
SWIDTH 0 0
DWIDTH 0 0
BBX 14 4 3 23
BITMAP
7FFC
FFFC
FFFC
FFF8
ENDCHAR
STARTCHAR uni0306
ENCODING 774
SWIDTH 0 0
DWIDTH 0 0
BBX 12 6 4 22
BITMAP
E0F0
E0E0
FFE0
FFC0
FFC0
3F00
ENDCHAR
STARTCHAR uni0307
ENCODING 775
SWIDTH 0 0
DWIDTH 0 0
BBX 6 4 3 23
BITMAP
7C
F8
F8
F8
ENDCHAR
STARTCHAR uni0308
ENCODING 776
SWIDTH 0 0
DWIDTH 0 0
BBX 14 4 3 23
BITMAP
7C7C
F87C
F8F8
F8F8
ENDCHAR
STARTCHAR hookabovecomb
ENCODING 777
SWIDTH 0 0
DWIDTH 0 0
BBX 10 8 4 22
BITMAP
FFC0
FFC0
FFC0
03C0
07C0
1F80
3E00
7800
ENDCHAR
STARTCHAR uni030A
ENCODING 778
SWIDTH 0 0
DWIDTH 0 0
BBX 12 9 3 22
BITMAP
1FE0
3FF0
7CF0
7070
7070
F0F0
FBE0
FFE0
7FC0
ENDCHAR
STARTCHAR uni030B
ENCODING 779
SWIDTH 0 0
DWIDTH 0 0
BBX 16 5 3 22
BITMAP
1FBF
3E7C
7C78
F8F0
E1E0
ENDCHAR
STARTCHAR uni030C
ENCODING 780
SWIDTH 0 0
DWIDTH 0 0
BBX 13 6 4 22
BITMAP
F0F8
F9F0
7BE0
7FC0
3F80
3F00
ENDCHAR
STARTCHAR uni030F
ENCODING 783
SWIDTH 0 0
DWIDTH 0 0
BBX 14 5 4 22
BITMAP
F9F0
78F8
3C78
1C3C
1E1C
ENDCHAR
STARTCHAR uni0311
ENCODING 785
SWIDTH 0 0
DWIDTH 0 0
BBX 12 5 3 23
BITMAP
1FE0
7FF0
7FF0
F0F0
E0F0
ENDCHAR
STARTCHAR uni0312
ENCODING 786
SWIDTH 0 0
DWIDTH 0 0
BBX 8 9 3 22
BITMAP
1F
3F
78
78
7E
FE
FC
FC
FC
ENDCHAR
STARTCHAR uni031B
ENCODING 795
SWIDTH 0 0
DWIDTH 0 0
BBX 9 5 2 18
BITMAP
0780
0780
0F00
FF00
FE00
ENDCHAR
STARTCHAR dotbelowcomb
ENCODING 803
SWIDTH 0 0
DWIDTH 0 0
BBX 6 4 -4 -8
BITMAP
7C
7C
78
F8
ENDCHAR
STARTCHAR uni0324
ENCODING 804
SWIDTH 0 0
DWIDTH 0 0
BBX 15 5 -4 -8
BITMAP
7C3E
7C7C
7C7C
7C7C
F87C
ENDCHAR
STARTCHAR uni0326
ENCODING 806
SWIDTH 0 0
DWIDTH 0 0
BBX 9 9 -5 -11
BITMAP
1F80
3F80
3F80
3F00
3F00
0F00
1E00
7E00
FC00
ENDCHAR
STARTCHAR uni0327
ENCODING 807
SWIDTH 0 0
DWIDTH 0 0
BBX 9 8 -4 -7
BITMAP
0780
0F80
0F00
1F00
1F00
3E00
7E00
FC00
ENDCHAR
STARTCHAR uni0328
ENCODING 808
SWIDTH 0 0
DWIDTH 0 0
BBX 9 9 -3 -8
BITMAP
0880
3F00
7C00
7C00
F800
FF00
FE00
FE00
1E00
ENDCHAR
STARTCHAR uni032E
ENCODING 814
SWIDTH 0 0
DWIDTH 0 0
BBX 12 6 -3 -9
BITMAP
F070
E0F0
F1E0
FFE0
FFC0
7F80
ENDCHAR
STARTCHAR uni0331
ENCODING 817
SWIDTH 0 0
DWIDTH 0 0
BBX 14 3 -4 -8
BITMAP
7FFC
FFFC
FFFC
ENDCHAR
STARTCHAR uni0335
ENCODING 821
SWIDTH 0 0
DWIDTH 0 0
BBX 14 5 0 11
BITMAP
7FFC
7FFC
7FF8
7FF8
FFF8
ENDCHAR
STARTCHAR uni0336
ENCODING 822
SWIDTH 0 0
DWIDTH 0 0
BBX 23 4 2 19
BITMAP
7FFFFE
FFFFFE
FFFFFE
FFFFFE
ENDCHAR
STARTCHAR uni0394
ENCODING 916
SWIDTH 688 0
DWIDTH 27 0
BBX 27 27 -2 0
BITMAP
0003FF00
0003FF00
0007FF00
0007FF00
000FFF00
000FFF00
001FBF00
001FBF00
003F1F80
007F1F80
007E1F80
00FE1F80
00FC1F80
01FC1F80
01F81F80
03F81F80
03F01F80
07F01FC0
07E00FC0
0FE00FC0
0FC00FC0
1FC00FC0
1FFFFFC0
3FFFFFC0
3FFFFFC0
7FFFFFC0
FFFFFFE0
ENDCHAR
STARTCHAR uni03A9
ENCODING 937
SWIDTH 707 0
DWIDTH 28 0
BBX 27 27 0 0
BITMAP
001FFE00
007FFF80
01FFFFC0
03FFFFE0
03FFFFE0
07F81FE0
07F00FE0
0FE00FE0
0FE00FE0
0FE00FE0
0FE00FE0
1FC00FE0
1FC01FC0
1FC01FC0
1FC01FC0
1F801F80
1F801F80
1F803F80
1F803F00
1F807E00
0F807E00
0FC0F800
77E1F700
7FE3FF00
7FC3FF00
FFC3FF00
FFC3FE00
ENDCHAR
STARTCHAR uni03BC
ENCODING 956
SWIDTH 603 0
DWIDTH 24 0
BBX 24 27 -1 -7
BITMAP
03E03F
07E03E
07E03E
07C07E
07C07E
07C07C
0FC07C
0FC07C
0F80FC
0F80FC
1F80F8
1F80F8
1F81F8
1F01F8
1F01F8
3F87F0
3FFFF0
3FFDF0
3FFBF0
3FF3E0
7E0000
7E0000
7C0000
7C0000
7C0000
FC0000
FC0000
ENDCHAR
STARTCHAR pi
ENCODING 960
SWIDTH 601 0
DWIDTH 23 0
BBX 23 20 0 0
BITMAP
0FFFFE
0FFFFE
0FFFFE
0FFFFC
0FFFFC
1FC1FC
1FC1FC
1FC1FC
1F81F8
1F81F8
3F83F8
3F83F8
3F03F8
3F03F0
7F03F0
7F07F0
7F07F0
7E07E0
7E07E0
FE0FE0
ENDCHAR
STARTCHAR uni1E0C
ENCODING 7692
SWIDTH 690 0
DWIDTH 27 0
BBX 26 35 1 -8
BITMAP
07FFF000
07FFFE00
07FFFF80
07FFFF80
07FFFF80
0FE07FC0
0FE03FC0
0FE01FC0
0FE01F80
0FC03F80
1FC03F80
1FC03F80
1FC03F80
1FC03F80
3F807F00
3F807F00
3F807F00
3F807F00
3F00FE00
7F00FE00
7F00FE00
7F03FE00
7FFFFC00
7FFFFC00
FFFFF800
FFFFF000
FFFF8000
00000000
00000000
00000000
00000000
01F00000
01F00000
01E00000
03E00000
ENDCHAR
STARTCHAR uni1E0D
ENCODING 7693
SWIDTH 598 0
DWIDTH 23 0
BBX 24 37 1 -8
BITMAP
00007F
00007F
00007E
00007E
00007E
0000FE
0000FE
0000FC
0000FC
03F8FC
0FFDFC
1FFFF8
1FFFF8
3FFFF8
3F83F8
3F03F8
7F03F0
7E03F0
7E03F0
7E07F0
FE07F0
FE07E0
FC07E0
FE0FE0
FFFFE0
FFFFC0
FFFFC0
7FEFC0
3FCFC0
000000
000000
000000
000000
07C000
07C000
07C000
0F8000
ENDCHAR
STARTCHAR uni1E24
ENCODING 7716
SWIDTH 724 0
DWIDTH 28 0
BBX 28 35 1 -8
BITMAP
07F007F0
07F007F0
07F007F0
07F007E0
07E00FE0
0FE00FE0
0FE00FE0
0FE00FE0
0FE00FC0
0FC01FC0
1FC01FC0
1FFFFFC0
1FFFFFC0
1FFFFF80
3FFFFF80
3FFFFF80
3F803F80
3F803F00
3F007F00
7F007F00
7F007F00
7F007F00
7F007E00
7E00FE00
FE00FE00
FE00FE00
FE00FE00
00000000
00000000
00000000
00000000
00F80000
01F00000
01F00000
01F00000
ENDCHAR
STARTCHAR uni1E25
ENCODING 7717
SWIDTH 603 0
DWIDTH 24 0
BBX 22 37 0 -8
BITMAP
01F800
03F800
03F000
03F000
03F000
07F000
07F000
07E000
07E000
07E7F0
0FEFFC
0FFFFC
0FFFFC
0FFFFC
0FE1FC
1FC0FC
1FC1FC
1F81FC
1F81F8
3F81F8
3F81F8
3F03F8
3F03F8
3F03F0
7F03F0
7F03F0
7E07F0
7E07E0
7E07E0
800000
000000
000000
000000
03E000
03E000
03E000
07C000
ENDCHAR
STARTCHAR uni1E44
ENCODING 7748
SWIDTH 729 0
DWIDTH 28 0
BBX 28 34 1 0
BITMAP
0000F800
0000F800
0001F000
0001F000
00000000
00000000
00000000
07F803F0
07F803F0
07FC07F0
07FC07F0
07FC07E0
0FFE07E0
0FFE07E0
0FFF0FE0
0FFF0FE0
0FFF0FC0
1FFF8FC0
1FFF9FC0
1F9FDFC0
1F9FDFC0
3F9FDF80
3F8FFF80
3F0FFF80
3F0FFF80
3F07FF00
7F07FF00
7F03FF00
7E03FF00
7E03FF00
7E01FE00
FE01FE00
FE00FE00
FC00FE00
ENDCHAR
STARTCHAR uni1E45
ENCODING 7749
SWIDTH 603 0
DWIDTH 24 0
BBX 22 27 0 0
BITMAP
0007C0
0007C0
000F80
000F80
000000
000000
000000
07E7F0
0FCFFC
0FDFFC
0FFFFC
0FFFFC
0FE1FC
1FC0FC
1FC1FC
1F81FC
1F81F8
1F81F8
3F81F8
3F03F8
3F03F8
3F03F0
7F03F0
7F03F0
7E07F0
7E07E0
FE07E0
ENDCHAR
STARTCHAR uni1E5A
ENCODING 7770
SWIDTH 679 0
DWIDTH 26 0
BBX 26 35 1 -8
BITMAP
07FFFC00
07FFFF00
07FFFF80
07FFFFC0
07FFFFC0
0FE03FC0
0FE01FC0
0FE01FC0
0FE01FC0
0FC03F80
1FC03F80
1FC03F80
1FC3FF00
1FFFFF00
3FFFFE00
3FFFFC00
3FFFF000
3F83F000
3F03F000
7F03F800
7F03F800
7F03F800
7F03F800
7E01F800
FE01FC00
FE01FC00
FE01FC00
00000000
00000000
00000000
00000000
01F00000
01E00000
03E00000
03E00000
ENDCHAR
STARTCHAR uni1E5B
ENCODING 7771
SWIDTH 416 0
DWIDTH 16 0
BBX 19 28 -1 -8
BITMAP
03F3E0
07E7C0
07EFC0
07FFC0
07FFC0
07FF80
0FF000
0FE000
0FE000
0FC000
0FC000
1FC000
1F8000
1F8000
1F8000
3F8000
3F8000
3F0000
3F0000
3F0000
400000
000000
000000
000000
7C0000
7C0000
7C0000
F80000
ENDCHAR
STARTCHAR uni1E62
ENCODING 7778
SWIDTH 631 0
DWIDTH 25 0
BBX 24 35 1 -8
BITMAP
007FFF
03FFFF
07FFFF
07FFFE
0FFFFE
0FE000
1FC000
1FC000
1FC000
1FC000
1FFC00
1FFFE0
1FFFF8
1FFFFC
0FFFFC
03FFFC
000FFC
0001FC
0001FC
0001F8
0003F8
0003F8
7FFFF8
FFFFF0
FFFFE0
FFFFC0
FFFF80
000000
000000
000000
000000
03E000
03C000
07C000
07C000
ENDCHAR
STARTCHAR uni1E63
ENCODING 7779
SWIDTH 519 0
DWIDTH 20 0
BBX 20 28 0 -8
BITMAP
03FFF0
07FFE0
0FFFE0
1FFFE0
1FC060
1F8000
1F0000
3FE000
3FFF00
3FFFC0
1FFFC0
0FFFC0
003FC0
000FC0
000FC0
003F80
7FFF80
7FFF80
7FFF00
FFFC00
000000
000000
000000
000000
07C000
0F8000
0F8000
0F8000
ENDCHAR
STARTCHAR uni1E6C
ENCODING 7788
SWIDTH 591 0
DWIDTH 23 0
BBX 23 35 3 -8
BITMAP
7FFFFE
7FFFFE
7FFFFE
FFFFFC
FFFFFC
FFFFFC
01FC00
01FC00
01FC00
01FC00
01F800
03F800
03F800
03F800
03F800
07F000
07F000
07F000
07F000
07E000
0FE000
0FE000
0FE000
0FE000
0FC000
1FC000
1FC000
000000
000000
000000
000000
1F0000
1F0000
3E0000
3E0000
ENDCHAR
STARTCHAR uni1E6D
ENCODING 7789
SWIDTH 422 0
DWIDTH 16 0
BBX 15 34 2 -8
BITMAP
03F0
07F0
07F0
07E0
07E0
07E0
7FFE
FFFE
FFFE
FFFE
FFFC
1FC0
1F80
1F80
1F80
3F80
3F80
3F00
3F00
3F00
7F00
7F80
7FF0
7FF0
3FF0
0FE0
0000
0000
0000
0000
3E00
3E00
3E00
3E00
ENDCHAR
STARTCHAR Wgrave
ENCODING 7808
SWIDTH 1003 0
DWIDTH 39 0
BBX 38 35 4 0
BITMAP
0007E00000
0003F00000
0001F00000
0000F80000
0000F80000
0000780000
0000000000
0000000000
FE01FE01FC
FE01FE01FC
FE01FE03F8
FE03FE03F8
FE03FE07F0
FE07FE07F0
FE07FE07E0
FE0FFE0FE0
FE0FFE0FE0
FE1FFE1FC0
FE1FFE1FC0
FE1F7E1F80
FE3F7E3F80
FE3E7E3F00
FE7E7E7F00
FE7C7E7E00
FEFC7E7E00
FEF87EFE00
FFF83EFC00
FFF83FFC00
FFF03FF800
FFF03FF800
7FE03FF000
7FE03FF000
7FC03FE000
7FC03FE000
7F803FE000
ENDCHAR
STARTCHAR wgrave
ENCODING 7809
SWIDTH 855 0
DWIDTH 33 0
BBX 32 28 3 0
BITMAP
003F0000
001F0000
001F8000
000F8000
0007C000
0003C000
00000000
00000000
FC07E03F
FC0FE07E
FC0FE07E
FC1FE0FC
FC1FE0FC
FC3FE1F8
FC3FE1F8
FC7FE1F8
FC7FE3F0
FC7FE3F0
7CFBE7E0
7CFBE7E0
7DF3E7C0
7DF3FFC0
7FE1FF80
7FE1FF80
7FC1FF00
7FC1FF00
7F81FE00
7F81FE00
ENDCHAR
STARTCHAR Wacute
ENCODING 7810
SWIDTH 1003 0
DWIDTH 39 0
BBX 38 35 4 0
BITMAP
00000FC000
00001F8000
00003F0000
00003E0000
00007C0000
0000780000
0000000000
0000000000
FE01FE01FC
FE01FE01FC
FE01FE03F8
FE03FE03F8
FE03FE07F0
FE07FE07F0
FE07FE07E0
FE0FFE0FE0
FE0FFE0FE0
FE1FFE1FC0
FE1FFE1FC0
FE1F7E1F80
FE3F7E3F80
FE3E7E3F00
FE7E7E7F00
FE7C7E7E00
FEFC7E7E00
FEF87EFE00
FFF83EFC00
FFF83FFC00
FFF03FF800
FFF03FF800
7FE03FF000
7FE03FF000
7FC03FE000
7FC03FE000
7F803FE000
ENDCHAR
STARTCHAR wacute
ENCODING 7811
SWIDTH 855 0
DWIDTH 33 0
BBX 32 28 3 0
BITMAP
0000FE00
0001F800
0003F000
0007E000
000FC000
000F0000
00000000
00000000
FC07E03F
FC0FE07E
FC0FE07E
FC1FE0FC
FC1FE0FC
FC3FE1F8
FC3FE1F8
FC7FE1F8
FC7FE3F0
FC7FE3F0
7CFBE7E0
7CFBE7E0
7DF3E7C0
7DF3FFC0
7FE1FF80
7FE1FF80
7FC1FF00
7FC1FF00
7F81FE00
7F81FE00
ENDCHAR
STARTCHAR Wdieresis
ENCODING 7812
SWIDTH 1003 0
DWIDTH 39 0
BBX 38 34 4 0
BITMAP
0003E3E000
0003E3E000
0007E3E000
0007C3E000
0000000000
0000000000
0000000000
FE01FE01FC
FE01FE01FC
FE01FE03F8
FE03FE03F8
FE03FE07F0
FE07FE07F0
FE07FE07E0
FE0FFE0FE0
FE0FFE0FE0
FE1FFE1FC0
FE1FFE1FC0
FE1F7E1F80
FE3F7E3F80
FE3E7E3F00
FE7E7E7F00
FE7C7E7E00
FEFC7E7E00
FEF87EFE00
FFF83EFC00
FFF83FFC00
FFF03FF800
FFF03FF800
7FE03FF000
7FE03FF000
7FC03FE000
7FC03FE000
7F803FE000
ENDCHAR
STARTCHAR wdieresis
ENCODING 7813
SWIDTH 855 0
DWIDTH 33 0
BBX 32 27 3 0
BITMAP
003F1F00
003E3E00
003E3E00
003E3E00
00000000
00000000
00000000
FC07E03F
FC0FE07E
FC0FE07E
FC1FE0FC
FC1FE0FC
FC3FE1F8
FC3FE1F8
FC7FE1F8
FC7FE3F0
FC7FE3F0
7CFBE7E0
7CFBE7E0
7DF3E7C0
7DF3FFC0
7FE1FF80
7FE1FF80
7FC1FF00
7FC1FF00
7F81FE00
7F81FE00
ENDCHAR
STARTCHAR uni1E92
ENCODING 7826
SWIDTH 628 0
DWIDTH 24 0
BBX 26 35 0 -8
BITMAP
03FFFFC0
07FFFFC0
07FFFFC0
07FFFF80
07FFFF80
0000FF80
0001FF00
0003FE00
0007FC00
000FF800
001FF000
003FE000
007FC000
007F8000
00FF0000
01FE0000
03FC0000
07F80000
0FF00000
1FF00000
3FE00000
7FC00000
FFFFFC00
FFFFF800
FFFFF800
FFFFF800
FFFFF800
00000000
00000000
00000000
00000000
01F00000
01E00000
03E00000
03E00000
ENDCHAR
STARTCHAR uni1E93
ENCODING 7827
SWIDTH 535 0
DWIDTH 21 0
BBX 21 28 0 -8
BITMAP
0FFFF8
0FFFF8
0FFFF8
0FFFF8
1FFFF0
001FE0
003FC0
007F80
00FF00
01FE00
03FC00
07F800
0FF000
1FE000
3FC000
7FFFC0
FFFFC0
FFFFC0
FFFF80
FFFF80
000000
000000
000000
000000
07C000
07C000
07C000
07C000
ENDCHAR
STARTCHAR uni1E9E
ENCODING 7838
SWIDTH 741 0
DWIDTH 29 0
BBX 28 27 1 0
BITMAP
003FFF80
00FFFFF0
01FFFFF0
03FFFFF0
07FFFFF0
07F80FE0
0FF01FC0
0FE03F80
0FE07F00
1FC0FE00
1FC3FC00
1FC7F800
1FC7FE00
3F87FF80
3F87FFC0
3F8FFFC0
3F801FC0
3F001FC0
7F001FC0
7F001FC0
7F001FC0
7F003F80
7E3FFF80
FE3FFF00
FE7FFF00
FE7FFC00
FE7FF000
ENDCHAR
STARTCHAR uni1EA0
ENCODING 7840
SWIDTH 706 0
DWIDTH 28 0
BBX 27 35 -2 -8
BITMAP
0001FF00
0003FF00
0003FF00
0007FF00
000FFF80
000FFF80
001FFF80
001F9F80
003F9F80
003F1F80
007F1F80
007E1F80
00FE1F80
00FC1FC0
01FC1FC0
01F81FC0
03F80FC0
07FFFFC0
07FFFFC0
0FFFFFC0
0FFFFFC0
1FFFFFE0
1FC00FE0
3F800FE0
3F800FE0
7F000FE0
FE000FE0
00000000
00000000
00000000
00000000
001F0000
003E0000
003E0000
003E0000
ENDCHAR
STARTCHAR uni1EA1
ENCODING 7841
SWIDTH 589 0
DWIDTH 23 0
BBX 22 28 1 -8
BITMAP
07F8FC
0FFDFC
1FFFF8
1FFFF8
3FFFF8
3F83F8
3F03F8
7F03F0
7E03F0
7E03F0
7E07F0
FE07F0
FE07E0
FC07E0
FE0FE0
FFFFE0
FFFFC0
FFFFC0
7FEFC0
3FCFC0
000000
000000
000000
000000
07C000
07C000
078000
0F8000
ENDCHAR
STARTCHAR uni1EA2
ENCODING 7842
SWIDTH 706 0
DWIDTH 28 0
BBX 27 37 -2 0
BITMAP
0000FFC0
0000FFC0
0000FFC0
000003C0
000007C0
00001F80
00003E00
00007800
00000000
00000000
0001FF00
0003FF00
0003FF00
0007FF00
000FFF80
000FFF80
001FFF80
001F9F80
003F9F80
003F1F80
007F1F80
007E1F80
00FE1F80
00FC1FC0
01FC1FC0
01F81FC0
03F80FC0
07FFFFC0
07FFFFC0
0FFFFFC0
0FFFFFC0
1FFFFFE0
1FC00FE0
3F800FE0
3F800FE0
7F000FE0
FE000FE0
ENDCHAR
STARTCHAR uni1EA3
ENCODING 7843
SWIDTH 589 0
DWIDTH 23 0
BBX 22 30 1 0
BITMAP
007FE0
007FE0
007FE0
0001E0
0001E0
000FC0
001F00
003C00
000000
000000
07F8FC
0FFDFC
1FFFF8
1FFFF8
3FFFF8
3F83F8
3F03F8
7F03F0
7E03F0
7E03F0
7E07F0
FE07F0
FE07E0
FC07E0
FE0FE0
FFFFE0
FFFFC0
FFFFC0
7FEFC0
3FCFC0
ENDCHAR
STARTCHAR uni1EA4
ENCODING 7844
SWIDTH 706 0
DWIDTH 28 0
BBX 28 42 -2 0
BITMAP
000007F0
000007E0
00000FC0
00001F80
00001F00
00003E00
00000000
00003F00
00007F80
0000FF80
0001F7C0
0003E3C0
0007C1C0
00000000
00000000
0001FF00
0003FF00
0003FF00
0007FF00
000FFF80
000FFF80
001FFF80
001F9F80
003F9F80
003F1F80
007F1F80
007E1F80
00FE1F80
00FC1FC0
01FC1FC0
01F81FC0
03F80FC0
07FFFFC0
07FFFFC0
0FFFFFC0
0FFFFFC0
1FFFFFE0
1FC00FE0
3F800FE0
3F800FE0
7F000FE0
FE000FE0
ENDCHAR
STARTCHAR uni1EA5
ENCODING 7845
SWIDTH 589 0
DWIDTH 23 0
BBX 22 35 1 0
BITMAP
0001F8
0003F0
0007C0
000F80
001F00
003E00
000000
001F80
003FC0
007FC0
00F9E0
01F1E0
03E0F0
000000
000000
07F8FC
0FFDFC
1FFFF8
1FFFF8
3FFFF8
3F83F8
3F03F8
7F03F0
7E03F0
7E03F0
7E07F0
FE07F0
FE07E0
FC07E0
FE0FE0
FFFFE0
FFFFC0
FFFFC0
7FEFC0
3FCFC0
ENDCHAR
STARTCHAR uni1EA6
ENCODING 7846
SWIDTH 706 0
DWIDTH 28 0
BBX 27 42 -2 0
BITMAP
0001F800
0000F800
0000FC00
00007C00
00003E00
00001E00
00000000
00003F00
00007F80
0000FF80
0001F7C0
0003E3C0
0007C1C0
00000000
00000000
0001FF00
0003FF00
0003FF00
0007FF00
000FFF80
000FFF80
001FFF80
001F9F80
003F9F80
003F1F80
007F1F80
007E1F80
00FE1F80
00FC1FC0
01FC1FC0
01F81FC0
03F80FC0
07FFFFC0
07FFFFC0
0FFFFFC0
0FFFFFC0
1FFFFFE0
1FC00FE0
3F800FE0
3F800FE0
7F000FE0
FE000FE0
ENDCHAR
STARTCHAR uni1EA7
ENCODING 7847
SWIDTH 589 0
DWIDTH 23 0
BBX 22 35 1 0
BITMAP
00FC00
007E00
003E00
001F00
001F00
000F80
000000
001F80
003FC0
007FC0
00F9E0
01F1E0
03E0F0
000000
000000
07F8FC
0FFDFC
1FFFF8
1FFFF8
3FFFF8
3F83F8
3F03F8
7F03F0
7E03F0
7E03F0
7E07F0
FE07F0
FE07E0
FC07E0
FE0FE0
FFFFE0
FFFFC0
FFFFC0
7FEFC0
3FCFC0
ENDCHAR
STARTCHAR uni1EA8
ENCODING 7848
SWIDTH 706 0
DWIDTH 28 0
BBX 28 44 -2 0
BITMAP
00003FE0
00007FF0
00007FF0
000000F0
000001E0
00000FC0
00001F00
00001C00
00000000
00003F00
00007F80
0000FF80
0001F7C0
0003E3C0
0007C1C0
00000000
00000000
0001FF00
0003FF00
0003FF00
0007FF00
000FFF80
000FFF80
001FFF80
001F9F80
003F9F80
003F1F80
007F1F80
007E1F80
00FE1F80
00FC1FC0
01FC1FC0
01F81FC0
03F80FC0
07FFFFC0
07FFFFC0
0FFFFFC0
0FFFFFC0
1FFFFFE0
1FC00FE0
3F800FE0
3F800FE0
7F000FE0
FE000FE0
ENDCHAR
STARTCHAR uni1EA9
ENCODING 7849
SWIDTH 589 0
DWIDTH 23 0
BBX 22 37 1 0
BITMAP
001FF0
001FF8
003FF8
000078
0000F0
0007F0
000FC0
000E00
000000
001F80
003FC0
007FC0
00F9E0
01F1E0
03E0F0
000000
000000
07F8FC
0FFDFC
1FFFF8
1FFFF8
3FFFF8
3F83F8
3F03F8
7F03F0
7E03F0
7E03F0
7E07F0
FE07F0
FE07E0
FC07E0
FE0FE0
FFFFE0
FFFFC0
FFFFC0
7FEFC0
3FCFC0
ENDCHAR
STARTCHAR uni1EAA
ENCODING 7850
SWIDTH 706 0
DWIDTH 28 0
BBX 30 42 -2 0
BITMAP
0000781C
0001FFFC
0001FFF8
0003FFF8
0003C7F0
00038000
00000000
00003F00
00007F80
0000FF80
0001F7C0
0003E3C0
0007C1C0
00000000
00000000
0001FF00
0003FF00
0003FF00
0007FF00
000FFF80
000FFF80
001FFF80
001F9F80
003F9F80
003F1F80
007F1F80
007E1F80
00FE1F80
00FC1FC0
01FC1FC0
01F81FC0
03F80FC0
07FFFFC0
07FFFFC0
0FFFFFC0
0FFFFFC0
1FFFFFE0
1FC00FE0
3F800FE0
3F800FE0
7F000FE0
FE000FE0
ENDCHAR
STARTCHAR uni1EAB
ENCODING 7851
SWIDTH 589 0
DWIDTH 23 0
BBX 23 35 1 0
BITMAP
003C0E
00FFDE
00FFFC
01FFFC
01E7F8
01C000
000000
001F80
003FC0
007FC0
00F9E0
01F1E0
03E0F0
000000
000000
07F8FC
0FFDFC
1FFFF8
1FFFF8
3FFFF8
3F83F8
3F03F8
7F03F0
7E03F0
7E03F0
7E07F0
FE07F0
FE07E0
FC07E0
FE0FE0
FFFFE0
FFFFC0
FFFFC0
7FEFC0
3FCFC0
ENDCHAR
STARTCHAR uni1EAC
ENCODING 7852
SWIDTH 706 0
DWIDTH 28 0
BBX 27 43 -2 -8
BITMAP
00003F00
00007F80
0000FF80
0001F7C0
0003E3C0
0007C1C0
00000000
00000000
0001FF00
0003FF00
0003FF00
0007FF00
000FFF80
000FFF80
001FFF80
001F9F80
003F9F80
003F1F80
007F1F80
007E1F80
00FE1F80
00FC1FC0
01FC1FC0
01F81FC0
03F80FC0
07FFFFC0
07FFFFC0
0FFFFFC0
0FFFFFC0
1FFFFFE0
1FC00FE0
3F800FE0
3F800FE0
7F000FE0
FE000FE0
00000000
00000000
00000000
00000000
001F0000
003E0000
003E0000
003E0000
ENDCHAR
STARTCHAR uni1EAD
ENCODING 7853
SWIDTH 589 0
DWIDTH 23 0
BBX 22 36 1 -8
BITMAP
001F80
003FC0
007FC0
00F9E0
01F1E0
03E0F0
000000
000000
07F8FC
0FFDFC
1FFFF8
1FFFF8
3FFFF8
3F83F8
3F03F8
7F03F0
7E03F0
7E03F0
7E07F0
FE07F0
FE07E0
FC07E0
FE0FE0
FFFFE0
FFFFC0
FFFFC0
7FEFC0
3FCFC0
000000
000000
000000
000000
07C000
07C000
078000
0F8000
ENDCHAR
STARTCHAR uni1EAE
ENCODING 7854
SWIDTH 706 0
DWIDTH 28 0
BBX 28 42 -2 0
BITMAP
000003F0
000007E0
00000FC0
00000F80
00001F00
00003E00
00000000
0001E1E0
0001C1E0
0001FFC0
0001FFC0
0001FF80
00003C00
00000000
00000000
0001FF00
0003FF00
0003FF00
0007FF00
000FFF80
000FFF80
001FFF80
001F9F80
003F9F80
003F1F80
007F1F80
007E1F80
00FE1F80
00FC1FC0
01FC1FC0
01F81FC0
03F80FC0
07FFFFC0
07FFFFC0
0FFFFFC0
0FFFFFC0
1FFFFFE0
1FC00FE0
3F800FE0
3F800FE0
7F000FE0
FE000FE0
ENDCHAR
STARTCHAR uni1EAF
ENCODING 7855
SWIDTH 589 0
DWIDTH 23 0
BBX 22 35 1 0
BITMAP
0001F8
0003F0
0007E0
000FC0
001F00
003E00
000000
00F070
00F0F0
00FFF0
00FFE0
007FC0
001F00
000000
000000
07F8FC
0FFDFC
1FFFF8
1FFFF8
3FFFF8
3F83F8
3F03F8
7F03F0
7E03F0
7E03F0
7E07F0
FE07F0
FE07E0
FC07E0
FE0FE0
FFFFE0
FFFFC0
FFFFC0
7FEFC0
3FCFC0
ENDCHAR
STARTCHAR uni1EB0
ENCODING 7856
SWIDTH 706 0
DWIDTH 28 0
BBX 27 42 -2 0
BITMAP
0001F800
0000FC00
00007C00
00007C00
00003E00
00001E00
00000000
0001E0E0
0001E1E0
0001FFC0
0001FFC0
0000FF80
00003C00
00000000
00000000
0001FF00
0003FF00
0003FF00
0007FF00
000FFF80
000FFF80
001FFF80
001F9F80
003F9F80
003F1F80
007F1F80
007E1F80
00FE1F80
00FC1FC0
01FC1FC0
01F81FC0
03F80FC0
07FFFFC0
07FFFFC0
0FFFFFC0
0FFFFFC0
1FFFFFE0
1FC00FE0
3F800FE0
3F800FE0
7F000FE0
FE000FE0
ENDCHAR
STARTCHAR uni1EB1
ENCODING 7857
SWIDTH 589 0
DWIDTH 23 0
BBX 22 35 1 0
BITMAP
00FC00
007E00
003E00
003F00
001F00
000F80
000000
00F070
00F0F0
00FFF0
00FFE0
007FC0
001F00
000000
000000
07F8FC
0FFDFC
1FFFF8
1FFFF8
3FFFF8
3F83F8
3F03F8
7F03F0
7E03F0
7E03F0
7E07F0
FE07F0
FE07E0
FC07E0
FE0FE0
FFFFE0
FFFFC0
FFFFC0
7FEFC0
3FCFC0
ENDCHAR
STARTCHAR uni1EB2
ENCODING 7858
SWIDTH 706 0
DWIDTH 28 0
BBX 28 44 -2 0
BITMAP
00003FE0
00007FF0
00007FF0
000000F0
000001E0
000007E0
00001F80
00001C00
00000000
0001E0E0
0001E1E0
0001FFC0
0001FFC0
0000FF80
00003C00
00000000
00000000
0001FF00
0003FF00
0003FF00
0007FF00
000FFF80
000FFF80
001FFF80
001F9F80
003F9F80
003F1F80
007F1F80
007E1F80
00FE1F80
00FC1FC0
01FC1FC0
01F81FC0
03F80FC0
07FFFFC0
07FFFFC0
0FFFFFC0
0FFFFFC0
1FFFFFE0
1FC00FE0
3F800FE0
3F800FE0
7F000FE0
FE000FE0
ENDCHAR
STARTCHAR uni1EB3
ENCODING 7859
SWIDTH 589 0
DWIDTH 23 0
BBX 22 37 1 0
BITMAP
001FF0
001FF8
003FF8
000078
0000F0
0003F0
000FC0
000F00
000000
00F070
00F0F0
00FFF0
00FFE0
007FC0
001F00
000000
000000
07F8FC
0FFDFC
1FFFF8
1FFFF8
3FFFF8
3F83F8
3F03F8
7F03F0
7E03F0
7E03F0
7E07F0
FE07F0
FE07E0
FC07E0
FE0FE0
FFFFE0
FFFFC0
FFFFC0
7FEFC0
3FCFC0
ENDCHAR
STARTCHAR uni1EB4
ENCODING 7860
SWIDTH 706 0
DWIDTH 28 0
BBX 30 42 -2 0
BITMAP
0000001C
0000FF38
0001FFF8
0003FFF8
0003DFF0
000380C0
00000000
0001E0E0
0001E1E0
0001FFC0
0001FFC0
0000FF80
00003C00
00000000
00000000
0001FF00
0003FF00
0003FF00
0007FF00
000FFF80
000FFF80
001FFF80
001F9F80
003F9F80
003F1F80
007F1F80
007E1F80
00FE1F80
00FC1FC0
01FC1FC0
01F81FC0
03F80FC0
07FFFFC0
07FFFFC0
0FFFFFC0
0FFFFFC0
1FFFFFE0
1FC00FE0
3F800FE0
3F800FE0
7F000FE0
FE000FE0
ENDCHAR
STARTCHAR uni1EB5
ENCODING 7861
SWIDTH 589 0
DWIDTH 23 0
BBX 23 35 1 0
BITMAP
00000E
007F9E
00FFFC
00FFFC
01EFF8
01C0E0
000000
00F070
00F0F0
00FFF0
00FFE0
007FC0
001F00
000000
000000
07F8FC
0FFDFC
1FFFF8
1FFFF8
3FFFF8
3F83F8
3F03F8
7F03F0
7E03F0
7E03F0
7E07F0
FE07F0
FE07E0
FC07E0
FE0FE0
FFFFE0
FFFFC0
FFFFC0
7FEFC0
3FCFC0
ENDCHAR
STARTCHAR uni1EB6
ENCODING 7862
SWIDTH 706 0
DWIDTH 28 0
BBX 27 43 -2 -8
BITMAP
0001E1E0
0001C1E0
0001FFC0
0001FFC0
0001FF80
00003C00
00000000
00000000
0001FF00
0003FF00
0003FF00
0007FF00
000FFF80
000FFF80
001FFF80
001F9F80
003F9F80
003F1F80
007F1F80
007E1F80
00FE1F80
00FC1FC0
01FC1FC0
01F81FC0
03F80FC0
07FFFFC0
07FFFFC0
0FFFFFC0
0FFFFFC0
1FFFFFE0
1FC00FE0
3F800FE0
3F800FE0
7F000FE0
FE000FE0
00000000
00000000
00000000
00000000
001F0000
003E0000
003E0000
003E0000
ENDCHAR
STARTCHAR uni1EB7
ENCODING 7863
SWIDTH 589 0
DWIDTH 23 0
BBX 22 36 1 -8
BITMAP
00F070
00F0F0
00FFF0
00FFE0
007FC0
001F00
000000
000000
07F8FC
0FFDFC
1FFFF8
1FFFF8
3FFFF8
3F83F8
3F03F8
7F03F0
7E03F0
7E03F0
7E07F0
FE07F0
FE07E0
FC07E0
FE0FE0
FFFFE0
FFFFC0
FFFFC0
7FEFC0
3FCFC0
000000
000000
000000
000000
07C000
07C000
078000
0F8000
ENDCHAR
STARTCHAR uni1EB8
ENCODING 7864
SWIDTH 611 0
DWIDTH 24 0
BBX 25 35 1 -8
BITMAP
07FFFF80
07FFFF00
07FFFF00
07FFFF00
07FFFF00
0FE00000
0FE00000
0FE00000
0FE00000
0FC00000
1FC00000
1FFFF000
1FFFF000
1FFFF000
3FFFF000
3FFFF000
3F800000
3F800000
3F000000
7F000000
7F000000
7F000000
7FFFF000
7FFFF000
FFFFF000
FFFFE000
FFFFE000
00000000
00000000
00000000
00000000
03E00000
03E00000
07C00000
07C00000
ENDCHAR
STARTCHAR uni1EB9
ENCODING 7865
SWIDTH 568 0
DWIDTH 22 0
BBX 20 28 1 -8
BITMAP
01FFC0
07FFE0
0FFFF0
1FFFF0
1FC7F0
3F03F0
3F03F0
3F03F0
7FFFE0
7FFFE0
7FFFE0
7FFFE0
FE0000
FC0000
FE0000
FF8380
FFFF80
7FFF80
7FFF80
1FFF80
000000
000000
000000
000000
07C000
0F8000
0F8000
0F8000
ENDCHAR
STARTCHAR uni1EBA
ENCODING 7866
SWIDTH 611 0
DWIDTH 24 0
BBX 25 37 1 0
BITMAP
000FF800
001FFC00
001FFC00
00003C00
00007800
0003F800
0007C000
00070000
00000000
00000000
07FFFF80
07FFFF00
07FFFF00
07FFFF00
07FFFF00
0FE00000
0FE00000
0FE00000
0FE00000
0FC00000
1FC00000
1FFFF000
1FFFF000
1FFFF000
3FFFF000
3FFFF000
3F800000
3F800000
3F000000
7F000000
7F000000
7F000000
7FFFF000
7FFFF000
FFFFF000
FFFFE000
FFFFE000
ENDCHAR
STARTCHAR uni1EBB
ENCODING 7867
SWIDTH 568 0
DWIDTH 22 0
BBX 20 30 1 0
BITMAP
007FE0
007FE0
00FFE0
0001E0
0003E0
001FC0
003F00
003800
000000
000000
01FFC0
07FFE0
0FFFF0
1FFFF0
1FC7F0
3F03F0
3F03F0
3F03F0
7FFFE0
7FFFE0
7FFFE0
7FFFE0
FE0000
FC0000
FE0000
FF8380
FFFF80
7FFF80
7FFF80
1FFF80
ENDCHAR
STARTCHAR uni1EBC
ENCODING 7868
SWIDTH 611 0
DWIDTH 24 0
BBX 25 35 1 0
BITMAP
001F0700
007FFF00
007FFE00
007FFE00
00F1FC00
00E00000
00000000
00000000
07FFFF80
07FFFF00
07FFFF00
07FFFF00
07FFFF00
0FE00000
0FE00000
0FE00000
0FE00000
0FC00000
1FC00000
1FFFF000
1FFFF000
1FFFF000
3FFFF000
3FFFF000
3F800000
3F800000
3F000000
7F000000
7F000000
7F000000
7FFFF000
7FFFF000
FFFFF000
FFFFE000
FFFFE000
ENDCHAR
STARTCHAR uni1EBD
ENCODING 7869
SWIDTH 568 0
DWIDTH 22 0
BBX 21 28 1 0
BITMAP
00F038
01FFF8
03FFF0
03FFF0
078FE0
070000
000000
000000
01FFC0
07FFE0
0FFFF0
1FFFF0
1FC7F0
3F03F0
3F03F0
3F03F0
7FFFE0
7FFFE0
7FFFE0
7FFFE0
FE0000
FC0000
FE0000
FF8380
FFFF80
7FFF80
7FFF80
1FFF80
ENDCHAR
STARTCHAR uni1EBE
ENCODING 7870
SWIDTH 611 0
DWIDTH 24 0
BBX 25 42 1 0
BITMAP
00007E00
0000FC00
0000F800
0001F000
0003E000
0003C000
00000000
0007F000
000FF000
001FF800
003E7800
007C3C00
00783C00
00000000
00000000
07FFFF80
07FFFF00
07FFFF00
07FFFF00
07FFFF00
0FE00000
0FE00000
0FE00000
0FE00000
0FC00000
1FC00000
1FFFF000
1FFFF000
1FFFF000
3FFFF000
3FFFF000
3F800000
3F800000
3F000000
7F000000
7F000000
7F000000
7FFFF000
7FFFF000
FFFFF000
FFFFE000
FFFFE000
ENDCHAR
STARTCHAR uni1EBF
ENCODING 7871
SWIDTH 568 0
DWIDTH 22 0
BBX 21 35 1 0
BITMAP
0003F8
0007E0
000FC0
001F80
001F00
003E00
000000
003F80
007F80
00FBC0
00F3C0
01E1E0
03C1E0
000000
000000
01FFC0
07FFE0
0FFFF0
1FFFF0
1FC7F0
3F03F0
3F03F0
3F03F0
7FFFE0
7FFFE0
7FFFE0
7FFFE0
FE0000
FC0000
FE0000
FF8380
FFFF80
7FFF80
7FFF80
1FFF80
ENDCHAR
STARTCHAR uni1EC0
ENCODING 7872
SWIDTH 611 0
DWIDTH 24 0
BBX 25 42 1 0
BITMAP
003F0000
001F8000
000F8000
0007C000
0007C000
0003E000
00000000
0007F000
000FF000
001FF800
003E7800
007C3C00
00783C00
00000000
00000000
07FFFF80
07FFFF00
07FFFF00
07FFFF00
07FFFF00
0FE00000
0FE00000
0FE00000
0FE00000
0FC00000
1FC00000
1FFFF000
1FFFF000
1FFFF000
3FFFF000
3FFFF000
3F800000
3F800000
3F000000
7F000000
7F000000
7F000000
7FFFF000
7FFFF000
FFFFF000
FFFFE000
FFFFE000
ENDCHAR
STARTCHAR uni1EC1
ENCODING 7873
SWIDTH 568 0
DWIDTH 22 0
BBX 20 35 1 0
BITMAP
00FC00
007C00
007E00
003E00
001F00
000F00
000000
003F80
007F80
00FBC0
00F3C0
01E1E0
03C1E0
000000
000000
01FFC0
07FFE0
0FFFF0
1FFFF0
1FC7F0
3F03F0
3F03F0
3F03F0
7FFFE0
7FFFE0
7FFFE0
7FFFE0
FE0000
FC0000
FE0000
FF8380
FFFF80
7FFF80
7FFF80
1FFF80
ENDCHAR
STARTCHAR uni1EC2
ENCODING 7874
SWIDTH 611 0
DWIDTH 24 0
BBX 25 44 1 0
BITMAP
0007FE00
0007FE00
0007FE00
00001E00
00003E00
0000FC00
0001F000
0003C000
00000000
0007F000
000FF000
001FF800
003E7800
007C3C00
00783C00
00000000
00000000
07FFFF80
07FFFF00
07FFFF00
07FFFF00
07FFFF00
0FE00000
0FE00000
0FE00000
0FE00000
0FC00000
1FC00000
1FFFF000
1FFFF000
1FFFF000
3FFFF000
3FFFF000
3F800000
3F800000
3F000000
7F000000
7F000000
7F000000
7FFFF000
7FFFF000
FFFFF000
FFFFE000
FFFFE000
ENDCHAR
STARTCHAR uni1EC3
ENCODING 7875
SWIDTH 568 0
DWIDTH 22 0
BBX 20 37 1 0
BITMAP
003FF0
003FF0
003FF0
0000F0
0000F0
0007E0
000F80
001E00
000000
003F80
007F80
00FBC0
00F3C0
01E1E0
03C1E0
000000
000000
01FFC0
07FFE0
0FFFF0
1FFFF0
1FC7F0
3F03F0
3F03F0
3F03F0
7FFFE0
7FFFE0
7FFFE0
7FFFE0
FE0000
FC0000
FE0000
FF8380
FFFF80
7FFF80
7FFF80
1FFF80
ENDCHAR
STARTCHAR uni1EC4
ENCODING 7876
SWIDTH 611 0
DWIDTH 24 0
BBX 25 42 1 0
BITMAP
000F8380
001FFF80
003FFF80
003FFF00
0038FF00
00780000
00000000
0007F000
000FF000
001FF800
003E7800
007C3C00
00783C00
00000000
00000000
07FFFF80
07FFFF00
07FFFF00
07FFFF00
07FFFF00
0FE00000
0FE00000
0FE00000
0FE00000
0FC00000
1FC00000
1FFFF000
1FFFF000
1FFFF000
3FFFF000
3FFFF000
3F800000
3F800000
3F000000
7F000000
7F000000
7F000000
7FFFF000
7FFFF000
FFFFF000
FFFFE000
FFFFE000
ENDCHAR
STARTCHAR uni1EC5
ENCODING 7877
SWIDTH 568 0
DWIDTH 22 0
BBX 23 35 1 0
BITMAP
00381E
00FFBC
01FFFC
01FFFC
01C7F8
01C000
000000
003F80
007F80
007BC0
00F3C0
01E1E0
03C1E0
000000
000000
01FFC0
07FFE0
0FFFF0
1FFFF0
1FC7F0
3F03F0
3F03F0
3F03F0
7FFFE0
7FFFE0
7FFFE0
7FFFE0
FE0000
FC0000
FE0000
FF8380
FFFF80
7FFF80
7FFF80
1FFF80
ENDCHAR
STARTCHAR uni1EC6
ENCODING 7878
SWIDTH 611 0
DWIDTH 24 0
BBX 25 43 1 -8
BITMAP
0007F000
000FF000
001FF800
003E7800
007C3C00
00783C00
00000000
00000000
07FFFF80
07FFFF00
07FFFF00
07FFFF00
07FFFF00
0FE00000
0FE00000
0FE00000
0FE00000
0FC00000
1FC00000
1FFFF000
1FFFF000
1FFFF000
3FFFF000
3FFFF000
3F800000
3F800000
3F000000
7F000000
7F000000
7F000000
7FFFF000
7FFFF000
FFFFF000
FFFFE000
FFFFE000
00000000
00000000
00000000
00000000
03E00000
03E00000
07C00000
07C00000
ENDCHAR
STARTCHAR uni1EC7
ENCODING 7879
SWIDTH 568 0
DWIDTH 22 0
BBX 20 36 1 -8
BITMAP
003F80
007F80
00FBC0
00F3C0
01E1E0
03C1E0
000000
000000
01FFC0
07FFE0
0FFFF0
1FFFF0
1FC7F0
3F03F0
3F03F0
3F03F0
7FFFE0
7FFFE0
7FFFE0
7FFFE0
FE0000
FC0000
FE0000
FF8380
FFFF80
7FFF80
7FFF80
1FFF80
000000
000000
000000
000000
07C000
0F8000
0F8000
0F8000
ENDCHAR
STARTCHAR uni1EC8
ENCODING 7880
SWIDTH 318 0
DWIDTH 12 0
BBX 16 37 1 0
BITMAP
03FE
07FF
07FF
000E
001E
00FC
01F0
01C0
0000
0000
07F0
07F0
07F0
07F0
07E0
0FE0
0FE0
0FE0
0FE0
0FC0
1FC0
1FC0
1FC0
1FC0
3F80
3F80
3F80
3F80
3F00
7F00
7F00
7F00
7F00
7E00
FE00
FE00
FE00
ENDCHAR
STARTCHAR uni1EC9
ENCODING 7881
SWIDTH 289 0
DWIDTH 11 0
BBX 14 30 1 0
BITMAP
1FF8
1FFC
1FFC
0078
0078
03F0
07C0
0700
0000
0000
0FC0
1FC0
1FC0
1F80
1F80
1F80
3F80
3F80
3F00
3F00
3F00
7F00
7E00
7E00
7E00
FE00
FE00
FC00
FC00
FC00
ENDCHAR
STARTCHAR uni1ECA
ENCODING 7882
SWIDTH 318 0
DWIDTH 12 0
BBX 13 35 0 -8
BITMAP
03F8
03F8
03F8
03F8
03F0
07F0
07F0
07F0
07F0
07E0
0FE0
0FE0
0FE0
0FE0
1FC0
1FC0
1FC0
1FC0
1F80
3F80
3F80
3F80
3F80
3F00
7F00
7F00
7F00
0000
0000
0000
0000
7C00
7800
F800
F800
ENDCHAR
STARTCHAR uni1ECB
ENCODING 7883
SWIDTH 289 0
DWIDTH 11 0
BBX 14 37 -1 -8
BITMAP
01FC
01FC
01FC
01F8
01F8
0000
0000
0000
0000
03F0
07F0
07F0
07E0
07E0
07E0
0FE0
0FE0
0FC0
0FC0
0FC0
1FC0
1F80
1F80
1F80
3F80
3F80
3F00
3F00
3F00
0000
0000
0000
0000
7C00
7C00
7C00
F800
ENDCHAR
STARTCHAR uni1ECC
ENCODING 7884
SWIDTH 720 0
DWIDTH 28 0
BBX 26 35 2 -8
BITMAP
00FFFC00
03FFFF00
07FFFF80
0FFFFF80
1FFFFF80
1FE03FC0
1FC01FC0
3F801FC0
3F801F80
3F803F80
3F003F80
7F003F80
7F003F80
7F003F80
7F007F00
FE007F00
FE007F00
FE007F00
FE00FE00
FE00FE00
FE00FE00
FE01FC00
FFFFFC00
FFFFF800
FFFFF800
7FFFF000
1FFFC000
00000000
00000000
00000000
00000000
01F00000
03E00000
03E00000
03E00000
ENDCHAR
STARTCHAR uni1ECD
ENCODING 7885
SWIDTH 573 0
DWIDTH 22 0
BBX 21 28 1 -8
BITMAP
03FFC0
0FFFF0
1FFFF0
3FFFF0
3FEFF8
3F03F8
7F03F0
7E03F0
7E03F0
7E03F0
FE07F0
FE07E0
FC07E0
FC07E0
FC0FE0
FE1FC0
FFFFC0
FFFF80
7FFF80
3FFE00
000000
000000
000000
000000
07C000
0F8000
0F8000
0F8000
ENDCHAR
STARTCHAR uni1ECE
ENCODING 7886
SWIDTH 720 0
DWIDTH 28 0
BBX 26 37 2 0
BITMAP
000FFC00
000FFC00
000FFE00
00003C00
00003C00
0001F800
0003E000
00078000
00000000
00000000
00FFFC00
03FFFF00
07FFFF80
0FFFFF80
1FFFFF80
1FE03FC0
1FC01FC0
3F801FC0
3F801F80
3F803F80
3F003F80
7F003F80
7F003F80
7F003F80
7F007F00
FE007F00
FE007F00
FE007F00
FE00FE00
FE00FE00
FE00FE00
FE01FC00
FFFFFC00
FFFFF800
FFFFF800
7FFFF000
1FFFC000
ENDCHAR
STARTCHAR uni1ECF
ENCODING 7887
SWIDTH 573 0
DWIDTH 22 0
BBX 21 30 1 0
BITMAP
007FE0
007FE0
007FE0
0001E0
0003E0
000FC0
003F00
003C00
000000
000000
03FFC0
0FFFF0
1FFFF0
3FFFF0
3FEFF8
3F03F8
7F03F0
7E03F0
7E03F0
7E03F0
FE07F0
FE07E0
FC07E0
FC07E0
FC0FE0
FE1FC0
FFFFC0
FFFF80
7FFF80
3FFE00
ENDCHAR
STARTCHAR uni1ED0
ENCODING 7888
SWIDTH 720 0
DWIDTH 28 0
BBX 26 42 2 0
BITMAP
00003F00
00007E00
0000FC00
0000F800
0001F000
0003E000
00000000
0003F000
0007F800
000FF800
001F3C00
003E3C00
007C1E00
00000000
00000000
00FFFC00
03FFFF00
07FFFF80
0FFFFF80
1FFFFF80
1FE03FC0
1FC01FC0
3F801FC0
3F801F80
3F803F80
3F003F80
7F003F80
7F003F80
7F003F80
7F007F00
FE007F00
FE007F00
FE007F00
FE00FE00
FE00FE00
FE00FE00
FE01FC00
FFFFFC00
FFFFF800
FFFFF800
7FFFF000
1FFFC000
ENDCHAR
STARTCHAR uni1ED1
ENCODING 7889
SWIDTH 573 0
DWIDTH 22 0
BBX 21 35 1 0
BITMAP
0003F8
0007E0
000FC0
000F80
001F00
003E00
000000
003F80
007FC0
007BC0
00F3C0
01E1E0
03C0E0
000000
000000
03FFC0
0FFFF0
1FFFF0
3FFFF0
3FEFF8
3F03F8
7F03F0
7E03F0
7E03F0
7E03F0
FE07F0
FE07E0
FC07E0
FC07E0
FC0FE0
FE1FC0
FFFFC0
FFFF80
7FFF80
3FFE00
ENDCHAR
STARTCHAR uni1ED2
ENCODING 7890
SWIDTH 720 0
DWIDTH 28 0
BBX 26 42 2 0
BITMAP
001F8000
000F8000
0007C000
0007C000
0003E000
0001E000
00000000
0003F000
0007F800
000FF800
001F3C00
003E3C00
007C1E00
00000000
00000000
00FFFC00
03FFFF00
07FFFF80
0FFFFF80
1FFFFF80
1FE03FC0
1FC01FC0
3F801FC0
3F801F80
3F803F80
3F003F80
7F003F80
7F003F80
7F003F80
7F007F00
FE007F00
FE007F00
FE007F00
FE00FE00
FE00FE00
FE00FE00
FE01FC00
FFFFFC00
FFFFF800
FFFFF800
7FFFF000
1FFFC000
ENDCHAR
STARTCHAR uni1ED3
ENCODING 7891
SWIDTH 573 0
DWIDTH 22 0
BBX 21 35 1 0
BITMAP
00FC00
007C00
003E00
003E00
001F00
000F00
000000
003F80
007FC0
007BC0
00F3C0
01E1E0
03C0E0
000000
000000
03FFC0
0FFFF0
1FFFF0
3FFFF0
3FEFF8
3F03F8
7F03F0
7E03F0
7E03F0
7E03F0
FE07F0
FE07E0
FC07E0
FC07E0
FC0FE0
FE1FC0
FFFFC0
FFFF80
7FFF80
3FFE00
ENDCHAR
STARTCHAR uni1ED4
ENCODING 7892
SWIDTH 720 0
DWIDTH 28 0
BBX 26 44 2 0
BITMAP
0003FE00
0003FF00
0007FF00
00000F00
00001E00
0000FE00
0001F800
0001C000
00000000
0003F000
0007F800
000FF800
001F3C00
003E3C00
007C1E00
00000000
00000000
00FFFC00
03FFFF00
07FFFF80
0FFFFF80
1FFFFF80
1FE03FC0
1FC01FC0
3F801FC0
3F801F80
3F803F80
3F003F80
7F003F80
7F003F80
7F003F80
7F007F00
FE007F00
FE007F00
FE007F00
FE00FE00
FE00FE00
FE00FE00
FE01FC00
FFFFFC00
FFFFF800
FFFFF800
7FFFF000
1FFFC000
ENDCHAR
STARTCHAR uni1ED5
ENCODING 7893
SWIDTH 573 0
DWIDTH 22 0
BBX 21 37 1 0
BITMAP
003FF0
003FF0
003FF8
0000F0
0000F0
0007E0
000F80
000E00
000000
003F80
007FC0
007BC0
00F3C0
01E1E0
03C0E0
000000
000000
03FFC0
0FFFF0
1FFFF0
3FFFF0
3FEFF8
3F03F8
7F03F0
7E03F0
7E03F0
7E03F0
FE07F0
FE07E0
FC07E0
FC07E0
FC0FE0
FE1FC0
FFFFC0
FFFF80
7FFF80
3FFE00
ENDCHAR
STARTCHAR uni1ED6
ENCODING 7894
SWIDTH 720 0
DWIDTH 28 0
BBX 26 42 2 0
BITMAP
000781C0
000FFFC0
001FFFC0
001FFF80
003C7F00
00380000
00000000
0003F000
0007F800
000FF800
001F3C00
003E3C00
007C1E00
00000000
00000000
00FFFC00
03FFFF00
07FFFF80
0FFFFF80
1FFFFF80
1FE03FC0
1FC01FC0
3F801FC0
3F801F80
3F803F80
3F003F80
7F003F80
7F003F80
7F003F80
7F007F00
FE007F00
FE007F00
FE007F00
FE00FE00
FE00FE00
FE00FE00
FE01FC00
FFFFFC00
FFFFF800
FFFFF800
7FFFF000
1FFFC000
ENDCHAR
STARTCHAR uni1ED7
ENCODING 7895
SWIDTH 573 0
DWIDTH 22 0
BBX 23 35 1 0
BITMAP
00381E
00FFFC
00FFFC
01FFFC
01C7F8
01C000
000000
003F80
003FC0
007BC0
00F3E0
01E1E0
03C0E0
000000
000000
03FFC0
0FFFF0
1FFFF0
3FFFF0
3FEFF8
3F03F8
7F03F0
7E03F0
7E03F0
7E03F0
FE07F0
FE07E0
FC07E0
FC07E0
FC0FE0
FE1FC0
FFFFC0
FFFF80
7FFF80
3FFE00
ENDCHAR
STARTCHAR uni1ED8
ENCODING 7896
SWIDTH 720 0
DWIDTH 28 0
BBX 26 43 2 -8
BITMAP
0003F000
0007F800
000FF800
001F3C00
003E3C00
007C1E00
00000000
00000000
00FFFC00
03FFFF00
07FFFF80
0FFFFF80
1FFFFF80
1FE03FC0
1FC01FC0
3F801FC0
3F801F80
3F803F80
3F003F80
7F003F80
7F003F80
7F003F80
7F007F00
FE007F00
FE007F00
FE007F00
FE00FE00
FE00FE00
FE00FE00
FE01FC00
FFFFFC00
FFFFF800
FFFFF800
7FFFF000
1FFFC000
00000000
00000000
00000000
00000000
01F00000
03E00000
03E00000
03E00000
ENDCHAR
STARTCHAR uni1ED9
ENCODING 7897
SWIDTH 573 0
DWIDTH 22 0
BBX 21 36 1 -8
BITMAP
003F80
007FC0
007BC0
00F3C0
01E1E0
03C0E0
000000
000000
03FFC0
0FFFF0
1FFFF0
3FFFF0
3FEFF8
3F03F8
7F03F0
7E03F0
7E03F0
7E03F0
FE07F0
FE07E0
FC07E0
FC07E0
FC0FE0
FE1FC0
FFFFC0
FFFF80
7FFF80
3FFE00
000000
000000
000000
000000
07C000
0F8000
0F8000
0F8000
ENDCHAR
STARTCHAR uni1EDA
ENCODING 7898
SWIDTH 720 0
DWIDTH 28 0
BBX 29 35 2 0
BITMAP
0000FE00
0000F800
0001F000
0003E000
0003C000
00078078
000000F0
000000F0
00FFFFF0
03FFFFE0
07FFFF80
0FFFFF80
1FFFFF80
1FE03FC0
1FC01FC0
3F801FC0
3F801F80
3F803F80
3F003F80
7F003F80
7F003F80
7F003F80
7F007F00
FE007F00
FE007F00
FE007F00
FE00FE00
FE00FE00
FE00FE00
FE01FC00
FFFFFC00
FFFFF800
FFFFF800
7FFFF000
1FFFC000
ENDCHAR
STARTCHAR uni1EDB
ENCODING 7899
SWIDTH 573 0
DWIDTH 22 0
BBX 23 28 1 0
BITMAP
0007F0
000FC0
001F80
003E00
007C00
00F83E
00003C
00003C
03FFF8
0FFFF0
1FFFF0
3FFFF0
3FEFF8
3F03F8
7F03F0
7E03F0
7E03F0
7E03F0
FE07F0
FE07E0
FC07E0
FC07E0
FC0FE0
FE1FC0
FFFFC0
FFFF80
7FFF80
3FFE00
ENDCHAR
STARTCHAR uni1EDC
ENCODING 7900
SWIDTH 720 0
DWIDTH 28 0
BBX 29 35 2 0
BITMAP
007F0000
003F0000
001F8000
000F8000
00078000
0003C078
000000F0
000000F0
00FFFFF0
03FFFFE0
07FFFF80
0FFFFF80
1FFFFF80
1FE03FC0
1FC01FC0
3F801FC0
3F801F80
3F803F80
3F003F80
7F003F80
7F003F80
7F003F80
7F007F00
FE007F00
FE007F00
FE007F00
FE00FE00
FE00FE00
FE00FE00
FE01FC00
FFFFFC00
FFFFF800
FFFFF800
7FFFF000
1FFFC000
ENDCHAR
STARTCHAR uni1EDD
ENCODING 7901
SWIDTH 573 0
DWIDTH 22 0
BBX 23 28 1 0
BITMAP
03F800
01F800
00FC00
007C00
003C00
001E3E
00003C
00003C
03FFF8
0FFFF0
1FFFF0
3FFFF0
3FEFF8
3F03F8
7F03F0
7E03F0
7E03F0
7E03F0
FE07F0
FE07E0
FC07E0
FC07E0
FC0FE0
FE1FC0
FFFFC0
FFFF80
7FFF80
3FFE00
ENDCHAR
STARTCHAR uni1EDE
ENCODING 7902
SWIDTH 720 0
DWIDTH 28 0
BBX 29 37 2 0
BITMAP
000FFC00
000FFC00
000FFE00
00003C00
00003C00
0001F800
0003E000
00078078
000000F0
000000F0
00FFFFF0
03FFFFE0
07FFFF80
0FFFFF80
1FFFFF80
1FE03FC0
1FC01FC0
3F801FC0
3F801F80
3F803F80
3F003F80
7F003F80
7F003F80
7F003F80
7F007F00
FE007F00
FE007F00
FE007F00
FE00FE00
FE00FE00
FE00FE00
FE01FC00
FFFFFC00
FFFFF800
FFFFF800
7FFFF000
1FFFC000
ENDCHAR
STARTCHAR uni1EDF
ENCODING 7903
SWIDTH 573 0
DWIDTH 22 0
BBX 23 30 1 0
BITMAP
007FE0
007FE0
007FE0
0001E0
0003E0
000FC0
003F00
003C3E
00003C
00003C
03FFF8
0FFFF0
1FFFF0
3FFFF0
3FEFF8
3F03F8
7F03F0
7E03F0
7E03F0
7E03F0
FE07F0
FE07E0
FC07E0
FC07E0
FC0FE0
FE1FC0
FFFFC0
FFFF80
7FFF80
3FFE00
ENDCHAR
STARTCHAR uni1EE0
ENCODING 7904
SWIDTH 720 0
DWIDTH 28 0
BBX 29 35 2 0
BITMAP
000F0780
003FFF00
003FFF00
007FFF00
0070FE00
00700078
000000F0
000000F0
00FFFFF0
03FFFFE0
07FFFF80
0FFFFF80
1FFFFF80
1FE03FC0
1FC01FC0
3F801FC0
3F801F80
3F803F80
3F003F80
7F003F80
7F003F80
7F003F80
7F007F00
FE007F00
FE007F00
FE007F00
FE00FE00
FE00FE00
FE00FE00
FE01FC00
FFFFFC00
FFFFF800
FFFFF800
7FFFF000
1FFFC000
ENDCHAR
STARTCHAR uni1EE1
ENCODING 7905
SWIDTH 580 0
DWIDTH 22 0
BBX 23 28 1 0
BITMAP
003C1E
00FFFC
01FFFC
01FFF8
01C7F8
01C03E
00003C
00003C
03FFF8
0FFFF0
1FFFF0
3FFFF0
3FEFF8
3F03F8
7F03F0
7E03F0
7E03F0
7E03F0
FE07F0
FE07E0
FC07E0
FC07E0
FC0FE0
FE1FC0
FFFFC0
FFFF80
7FFF80
3FFE00
ENDCHAR
STARTCHAR uni1EE2
ENCODING 7906
SWIDTH 720 0
DWIDTH 28 0
BBX 29 38 2 -8
BITMAP
00000078
000000F0
000000F0
00FFFFF0
03FFFFE0
07FFFF80
0FFFFF80
1FFFFF80
1FE03FC0
1FC01FC0
3F801FC0
3F801F80
3F803F80
3F003F80
7F003F80
7F003F80
7F003F80
7F007F00
FE007F00
FE007F00
FE007F00
FE00FE00
FE00FE00
FE00FE00
FE01FC00
FFFFFC00
FFFFF800
FFFFF800
7FFFF000
1FFFC000
00000000
00000000
00000000
00000000
01F00000
03E00000
03E00000
03E00000
ENDCHAR
STARTCHAR uni1EE3
ENCODING 7907
SWIDTH 573 0
DWIDTH 22 0
BBX 23 31 1 -8
BITMAP
00003E
00003C
00003C
03FFF8
0FFFF0
1FFFF0
3FFFF0
3FEFF8
3F03F8
7F03F0
7E03F0
7E03F0
7E03F0
FE07F0
FE07E0
FC07E0
FC07E0
FC0FE0
FE1FC0
FFFFC0
FFFF80
7FFF80
3FFE00
000000
000000
000000
000000
07C000
0F8000
0F8000
0F8000
ENDCHAR
STARTCHAR uni1EE4
ENCODING 7908
SWIDTH 703 0
DWIDTH 27 0
BBX 26 35 2 -8
BITMAP
0FE01FC0
0FE01FC0
0FE01FC0
0FC01FC0
1FC01F80
1FC03F80
1FC03F80
1FC03F80
1F803F80
3F807F00
3F807F00
3F807F00
3F807F00
7F007E00
7F00FE00
7F00FE00
7F00FE00
7E00FE00
7E00FC00
FE01FC00
FE01FC00
FF03FC00
FFFFF800
7FFFF800
7FFFF000
3FFFE000
1FFF8000
00000000
00000000
00000000
00000000
03E00000
03E00000
03E00000
07E00000
ENDCHAR
STARTCHAR uni1EE5
ENCODING 7909
SWIDTH 591 0
DWIDTH 23 0
BBX 22 28 1 -8
BITMAP
1FC0FC
1F81FC
1F81F8
1F81F8
3F81F8
3F81F8
3F03F8
3F03F0
3F03F0
7F03F0
7E07F0
7E07F0
7E07E0
7E07E0
FE0FE0
FFFFE0
FFFFE0
7FFFC0
7FEFC0
3FCFC0
000000
000000
000000
000000
07C000
07C000
07C000
0F8000
ENDCHAR
STARTCHAR uni1EE6
ENCODING 7910
SWIDTH 703 0
DWIDTH 27 0
BBX 26 37 2 0
BITMAP
000FFC00
000FFC00
000FFC00
00003C00
00007C00
0001F800
0003E000
00078000
00000000
00000000
0FE01FC0
0FE01FC0
0FE01FC0
0FC01FC0
1FC01F80
1FC03F80
1FC03F80
1FC03F80
1F803F80
3F807F00
3F807F00
3F807F00
3F807F00
7F007E00
7F00FE00
7F00FE00
7F00FE00
7E00FE00
7E00FC00
FE01FC00
FE01FC00
FF03FC00
FFFFF800
7FFFF800
7FFFF000
3FFFE000
1FFF8000
ENDCHAR
STARTCHAR uni1EE7
ENCODING 7911
SWIDTH 591 0
DWIDTH 23 0
BBX 22 30 1 0
BITMAP
007FE0
007FE0
007FE0
0001E0
0003E0
000FC0
001F00
003C00
000000
000000
1FC0FC
1F81FC
1F81F8
1F81F8
3F81F8
3F81F8
3F03F8
3F03F0
3F03F0
7F03F0
7E07F0
7E07F0
7E07E0
7E07E0
FE0FE0
FFFFE0
FFFFE0
7FFFC0
7FEFC0
3F8FC0
ENDCHAR
STARTCHAR uni1EE8
ENCODING 7912
SWIDTH 703 0
DWIDTH 27 0
BBX 31 35 2 0
BITMAP
0000FC00
0001F800
0001F000
0003E000
0007C002
0007803C
0000003C
0000003C
0FE01FF8
0FE01FF0
0FE01FC0
0FC01FC0
1FC01F80
1FC03F80
1FC03F80
1FC03F80
1F803F80
3F807F00
3F807F00
3F807F00
3F807F00
7F007E00
7F00FE00
7F00FE00
7F00FE00
7E00FE00
7E00FC00
FE01FC00
FE01FC00
FF03FC00
FFFFF800
7FFFF800
7FFFF000
3FFFE000
1FFF8000
ENDCHAR
STARTCHAR uni1EE9
ENCODING 7913
SWIDTH 591 0
DWIDTH 23 0
BBX 26 28 1 0
BITMAP
0007F000
000FC000
001F8000
003F0000
003E0000
007803C0
00000780
00000780
1FC0FF80
1F81FE00
1F81F800
1F81F800
3F81F800
3F81F800
3F03F800
3F03F000
3F03F000
7F03F000
7E07F000
7E07F000
7E07E000
7E07E000
FE0FE000
FFFFE000
FFFFE000
7FFFC000
7FEFC000
3F8FC000
ENDCHAR
STARTCHAR uni1EEA
ENCODING 7914
SWIDTH 703 0
DWIDTH 27 0
BBX 31 35 2 0
BITMAP
007E0000
003F0000
001F0000
000F8000
000F8002
0007C03C
0000003C
0000003C
0FE01FF8
0FE01FF0
0FE01FC0
0FC01FC0
1FC01F80
1FC03F80
1FC03F80
1FC03F80
1F803F80
3F807F00
3F807F00
3F807F00
3F807F00
7F007E00
7F00FE00
7F00FE00
7F00FE00
7E00FE00
7E00FC00
FE01FC00
FE01FC00
FF03FC00
FFFFF800
7FFFF800
7FFFF000
3FFFE000
1FFF8000
ENDCHAR
STARTCHAR uni1EEB
ENCODING 7915
SWIDTH 591 0
DWIDTH 23 0
BBX 26 28 1 0
BITMAP
01F80000
00F80000
007C0000
007C0000
003E0000
001E03C0
00000780
00000780
1FC0FF80
1F81FE00
1F81F800
1F81F800
3F81F800
3F81F800
3F03F800
3F03F000
3F03F000
7F03F000
7E07F000
7E07F000
7E07E000
7E07E000
FE0FE000
FFFFE000
FFFFE000
7FFFC000
7FEFC000
3F8FC000
ENDCHAR
STARTCHAR uni1EEC
ENCODING 7916
SWIDTH 703 0
DWIDTH 27 0
BBX 31 37 2 0
BITMAP
000FFC00
000FFC00
000FFC00
00003C00
00007C00
0001F800
0003E002
0007803C
0000003C
0000003C
0FE01FF8
0FE01FF0
0FE01FC0
0FC01FC0
1FC01F80
1FC03F80
1FC03F80
1FC03F80
1F803F80
3F807F00
3F807F00
3F807F00
3F807F00
7F007E00
7F00FE00
7F00FE00
7F00FE00
7E00FE00
7E00FC00
FE01FC00
FE01FC00
FF03FC00
FFFFF800
7FFFF800
7FFFF000
3FFFE000
1FFF8000
ENDCHAR
STARTCHAR uni1EED
ENCODING 7917
SWIDTH 591 0
DWIDTH 23 0
BBX 26 30 1 0
BITMAP
007FE000
007FE000
007FE000
0001E000
0001E000
000FC000
001F0000
003C03C0
00000780
00000780
1FC0FF80
1F81FE00
1F81F800
1F81F800
3F81F800
3F81F800
3F03F800
3F03F000
3F03F000
7F03F000
7E07F000
7E07F000
7E07E000
7E07E000
FE0FE000
FFFFE000
FFFFE000
7FFFC000
7FEFC000
3F8FC000
ENDCHAR
STARTCHAR uni1EEE
ENCODING 7918
SWIDTH 703 0
DWIDTH 27 0
BBX 31 35 2 0
BITMAP
001F0700
003FFF00
007FFF00
007FFE00
0071FC02
00F0003C
0000003C
0000003C
0FE01FF8
0FE01FF0
0FE01FC0
0FC01FC0
1FC01F80
1FC03F80
1FC03F80
1FC03F80
1F803F80
3F807F00
3F807F00
3F807F00
3F807F00
7F007E00
7F00FE00
7F00FE00
7F00FE00
7E00FE00
7E00FC00
FE01FC00
FE01FC00
FF03FC00
FFFFF800
7FFFF800
7FFFF000
3FFFE000
1FFF8000
ENDCHAR
STARTCHAR uni1EEF
ENCODING 7919
SWIDTH 604 0
DWIDTH 23 0
BBX 26 28 1 0
BITMAP
003C0E00
007FDE00
00FFFC00
00FFFC00
01E3F800
01C003C0
00000780
00000780
1FC0FF80
1F81FE00
1F81F800
1F81F800
3F81F800
3F81F800
3F03F800
3F03F000
3F03F000
7F03F000
7E07F000
7E07F000
7E07E000
7E07E000
FE0FE000
FFFFE000
FFFFE000
7FFFC000
7FEFC000
3F8FC000
ENDCHAR
STARTCHAR uni1EF0
ENCODING 7920
SWIDTH 703 0
DWIDTH 27 0
BBX 31 38 2 -8
BITMAP
0000003E
0000003C
0000003C
0FE01FF8
0FE01FF0
0FE01FC0
0FC01FC0
1FC01F80
1FC03F80
1FC03F80
1FC03F80
1F803F80
3F807F00
3F807F00
3F807F00
3F807F00
7F007E00
7F00FE00
7F00FE00
7F00FE00
7E00FE00
7E00FC00
FE01FC00
FE01FC00
FF03FC00
FFFFF800
7FFFF800
7FFFF000
3FFFE000
1FFF8000
00000000
00000000
00000000
00000000
03E00000
03E00000
03E00000
07E00000
ENDCHAR
STARTCHAR uni1EF1
ENCODING 7921
SWIDTH 591 0
DWIDTH 23 0
BBX 26 31 1 -8
BITMAP
000003C0
00000780
00000780
1FC0FF80
1F81FE00
1F81F800
1F81F800
3F81F800
3F81F800
3F03F800
3F03F000
3F03F000
7F03F000
7E07F000
7E07F000
7E07E000
7E07E000
FE0FE000
FFFFE000
FFFFE000
7FFFC000
7FEFC000
3FCFC000
00000000
00000000
00000000
00000000
07C00000
07C00000
07C00000
0F800000
ENDCHAR
STARTCHAR Ygrave
ENCODING 7922
SWIDTH 654 0
DWIDTH 26 0
BBX 25 35 4 0
BITMAP
03F00000
01F80000
00F80000
007C0000
007C0000
003E0000
00000000
00000000
FE003F80
FE007F00
FE00FE00
7E01FC00
7F01FC00
7F03F800
3F07F000
3F07E000
3F8FE000
1F9FC000
1FBF8000
1FFF0000
1FFF0000
0FFE0000
0FFC0000
0FFC0000
07F80000
07F00000
07F00000
07F00000
0FE00000
0FE00000
0FE00000
0FE00000
0FC00000
1FC00000
1FC00000
ENDCHAR
STARTCHAR ygrave
ENCODING 7923
SWIDTH 606 0
DWIDTH 24 0
BBX 23 36 0 -8
BITMAP
00FC00
007E00
003E00
001F00
001F00
000F80
000000
000000
07E07E
0FE0FE
0FE0FE
0FC0FC
0FC0FC
0FC0FC
1FC1FC
1F81F8
1F81F8
1F81F8
1F81F8
3F83F8
3F03F0
3F03F0
3F87F0
3FFFF0
3FFFF0
3FFFE0
3FF7E0
0FC7E0
000FE0
000FC0
001FC0
7FFFC0
7FFF80
7FFF00
7FFE00
FFF800
ENDCHAR
STARTCHAR uni1EF4
ENCODING 7924
SWIDTH 654 0
DWIDTH 26 0
BBX 25 35 4 -8
BITMAP
FE003F80
FE007F00
FE00FE00
7E01FC00
7F01FC00
7F03F800
3F07F000
3F07E000
3F8FE000
1F9FC000
1FBF8000
1FFF0000
1FFF0000
0FFE0000
0FFC0000
0FFC0000
07F80000
07F00000
07F00000
07F00000
0FE00000
0FE00000
0FE00000
0FE00000
0FC00000
1FC00000
1FC00000
00000000
00000000
00000000
00000000
1F000000
1F000000
1F000000
3E000000
ENDCHAR
STARTCHAR uni1EF5
ENCODING 7925
SWIDTH 606 0
DWIDTH 24 0
BBX 23 36 0 -16
BITMAP
07E07E
0FE0FE
0FE0FE
0FC0FC
0FC0FC
0FC0FC
1FC1FC
1F81F8
1F81F8
1F81F8
1F81F8
3F83F8
3F03F0
3F03F0
3F87F0
3FFFF0
3FFFF0
3FFFE0
3FF7E0
0FC7E0
000FE0
000FC0
001FC0
7FFFC0
7FFF80
7FFF00
7FFE00
FFF800
000000
000000
000000
000000
07C000
0F8000
0F8000
0F8000
ENDCHAR
STARTCHAR uni1EF6
ENCODING 7926
SWIDTH 654 0
DWIDTH 26 0
BBX 25 37 4 0
BITMAP
007FE000
007FE000
007FE000
0001E000
0003E000
000FC000
003F0000
003C0000
00000000
00000000
FE003F80
FE007F00
FE00FE00
7E01FC00
7F01FC00
7F03F800
3F07F000
3F07E000
3F8FE000
1F9FC000
1FBF8000
1FFF0000
1FFF0000
0FFE0000
0FFC0000
0FFC0000
07F80000
07F00000
07F00000
07F00000
0FE00000
0FE00000
0FE00000
0FE00000
0FC00000
1FC00000
1FC00000
ENDCHAR
STARTCHAR uni1EF7
ENCODING 7927
SWIDTH 606 0
DWIDTH 24 0
BBX 23 38 0 -8
BITMAP
001FF0
003FF8
003FF8
000078
0000F0
0007F0
000F80
000E00
000000
000000
07E07E
0FE0FE
0FE0FE
0FC0FC
0FC0FC
0FC0FC
1FC1FC
1F81F8
1F81F8
1F81F8
1F81F8
3F83F8
3F03F0
3F03F0
3F87F0
3FFFF0
3FFFF0
3FFFE0
3FF7E0
0FC7E0
000FE0
000FC0
001FC0
7FFFC0
7FFF80
7FFF00
7FFE00
FFF800
ENDCHAR
STARTCHAR uni1EF8
ENCODING 7928
SWIDTH 654 0
DWIDTH 26 0
BBX 25 35 4 0
BITMAP
00F83800
01FFF800
03FFF800
03FFF000
038FE000
07800000
00000000
00000000
FE003F80
FE007F00
FE00FE00
7E01FC00
7F01FC00
7F03F800
3F07F000
3F07E000
3F8FE000
1F9FC000
1FBF8000
1FFF0000
1FFF0000
0FFE0000
0FFC0000
0FFC0000
07F80000
07F00000
07F00000
07F00000
0FE00000
0FE00000
0FE00000
0FE00000
0FC00000
1FC00000
1FC00000
ENDCHAR
STARTCHAR uni1EF9
ENCODING 7929
SWIDTH 606 0
DWIDTH 24 0
BBX 23 36 0 -8
BITMAP
003C0E
00FFFC
00FFFC
01FFFC
01C3F8
01C000
000000
000000
07E07E
0FE0FE
0FE0FE
0FC0FC
0FC0FC
0FC0FC
1FC1FC
1F81F8
1F81F8
1F81F8
1F81F8
3F83F8
3F03F0
3F03F0
3F87F0
3FFFF0
3FFFF0
3FFFE0
3FF7E0
0FC7E0
000FE0
000FC0
001FC0
7FFFC0
7FFF80
7FFF00
7FFE00
FFF800
ENDCHAR
STARTCHAR uni2002
ENCODING 8194
SWIDTH 300 0
DWIDTH 12 0
BBX 1 1 0 0
BITMAP
00
ENDCHAR
STARTCHAR uni2003
ENCODING 8195
SWIDTH 1000 0
DWIDTH 39 0
BBX 1 1 0 0
BITMAP
00
ENDCHAR
STARTCHAR uni2004
ENCODING 8196
SWIDTH 333 0
DWIDTH 13 0
BBX 1 1 0 0
BITMAP
00
ENDCHAR
STARTCHAR uni2005
ENCODING 8197
SWIDTH 250 0
DWIDTH 10 0
BBX 1 1 0 0
BITMAP
00
ENDCHAR
STARTCHAR uni2010
ENCODING 8208
SWIDTH 379 0
DWIDTH 15 0
BBX 12 5 2 9
BITMAP
7FF0
7FF0
FFE0
FFE0
FFE0
ENDCHAR
STARTCHAR endash
ENCODING 8211
SWIDTH 479 0
DWIDTH 19 0
BBX 16 4 2 10
BITMAP
7FFF
7FFF
FFFF
FFFE
ENDCHAR
STARTCHAR emdash
ENCODING 8212
SWIDTH 883 0
DWIDTH 34 0
BBX 32 4 2 10
BITMAP
7FFFFFFF
7FFFFFFE
FFFFFFFE
FFFFFFFE
ENDCHAR
STARTCHAR underscoredbl
ENCODING 8215
SWIDTH 388 0
DWIDTH 15 0
BBX 17 8 -1 -11
BITMAP
7FFF80
7FFF00
7FFF00
000000
000000
7FFF00
7FFF00
FFFF00
ENDCHAR
STARTCHAR quoteleft
ENCODING 8216
SWIDTH 291 0
DWIDTH 11 0
BBX 9 11 4 16
BITMAP
0780
1F00
3F00
7800
7800
7800
7E00
FE00
FC00
FC00
FC00
ENDCHAR
STARTCHAR quoteright
ENCODING 8217
SWIDTH 291 0
DWIDTH 11 0
BBX 9 11 3 16
BITMAP
1F80
1F80
3F80
3F00
3F00
0F00
0F00
1E00
7E00
7C00
F000
ENDCHAR
STARTCHAR quotesinglbase
ENCODING 8218
SWIDTH 291 0
DWIDTH 11 0
BBX 9 10 -1 -5
BITMAP
1F80
3F80
3F00
3F00
3F00
0F00
0E00
1E00
7E00
F800
ENDCHAR
STARTCHAR quotedblleft
ENCODING 8220
SWIDTH 512 0
DWIDTH 20 0
BBX 17 11 4 16
BITMAP
078380
1F1F80
3F1F00
3C3C00
783C00
783C00
7E7F00
7E7E00
FE7E00
FC7E00
FCFE00
ENDCHAR
STARTCHAR quotedblright
ENCODING 8221
SWIDTH 512 0
DWIDTH 20 0
BBX 17 11 4 16
BITMAP
3F1F80
3F3F80
3F3F00
7F3F00
7E3F00
1E0F00
1E0E00
1E1E00
FC7E00
F8FC00
E0F000
ENDCHAR
STARTCHAR quotedblbase
ENCODING 8222
SWIDTH 512 0
DWIDTH 20 0
BBX 18 10 -1 -5
BITMAP
1F9FC0
3F9F80
3F1F80
3F1F80
3F3F80
0F0F00
0E0F00
1E0F00
7E7E00
F87C00
ENDCHAR
STARTCHAR dagger
ENCODING 8224
SWIDTH 521 0
DWIDTH 20 0
BBX 16 27 4 0
BITMAP
00F0
01F0
01E0
01E0
01E0
03E0
7FFF
7FFF
FFFF
FFFE
07C0
07C0
0780
0780
0F80
0F80
0F00
0F00
0F00
1F00
1F00
1E00
1E00
1E00
1E00
3C00
3C00
ENDCHAR
STARTCHAR daggerdbl
ENCODING 8225
SWIDTH 521 0
DWIDTH 20 0
BBX 18 27 2 0
BITMAP
003C00
007C00
007800
007800
007800
00F800
1FFFC0
1FFFC0
3FFF80
3FFF80
01F000
01F000
01E000
01E000
03E000
03E000
03E000
7FFF00
FFFE00
FFFE00
FFFE00
078000
078000
078000
0F8000
0F0000
0F0000
ENDCHAR
STARTCHAR bullet
ENCODING 8226
SWIDTH 400 0
DWIDTH 16 0
BBX 10 9 4 9
BITMAP
3FC0
7FC0
7FC0
FFC0
FFC0
FF80
FF80
FF80
FF00
ENDCHAR
STARTCHAR ellipsis
ENCODING 8230
SWIDTH 898 0
DWIDTH 35 0
BBX 30 6 1 0
BITMAP
7F0FE1FC
7F0FE1F8
7E0FC1F8
7E1FC3F8
FE1FC3F8
FE1FC3F0
ENDCHAR
STARTCHAR perthousand
ENCODING 8240
SWIDTH 1031 0
DWIDTH 40 0
BBX 37 27 1 0
BITMAP
03F800F000
07FC01E000
0F1C03C000
0E1C078000
0E1C0F0000
0E1C1E0000
1E3C3C0000
1C38380000
1C38780000
1C38F00000
1FF9E00000
1FF3C00000
0FE7800000
000F000000
001E3F07E0
003CFF8FF8
0079FF9FF8
0071C39C38
00F1C39C38
01E1C39C38
03C3C3BC78
078387B870
0F03873870
1E03873870
3C038F38F0
7803FE3FE0
F001FE3FC0
ENDCHAR
STARTCHAR minute
ENCODING 8242
SWIDTH 274 0
DWIDTH 11 0
BBX 10 13 3 14
BITMAP
0FC0
1F80
1F80
1F80
3F80
3F00
3F00
3E00
7E00
7C00
7C00
7800
F800
ENDCHAR
STARTCHAR second
ENCODING 8243
SWIDTH 481 0
DWIDTH 19 0
BBX 16 13 1 14
BITMAP
1F1F
1F1F
3F3F
3F3F
3E3F
3E3E
7E7E
7C7C
7C7C
7C7C
7878
F8F8
F0F0
ENDCHAR
STARTCHAR guilsinglleft
ENCODING 8249
SWIDTH 314 0
DWIDTH 12 0
BBX 11 16 2 4
BITMAP
03E0
07C0
0F80
0F00
1F00
3E00
7C00
F800
F800
F800
7C00
7C00
3C00
3E00
1E00
1E00
ENDCHAR
STARTCHAR guilsinglright
ENCODING 8250
SWIDTH 314 0
DWIDTH 12 0
BBX 11 16 1 4
BITMAP
1E00
1F00
0F00
0F00
0F80
0780
07C0
07C0
07E0
0F80
0F80
1F00
3E00
3C00
7800
F800
ENDCHAR
STARTCHAR exclamdbl
ENCODING 8252
SWIDTH 578 0
DWIDTH 23 0
BBX 22 27 1 0
BITMAP
03F9FC
07F1FC
07F1FC
07F1FC
07F3F8
07E3F8
0FE3F8
0FE3F8
0FE3F0
0FC3F0
0FC3F0
0FC7E0
0F87E0
0F87E0
1F87C0
1F07C0
1F07C0
1F0780
000000
000000
000000
7F1FC0
7F1F80
7F1F80
7E3F80
FE3F80
FE3F00
ENDCHAR
STARTCHAR fraction
ENCODING 8260
SWIDTH 162 0
DWIDTH 6 0
BBX 27 27 -10 0
BITMAP
000001E0
000003C0
000007C0
00000F80
00001F00
00001E00
00003C00
00007800
0000F000
0001F000
0003E000
0007C000
00078000
000F0000
001E0000
003C0000
007C0000
00F80000
00F00000
01E00000
03C00000
07800000
0F000000
1F000000
3E000000
3C000000
F8000000
ENDCHAR
STARTCHAR uni2052
ENCODING 8274
SWIDTH 391 0
DWIDTH 15 0
BBX 21 27 -2 0
BITMAP
03F078
03F0F0
07F0E0
07E1E0
07E3C0
07E380
000780
000F00
000F00
001E00
003C00
003C00
007800
007000
00F000
01E000
01C000
03C000
078000
070000
0F0000
1E3F00
1E3F00
3C7E00
787E00
787E00
F07E00
ENDCHAR
STARTCHAR uni2070
ENCODING 8304
SWIDTH 388 0
DWIDTH 15 0
BBX 13 15 4 16
BITMAP
0FF0
3FF8
3FF8
7C78
7878
7878
7878
F078
F078
F0F0
F0F0
F0F0
FFE0
FFE0
7FC0
ENDCHAR
STARTCHAR uni2074
ENCODING 8308
SWIDTH 370 0
DWIDTH 14 0
BBX 13 15 3 16
BITMAP
01F0
03E0
07C0
0780
0F00
1E00
1E70
3C70
78F0
FFF8
FFF8
FFF8
01E0
01E0
03C0
ENDCHAR
STARTCHAR uni2075
ENCODING 8309
SWIDTH 360 0
DWIDTH 14 0
BBX 13 15 3 16
BITMAP
1FF8
1FF8
1FF8
1C00
1C00
3C00
3FF0
3FF0
3FF8
00F8
00F0
00F0
7FF0
FFE0
FFC0
ENDCHAR
STARTCHAR uni2076
ENCODING 8310
SWIDTH 378 0
DWIDTH 15 0
BBX 13 15 4 16
BITMAP
0FF8
1FF8
3FF8
7C00
7800
7800
77E0
FFF0
FFF0
F0F0
F0F0
F0F0
FFE0
FFE0
7FC0
ENDCHAR
STARTCHAR uni2077
ENCODING 8311
SWIDTH 328 0
DWIDTH 13 0
BBX 13 15 3 16
BITMAP
3FF8
3FF8
3FF8
00F0
00F0
01E0
03E0
07C0
0780
0F80
1F00
1E00
3E00
7C00
F800
ENDCHAR
STARTCHAR uni2078
ENCODING 8312
SWIDTH 390 0
DWIDTH 15 0
BBX 15 15 3 16
BITMAP
07F8
1FFC
1FFC
3C3E
3C3C
3C3C
1FF8
0FE0
3FF8
7878
7878
F078
7FF8
7FF0
3FE0
ENDCHAR
STARTCHAR uni2079
ENCODING 8313
SWIDTH 378 0
DWIDTH 15 0
BBX 14 15 3 16
BITMAP
07F0
1FF8
3FFC
3C3C
3C3C
383C
7CFC
3FF8
3FF8
0478
0078
00F0
7FF0
7FE0
FFC0
ENDCHAR
STARTCHAR uni2080
ENCODING 8320
SWIDTH 388 0
DWIDTH 15 0
BBX 14 15 -1 -4
BITMAP
07F8
1FFC
3FFC
3C3C
3C3C
3C3C
783C
7878
7878
7878
7878
F8F8
7FF0
7FF0
3FE0
ENDCHAR
STARTCHAR uni2081
ENCODING 8321
SWIDTH 230 0
DWIDTH 9 0
BBX 8 15 -1 -4
BITMAP
07
1F
7F
7F
6E
9E
1E
1E
1E
1C
3C
3C
3C
3C
78
ENDCHAR
STARTCHAR uni2082
ENCODING 8322
SWIDTH 352 0
DWIDTH 14 0
BBX 13 15 -1 -4
BITMAP
1FF0
1FF8
1FF8
0078
0078
0078
03F0
0FF0
3FC0
7E00
7800
F000
FFF0
FFE0
FFE0
ENDCHAR
STARTCHAR uni2083
ENCODING 8323
SWIDTH 349 0
DWIDTH 14 0
BBX 14 15 -2 -4
BITMAP
1FF0
1FF8
1FFC
003C
003C
0078
07F0
0FC0
0FF0
00F0
00F0
00F0
7FF0
7FE0
FFC0
ENDCHAR
STARTCHAR uni2084
ENCODING 8324
SWIDTH 370 0
DWIDTH 14 0
BBX 13 15 -1 -4
BITMAP
01E0
03C0
0780
0F80
0F00
1E00
3C70
3CF0
78E0
FFF8
FFF8
FFF8
01E0
03C0
03C0
ENDCHAR
STARTCHAR uni2085
ENCODING 8325
SWIDTH 360 0
DWIDTH 14 0
BBX 13 15 -1 -4
BITMAP
1FF8
1FF8
1FF8
3C00
3C00
3800
3FE0
3FF0
7FF0
00F0
00F0
00F0
FFE0
FFE0
FF80
ENDCHAR
STARTCHAR uni2086
ENCODING 8326
SWIDTH 378 0
DWIDTH 15 0
BBX 14 15 -1 -4
BITMAP
07FC
1FFC
1FF8
3E00
3C00
7800
7BF0
7FF8
7FF8
7878
F078
F070
7FF0
7FF0
3FC0
ENDCHAR
STARTCHAR uni2087
ENCODING 8327
SWIDTH 328 0
DWIDTH 13 0
BBX 13 15 -1 -4
BITMAP
3FF8
3FF8
7FF8
00F0
01F0
01E0
03C0
07C0
0780
0F00
1F00
3E00
3C00
7C00
F800
ENDCHAR
STARTCHAR uni2088
ENCODING 8328
SWIDTH 390 0
DWIDTH 15 0
BBX 14 15 -1 -4
BITMAP
07F0
1FFC
3FFC
3C3C
3C3C
3C3C
3FF8
0FE0
7FF8
7878
F078
F078
FFF0
7FF0
3FC0
ENDCHAR
STARTCHAR uni2089
ENCODING 8329
SWIDTH 378 0
DWIDTH 15 0
BBX 14 15 -1 -4
BITMAP
0FF0
1FF8
3FF8
3C3C
783C
7878
7CF8
7FF8
3FF8
0478
00F0
00F0
7FF0
FFE0
FF80
ENDCHAR
STARTCHAR colonmonetary
ENCODING 8353
SWIDTH 573 0
DWIDTH 22 0
BBX 26 33 2 -3
BITMAP
00007BC0
00007380
0000F780
007FFF00
03FFFF00
07FFFF00
0FFFFE00
0FFFFE00
1FE39C00
1FC7BC00
3F87BC00
3F873800
3F8F7800
7F0E7000
7F1EF000
7F1CF000
7F3CE000
7E3DE000
FE39C000
FE7BC000
FE738000
FEF78000
FEF78000
FEE70000
FFEF0000
FFFFC000
FFFF8000
7FFF8000
7FFF8000
1FFF8000
07380000
0F780000
0E700000
ENDCHAR
STARTCHAR franc
ENCODING 8355
SWIDTH 571 0
DWIDTH 22 0
BBX 26 27 -1 0
BITMAP
01FFFFC0
01FFFFC0
01FFFF80
01FFFF80
01FFFF80
03F80000
03F80000
03F80000
03F80000
03F00000
07F00000
07F00000
07FFFC00
07FFFC00
0FFFF800
0FFFF800
0FFFF800
0FE00000
0FC00000
1FC00000
FFFF0000
FFFF0000
FFFF0000
1F800000
3F800000
3F800000
3F800000
ENDCHAR
STARTCHAR lira
ENCODING 8356
SWIDTH 611 0
DWIDTH 24 0
BBX 25 27 0 0
BITMAP
0003FF80
001FFF80
003FFF80
007FFF80
00FFFF00
00FF0000
01FC0000
01FC0000
01FC0000
1FFFF800
1FFFF800
1FFFF800
03F80000
03F00000
07F00000
3FFFF000
3FFFF000
3FFFF000
07E00000
0FE00000
0FE00000
0FE00000
7FFFF800
7FFFF800
FFFFF800
FFFFF000
FFFFF000
ENDCHAR
STARTCHAR uni20A6
ENCODING 8358
SWIDTH 729 0
DWIDTH 28 0
BBX 28 27 1 0
BITMAP
07F803F0
07F803F0
07FC07F0
07FC07F0
07FC07E0
0FFE07E0
0FFE07E0
0FFF0FE0
0FFF0FE0
0FFF0FC0
1FFF8FC0
7FFFFFF0
FFFFFFF0
FFFFFFF0
FFFFFFF0
3F8FFF80
3F0FFF80
3F0FFF80
3F07FF00
7F07FF00
7F03FF00
7E03FF00
7E03FF00
7E01FE00
FE01FE00
FE00FE00
FC00FE00
ENDCHAR
STARTCHAR peseta
ENCODING 8359
SWIDTH 649 0
DWIDTH 25 0
BBX 27 27 1 0
BITMAP
07FFF800
07FFFF00
07FFFF80
07FFFF80
07FFFF80
0FE03F80
0FE03F80
7FFFFFE0
7FFFFFE0
7FFFFFE0
FFFFFFE0
1FC07F00
1FC07F00
1FFFFF00
3FFFFE00
3FFFFE00
3FFFFC00
3FFFF000
3F000000
7F000000
7F000000
7F000000
7F000000
7E000000
FE000000
FE000000
FE000000
ENDCHAR
STARTCHAR uni20A9
ENCODING 8361
SWIDTH 1003 0
DWIDTH 39 0
BBX 41 27 1 0
BITMAP
1FC03FC03F80
1FC03FC03F80
1FC03FC07F00
1FC07FC07F00
1FC07FC0FE00
1FC0FFC0FE00
1FC0FFC0FC00
1FC1FFC1FC00
1FC1FFC1FC00
1FC3FFC3F800
1FC3FFC3F800
1FC3EFC3F000
7FFFFFFFFC00
7FFFFFFFFC00
FFFFFFFFFC00
1FCF8FCFC000
1FDF8FCFC000
1FDF0FDFC000
1FFF07DF8000
1FFF07FF8000
1FFE07FF0000
1FFE07FF0000
0FFC07FE0000
0FFC07FE0000
0FF807FC0000
0FF807FC0000
0FF007FC0000
ENDCHAR
STARTCHAR dong
ENCODING 8363
SWIDTH 569 0
DWIDTH 22 0
BBX 25 29 0 0
BITMAP
00007E00
00007E00
000FFF80
000FFF80
000FFF80
000FFF80
0000FC00
0000FC00
0000FC00
01F9F800
07FDF800
0FFFF800
0FFFF800
1FC3F800
1F83F000
1F83F000
3F03F000
3F03F000
3F03F000
3F07E000
3F07E000
3F9FE000
3FFFE000
3FF7C000
3FE7C000
0FCFC000
00000000
FFFFC000
FFFF8000
ENDCHAR
STARTCHAR Euro
ENCODING 8364
SWIDTH 611 0
DWIDTH 24 0
BBX 24 27 1 0
BITMAP
001FFF
007FFF
00FFFF
01FFFF
03FFFE
03FC00
07F000
07F000
07E000
3FFFF8
7FFFF0
7FFFF0
0FC000
0FC000
1FC000
FFFFE0
FFFFE0
FFFFE0
1F8000
1F8000
3F8000
3FC000
1FFFF0
1FFFF0
1FFFE0
0FFFE0
03FFE0
ENDCHAR
STARTCHAR uni20AD
ENCODING 8365
SWIDTH 699 0
DWIDTH 27 0
BBX 29 27 1 0
BITMAP
07F003F8
07F007F0
07F00FE0
07F01FC0
07E03F80
0FE07F80
0FE0FF00
0FE1FE00
0FE3FC00
0FC3F800
1FC7F000
7FFFFF80
FFFFFF00
FFFFFF00
FFFFFF00
FFFFFF00
3F8FE000
3F8FE000
3F0FF000
7F07F000
7F07F800
7F03F800
7F03FC00
7E01FC00
FE01FE00
FE00FE00
FE00FF00
ENDCHAR
STARTCHAR uni20B1
ENCODING 8369
SWIDTH 639 0
DWIDTH 25 0
BBX 28 27 1 0
BITMAP
07FFF800
07FFFF00
07FFFF80
07FFFF80
07FFFF80
7FFFFFF0
7FFFFFF0
7FFFFFF0
0FE03F80
0FC03F80
FFFFFFE0
FFFFFFE0
FFFFFFE0
1FFFFF00
3FFFFE00
3FFFFE00
3FFFF800
3FFFF000
3F000000
7F000000
7F000000
7F000000
7F000000
7E000000
FE000000
FE000000
FE000000
ENDCHAR
STARTCHAR uni20B2
ENCODING 8370
SWIDTH 618 0
DWIDTH 24 0
BBX 22 27 2 0
BITMAP
000F00
001F00
001F00
01FFF0
07FFFC
0FFFF8
1FFFF8
1FFFF8
3FFC00
3FBC00
3F7C00
7F7C00
7F7FF8
7F7FF8
7E7FF0
FEFFF0
FEFFF0
FEFFF0
FEF7E0
FFFFE0
7FFFE0
7FFFC0
3FFF80
1FFF00
03E000
03E000
03E000
ENDCHAR
STARTCHAR uni20B5
ENCODING 8373
SWIDTH 573 0
DWIDTH 22 0
BBX 22 33 2 -3
BITMAP
0007C0
0007C0
0007C0
007FFC
03FFFC
07FFFC
0FFFF8
0FFFF8
1FEF00
1FCF00
3F9F00
3F9F00
3F9E00
7F1E00
7F3E00
7F3E00
7F3E00
7E3C00
FE3C00
FE7C00
FE7C00
FE7C00
FE7800
FE7800
FFF800
FFFFC0
FFFF80
7FFF80
7FFF80
1FFF80
01F000
01E000
03E000
ENDCHAR
STARTCHAR uni20B9
ENCODING 8377
SWIDTH 602 0
DWIDTH 23 0
BBX 25 27 2 0
BITMAP
1FFFFF80
1FFFFF80
1FFFFF00
1FFFF000
3FFFF800
0007F800
0003F800
3FFFFE00
3FFFFE00
7FFFFE00
0003F000
0007F000
007FE000
7FFFE000
FFFFC000
FFFF8000
FFFF0000
FF000000
7F800000
3FC00000
1FE00000
0FF00000
07F80000
03FC0000
01FE0000
00FE0000
00FF8000
ENDCHAR
STARTCHAR uni20BA
ENCODING 8378
SWIDTH 589 0
DWIDTH 23 0
BBX 23 27 0 0
BITMAP
03F800
03F800
03F800
03F800
07F000
07F000
07F000
07F3C0
07FF80
1FFF80
3FFC00
3FE000
6FE000
0FCF00
1FFF00
7FFF00
7FF000
FF807E
9F80FE
3F80FE
3F81FC
3F83FC
3FFFF8
7FFFF8
7FFFF0
7FFFC0
7FFE00
ENDCHAR
STARTCHAR uni20BC
ENCODING 8380
SWIDTH 690 0
DWIDTH 27 0
BBX 25 30 1 0
BITMAP
0001E000
0001C000
0003C000
003FFC00
00FFFF00
03FFFF80
03FFFF80
07FFFF80
07E7BF80
0FC79F80
0FC71F80
0FCF1F80
1FCF1F80
1F8F3F80
1F8F3F00
1F8E3F00
3F9E3F00
3F1E3F00
3F1E7F00
3F1C7E00
3F1C7E00
7F3C7E00
7E3CFE00
7E3CFE00
7E38FC00
FE38FC00
FE78FC00
FC79FC00
FC79F800
FC71F800
ENDCHAR
STARTCHAR uni20BD
ENCODING 8381
SWIDTH 649 0
DWIDTH 25 0
BBX 27 27 -1 0
BITMAP
01FFFE00
01FFFFC0
01FFFFE0
01FFFFE0
01FFFFE0
03F81FE0
03F80FE0
03F80FE0
03F80FE0
03F00FE0
07F00FE0
07F01FC0
07F01FC0
3FFFFFC0
3FFFFF80
7FFFFF80
7FFFFE00
7FFFFC00
0FC00000
1FC00000
1FC00000
FFFF0000
FFFF0000
FFFF0000
3F800000
3F800000
3F800000
ENDCHAR
STARTCHAR uni2113
ENCODING 8467
SWIDTH 526 0
DWIDTH 21 0
BBX 21 27 0 0
BITMAP
000FE0
003FF0
00FFF8
00FFF8
01FFF8
03F9F8
03F1F8
07F1F8
07E1F8
07E1F8
0FE3F0
0FE7F0
0FCFE0
1FFFC0
1FFF80
1FFF00
7FFE00
7FFC00
FFF000
FFC000
FF8000
1FC180
1FFF80
1FFF00
1FFF00
0FFF00
07FE00
ENDCHAR
STARTCHAR uni2116
ENCODING 8470
SWIDTH 1088 0
DWIDTH 42 0
BBX 42 27 1 0
BITMAP
07F803F07F80
07F803F0FFC0
07FC07F1FFC0
07FC07F1C3C0
07FC07E3C3C0
0FFE07E3C3C0
0FFE07E3C380
0FFF0FE3C780
0FFF0FE3C780
0FFF0FC3FF00
1FFF8FC3FF00
1FFF9FC01000
1F9FDFC00000
1F9FDFC00000
3F9FDF800000
3F8FFF87FE00
3F0FFF8FFE00
3F0FFF8FFE00
3F07FF0FFC00
7F07FF000000
7F03FF000000
7E03FF000000
7E03FF000000
7E01FE000000
FE01FE000000
FE00FE000000
FC00FE000000
ENDCHAR
STARTCHAR trademark
ENCODING 8482
SWIDTH 813 0
DWIDTH 32 0
BBX 27 12 5 15
BITMAP
FFE783E0
FFE783E0
FFEF87E0
0E0FC7C0
1E0FCFC0
1C0FCDC0
1C1EDDC0
1C1CFBC0
3C1CF380
3C1CF380
381CE380
3838E780
ENDCHAR
STARTCHAR uni2126
ENCODING 8486
SWIDTH 707 0
DWIDTH 28 0
BBX 27 27 0 0
BITMAP
001FFE00
007FFF80
01FFFFC0
03FFFFE0
03FFFFE0
07F81FE0
07F00FE0
0FE00FE0
0FE00FE0
0FE00FE0
0FE00FE0
1FC00FE0
1FC01FC0
1FC01FC0
1FC01FC0
1F801F80
1F801F80
1F803F80
1F803F00
1F807E00
0F807E00
0FC0F800
77E1F700
7FE3FF00
7FC3FF00
FFC3FF00
FFC3FE00
ENDCHAR
STARTCHAR estimated
ENCODING 8494
SWIDTH 720 0
DWIDTH 28 0
BBX 24 27 2 0
BITMAP
07FFE0
1F81F8
3F00FC
7F00FE
7E007E
7E007E
7E007E
FE007F
FE007F
FE007F
FE007F
FE007F
FE007F
FFFFFF
FE0000
FE0000
FE0000
FE0000
FE0000
FE0002
FE0002
7E0002
7E0006
7F0006
3F000C
1F8018
07FFF0
ENDCHAR
STARTCHAR uni2153
ENCODING 8531
SWIDTH 741 0
DWIDTH 29 0
BBX 29 27 -1 0
BITMAP
00F001E0
03E003C0
0FE00780
0FE00F80
0DE01F00
01E01E00
01C03C00
03C07800
03C0F000
03C1F000
03C3E000
0787C000
0787BFE0
078F3FF0
079E3FF8
003C0078
007C0078
00F800F0
00F00FF0
01E00FC0
03C01FE0
078000E0
0F0000E0
1F0001E0
3E00FFE0
3C00FFC0
F801FF80
ENDCHAR
STARTCHAR uni2154
ENCODING 8532
SWIDTH 863 0
DWIDTH 34 0
BBX 31 27 2 0
BITMAP
1FF00078
1FF800F0
1FFC01E0
003C03C0
003807C0
00780F80
01F81F00
0FF01E00
3FC03C00
7E007800
7800F000
7801F000
7FF3EFF8
FFF3CFFC
FFE78FFE
000F003E
001E003C
003C003C
007C03F8
00F807E0
00F007F8
01E00078
03C00078
07800078
0F803FF8
1F007FF0
3E007FE0
ENDCHAR
STARTCHAR oneeighth
ENCODING 8539
SWIDTH 782 0
DWIDTH 31 0
BBX 30 27 -1 0
BITMAP
00F001E0
03E003C0
0FE00780
0FE00F80
0DE01F00
01E01E00
01C03C00
03C07800
03C0F000
03C1F000
03C3E000
0787C000
078787F0
078F1FFC
079E3FFC
003C3C3C
007C3C3C
00F83C3C
00F03FF8
01E00FE0
03C07FF8
07807878
0F00F078
1F00F078
3E00FFF0
3C007FF0
F8003FC0
ENDCHAR
STARTCHAR threeeighths
ENCODING 8540
SWIDTH 901 0
DWIDTH 35 0
BBX 32 27 2 0
BITMAP
1FE000F8
1FF800F0
3FF801E0
007803C0
00780780
00F80F80
0FF01F00
0FC03E00
0FE03C00
00F07800
00F0F000
01F1E000
FFE3E3FC
FFE7C7FE
FF878FFF
000F0F0F
001E0E0F
003C0E0E
007C0FFE
00F807F8
01F01FFC
01E03C1E
03C03C1E
07803C3C
0F003FFC
1F003FF8
3E000FF0
ENDCHAR
STARTCHAR fiveeighths
ENCODING 8541
SWIDTH 912 0
DWIDTH 36 0
BBX 32 27 2 0
BITMAP
1FF8007C
1FF800F0
1FF801F0
1C0003E0
1C0007C0
3C000780
3FF00F00
3FF01E00
3FF83C00
00787C00
00F0F800
00F0F000
7FF1E1FC
7FE3C7FF
FFC787FF
000F0F0F
001F0F0F
003E0F0F
003C0FFE
007803F8
00F00FFE
01E01E1E
03E01C1E
07C03C1E
0F803FFC
0F001FFC
3E000FF8
ENDCHAR
STARTCHAR seveneighths
ENCODING 8542
SWIDTH 836 0
DWIDTH 33 0
BBX 30 27 1 0
BITMAP
1FFC01F0
1FFC03C0
1FFC07C0
007C0F80
00780F00
00F01E00
01F03C00
01E07800
03C0F000
07C1F000
0F83E000
0F03C000
1F0787F0
3E0F1FFC
7C1E1FFC
003E3C3C
007C3C3C
00F83C3C
00F03FF8
01E00FE0
03C03FF8
07807878
0F807878
1F00F078
1E00FFF0
3C007FF0
F8003FE0
ENDCHAR
STARTCHAR arrowleft
ENCODING 8592
SWIDTH 883 0
DWIDTH 34 0
BBX 30 10 2 7
BITMAP
00600000
01C00000
07C00000
1FFFFFFC
7FFFFFFC
FFFFFFFC
1FFFFFFC
07C00000
01C00000
00600000
ENDCHAR
STARTCHAR arrowup
ENCODING 8593
SWIDTH 395 0
DWIDTH 15 0
BBX 11 30 2 -3
BITMAP
0400
0400
0600
0E00
0F00
1F00
1F80
3F80
3FC0
7FC0
CF20
0F00
0F00
0F00
0F00
0F00
0F00
0F00
0F00
0F00
0F00
0F00
0F00
0F00
0F00
0F00
0F00
0F00
0F00
0F00
ENDCHAR
STARTCHAR arrowright
ENCODING 8594
SWIDTH 883 0
DWIDTH 34 0
BBX 30 10 2 7
BITMAP
00001800
00000E00
00000F80
FFFFFFE0
FFFFFFF8
FFFFFFFC
FFFFFFF0
00000FC0
00000E00
00001800
ENDCHAR
STARTCHAR arrowdown
ENCODING 8595
SWIDTH 395 0
DWIDTH 15 0
BBX 11 30 2 -3
BITMAP
0F00
0F00
0F00
0F00
0F00
0F00
0F00
0F00
0F00
0F00
0F00
0F00
0F00
0F00
0F00
0F00
0F00
0F00
0F00
8F20
7FE0
7FC0
3FC0
3F80
1F80
1F00
0F00
0E00
0600
0400
ENDCHAR
STARTCHAR arrowboth
ENCODING 8596
SWIDTH 883 0
DWIDTH 34 0
BBX 30 10 2 7
BITMAP
00201800
00C00E00
07C00F80
1FFFFFE0
7FFFFFF8
FFFFFFFC
1FFFFFF0
07C00FC0
01C00E00
00601800
ENDCHAR
STARTCHAR arrowupdn
ENCODING 8597
SWIDTH 395 0
DWIDTH 15 0
BBX 11 30 2 -3
BITMAP
0400
0600
0E00
0E00
1F00
1F00
3F80
3F80
7FC0
7FC0
8F20
0F00
0F00
0F00
0F00
0F00
0F00
0F00
0F00
8F20
7FE0
7FC0
3FC0
3F80
1F80
1F00
0F00
0E00
0600
0400
ENDCHAR
STARTCHAR arrowupdnbse
ENCODING 8616
SWIDTH 395 0
DWIDTH 15 0
BBX 11 35 2 -8
BITMAP
0400
0600
0E00
0E00
1F00
1F00
3F80
3F80
7FC0
7FC0
8F20
0F00
0F00
0F00
0F00
0F00
0F00
0F00
0F00
8F20
7FE0
7FC0
3FC0
3F80
1F80
1F00
0F00
0E00
0600
0400
0000
0000
FFE0
FFE0
FFE0
ENDCHAR
STARTCHAR partialdiff
ENCODING 8706
SWIDTH 585 0
DWIDTH 23 0
BBX 21 29 1 0
BITMAP
003F80
001FC0
000FE0
000FE0
0007F0
0007F0
0003F0
0003F8
0003F8
03FFF8
0FFFF8
1FFFF8
1FFFF8
3FEFF8
3F03F8
3F03F8
7F03F0
7E03F0
7E03F0
7E03F0
FE07F0
FE07E0
FC07E0
FC0FE0
FE1FC0
FFFFC0
FFFFC0
7FFF80
3FFE00
ENDCHAR
STARTCHAR uni2206
ENCODING 8710
SWIDTH 688 0
DWIDTH 27 0
BBX 27 27 -2 0
BITMAP
0003FF00
0003FF00
0007FF00
0007FF00
000FFF00
000FFF00
001FBF00
001FBF00
003F1F80
007F1F80
007E1F80
00FE1F80
00FC1F80
01FC1F80
01F81F80
03F81F80
03F01F80
07F01FC0
07E00FC0
0FE00FC0
0FC00FC0
1FC00FC0
1FFFFFC0
3FFFFFC0
3FFFFFC0
7FFFFFC0
FFFFFFE0
ENDCHAR
STARTCHAR product
ENCODING 8719
SWIDTH 735 0
DWIDTH 29 0
BBX 30 34 -1 -7
BITMAP
01FFFFFC
01FFFFFC
01FFFFFC
01FFFFFC
01FFFFFC
03F803F8
03F803F8
03F803F8
03F803F8
03F003F0
07F007F0
07F007F0
07F007F0
07F007F0
0FE00FE0
0FE00FE0
0FE00FE0
0FE00FE0
0FE00FE0
1FC01FC0
1FC01FC0
1FC01FC0
1FC01FC0
1F801F80
3F803F80
3F803F80
3F803F80
3F803F80
7F007F00
7F007F00
7F007F00
7F007F00
7F007F00
FE00FE00
ENDCHAR
STARTCHAR summation
ENCODING 8721
SWIDTH 729 0
DWIDTH 28 0
BBX 30 34 -1 -7
BITMAP
01FFFFFC
01FFFFFC
01FFFFFC
01FFFFFC
03FFFFF8
01FE0000
01FE0000
00FF0000
007F8000
007F8000
003FC000
001FE000
001FF000
000FF000
0007F800
0003FC00
0003FC00
0003FE00
0007FC00
000FF000
001FE000
003FC000
007F8000
00FF0000
03FE0000
07FC0000
0FF80000
1FF00000
3FE00000
7FFFFF00
7FFFFF00
7FFFFF00
7FFFFE00
FFFFFE00
ENDCHAR
STARTCHAR minus
ENCODING 8722
SWIDTH 546 0
DWIDTH 21 0
BBX 17 4 2 8
BITMAP
7FFF80
7FFF80
7FFF00
FFFF00
ENDCHAR
STARTCHAR uni2215
ENCODING 8725
SWIDTH 391 0
DWIDTH 15 0
BBX 21 27 -2 0
BITMAP
000078
0000F0
0000E0
0001E0
0003C0
000380
000780
000F00
000F00
001E00
003C00
003C00
007800
007000
00F000
01E000
01C000
03C000
078000
070000
0F0000
1E0000
1E0000
3C0000
780000
780000
F00000
ENDCHAR
STARTCHAR uni2219
ENCODING 8729
SWIDTH 393 0
DWIDTH 15 0
BBX 11 9 3 9
BITMAP
3FE0
7FE0
7FE0
7FC0
7FC0
FFC0
FFC0
FFC0
FF80
ENDCHAR
STARTCHAR radical
ENCODING 8730
SWIDTH 748 0
DWIDTH 29 0
BBX 30 34 1 -4
BITMAP
000000FC
000000F8
000001F8
000001F8
000003F0
000003F0
000007E0
000007E0
00000FC0
00000FC0
00001F80
00001F80
00001F00
00003F00
00003E00
00007E00
01007C00
0700FC00
3F00F800
FF01F800
FF81F000
DF83F000
1F83E000
1F87E000
0FC7C000
0FCFC000
0FCF8000
07FF8000
07FF8000
07FF0000
07FF0000
03FE0000
03FE0000
03FC0000
ENDCHAR
STARTCHAR infinity
ENCODING 8734
SWIDTH 1037 0
DWIDTH 40 0
BBX 38 16 1 2
BITMAP
07FF007FE0
0FFFC1FFF8
1FFFE3FFFC
3FFFE7FFFC
3E01FF807C
7C00FF007C
7C00FE007C
78007C007C
78007C007C
F800FC007C
F801FE00F8
FC07DF01F8
FFFFDFFFF0
7FFF8FFFF0
3FFF07FFE0
1FFC03FF80
ENDCHAR
STARTCHAR integral
ENCODING 8747
SWIDTH 468 0
DWIDTH 18 0
BBX 21 34 -2 -7
BITMAP
0007F8
001FF8
003FF8
003FF8
007F80
007F00
007E00
007E00
007E00
007E00
00FE00
00FE00
00FE00
00FC00
00FC00
00FC00
00FC00
01FC00
01FC00
01FC00
01F800
01F800
01F800
01F800
03F800
03F800
03F800
03F000
03F000
07F000
7FF000
7FE000
FFC000
FF8000
ENDCHAR
STARTCHAR approxequal
ENCODING 8776
SWIDTH 499 0
DWIDTH 19 0
BBX 16 14 2 3
BITMAP
0007
3F07
7FFF
7FFF
FFFE
E07C
0000
0000
3C0E
7FFE
FFFE
FFFE
E3FC
E000
ENDCHAR
STARTCHAR notequal
ENCODING 8800
SWIDTH 546 0
DWIDTH 21 0
BBX 18 20 2 0
BITMAP
000780
000F00
000F00
001E00
3FFFC0
3FFFC0
3FFF80
7FFF80
00F000
01E000
03C000
03C000
FFFF00
FFFF00
FFFF00
FFFE00
3C0000
3C0000
780000
F00000
ENDCHAR
STARTCHAR lessequal
ENCODING 8804
SWIDTH 547 0
DWIDTH 21 0
BBX 20 23 1 0
BITMAP
000030
0000F0
0007F0
003FE0
01FFE0
0FFF00
1FF800
1FC000
1F8000
3FE000
1FFC00
07FF00
01FFC0
003F80
000F80
000180
000000
000000
000000
FFFF00
FFFF00
FFFF00
FFFE00
ENDCHAR
STARTCHAR greaterequal
ENCODING 8805
SWIDTH 546 0
DWIDTH 21 0
BBX 20 23 0 0
BITMAP
060000
078000
07F000
07FC00
07FF80
00FFE0
003FF0
0007F0
0007E0
003FE0
01FFE0
0FFF00
1FF800
1FC000
3E0000
300000
000000
000000
000000
7FFF80
7FFF80
7FFF80
FFFF00
ENDCHAR
STARTCHAR house
ENCODING 8962
SWIDTH 779 0
DWIDTH 30 0
BBX 27 27 2 0
BITMAP
003F0000
007F8000
00FFC000
01FBE000
03F1F000
07E0F800
0FC07C00
1F803E00
3F001F00
7E000F80
FC0007C0
F80003E0
F00003E0
F00003E0
F00003E0
F00003E0
F00003E0
F00003E0
F00003E0
F00003E0
F00003E0
F00003E0
F00003E0
FFFFFFE0
FFFFFFE0
FFFFFFE0
FFFFFFE0
ENDCHAR
STARTCHAR lozenge
ENCODING 9674
SWIDTH 540 0
DWIDTH 21 0
BBX 18 27 2 0
BITMAP
007E00
007E00
00FE00
01FE00
01EF00
03CF00
07CF00
078F80
0F0780
1F0780
3E07C0
3C03C0
7803C0
F803C0
F807C0
780780
780F00
7C1F00
3C3E00
3C3C00
3C7800
3EF800
1EF000
1FE000
1FE000
0FC000
0F8000
ENDCHAR
STARTCHAR uni27E8
ENCODING 10216
SWIDTH 317 0
DWIDTH 12 0
BBX 15 31 1 -2
BITMAP
007E
00FC
01F8
01F8
03F0
03E0
07E0
07C0
0FC0
1F80
1F80
3F00
3E00
7E00
7C00
FC00
F800
F800
F800
7C00
7C00
7C00
7C00
7C00
7C00
7E00
3E00
3E00
3E00
3E00
3E00
ENDCHAR
STARTCHAR uni27E9
ENCODING 10217
SWIDTH 317 0
DWIDTH 12 0
BBX 15 31 -2 -2
BITMAP
01F8
00F8
00F8
00F8
00F8
00F8
00F8
007C
007C
007C
007C
007C
007C
003E
003E
007E
007C
00FC
01F8
01F8
03F0
03E0
07E0
07C0
0FC0
1F80
1F80
3F00
3E00
7E00
FC00
ENDCHAR
STARTCHAR uniA78B
ENCODING 42891
SWIDTH 209 0
DWIDTH 8 0
BBX 9 16 1 11
BITMAP
0F80
0F80
1F80
1F80
1F80
1F00
1F00
3F00
3E00
3E00
3E00
7C00
7C00
7C00
7800
F800
ENDCHAR
STARTCHAR uniA78C
ENCODING 42892
SWIDTH 209 0
DWIDTH 8 0
BBX 10 18 1 11
BITMAP
0FC0
0FC0
0F80
0F80
1F80
1F80
1F80
1F00
1F00
3F00
3E00
3E00
3E00
7C00
7C00
7C00
7800
F800
ENDCHAR
STARTCHAR uniE0FF
ENCODING 57599
SWIDTH 841 0
DWIDTH 33 0
BBX 27 27 4 0
BITMAP
FFFFFFE0
FFFFFFE0
FFFFFFE0
FFFFFFE0
FFFFFFE0
FFC0FFE0
FF003FE0
FE001FE0
FC000FE0
FC1E0FE0
FC1F07E0
FC1F07E0
FC1F07E0
FC1F07E0
FC1F07E0
FC1F07E0
FC1E07E0
FC0E0FE0
FE000FE0
FE001FE0
FF803FE0
FFE1FFE0
FFFFFFE0
FFFFFFE0
FFFFFFE0
FFFFFFE0
FFFFFFE0
ENDCHAR
STARTCHAR uniEFFD
ENCODING 61437
SWIDTH 886 0
DWIDTH 35 0
BBX 27 44 4 -3
BITMAP
00040000
00040000
000C0000
000C0000
01FFE000
007FC000
003F0000
001F0000
001F0000
00330000
00218000
00408000
00000000
00000000
FFFFFFE0
FFFFFFE0
FFFFFFE0
FFFFFFE0
F0E1E1E0
F0E1E1E0
F0E1E1E0
F0E1E1E0
F0E1E1E0
F0E1E1E0
F0E1E1E0
F0E1E1E0
F0E1E1E0
F0E1E1E0
F0E1E1E0
F0E1E1E0
F0E1E1E0
F0E1E1E0
F0E1E1E0
F0E1E1E0
F0E1E1E0
F0E1E1E0
F0E1E1E0
F0E1E1E0
F0E1E1E0
F0E1E1C0
3FE1FF80
00338000
000E0000
00040000
ENDCHAR
STARTCHAR uniF000
ENCODING 61440
SWIDTH 600 0
DWIDTH 23 0
BBX 1 1 0 0
BITMAP
00
ENDCHAR
STARTCHAR uniF8FF
ENCODING 63743
SWIDTH 841 0
DWIDTH 33 0
BBX 27 27 4 0
BITMAP
FFFFFFE0
FFFFFFE0
FFFFFFE0
FFFFFFE0
FFFFFFE0
FFC0FFE0
FF003FE0
FE001FE0
FC000FE0
FC1E0FE0
FC1F07E0
FC1F07E0
FC1F07E0
FC1F07E0
FC1F07E0
FC1F07E0
FC1E07E0
FC0E0FE0
FE000FE0
FE001FE0
FF803FE0
FFE1FFE0
FFFFFFE0
FFFFFFE0
FFFFFFE0
FFFFFFE0
FFFFFFE0
ENDCHAR
STARTCHAR fi
ENCODING 64257
SWIDTH 720 0
DWIDTH 28 0
BBX 32 37 -2 -8
BITMAP
0003FC7F
000FFC7F
001FF87E
003FF87E
003FC0FE
003F0000
007F0000
007F0000
007E0000
07FFF1FC
07FFF1FC
07FFE1F8
0FFFE1F8
0FFFE1F8
00FC03F8
01FC03F8
01FC03F0
01F803F0
01F803F0
01F807F0
03F807F0
03F807E0
03F007E0
03F007E0
03F00FE0
07F00FC0
07F00FC0
07E00FC0
07E01FC0
0FE00000
0FE00000
0FC00000
7FC00000
FFC00000
FF800000
FF000000
F8000000
ENDCHAR
STARTCHAR fl
ENCODING 64258
SWIDTH 697 0
DWIDTH 27 0
BBX 31 37 -2 -8
BITMAP
0003FC7E
000FFCFE
001FF8FE
003FF8FC
003FC0FC
003F00FC
007F01FC
007F01F8
007E01F8
07FFF1F8
07FFF3F8
07FFE3F8
0FFFE3F0
0FFFE3F0
00FC03F0
01FC07F0
01FC07F0
01F807E0
01F807E0
01F807E0
03F80FE0
03F80FE0
03F00FC0
03F00FC0
03F00FC0
07F01FC0
07F01F80
07E01F80
07E01F80
0FE00000
0FE00000
0FC00000
7FC00000
FFC00000
FF800000
FF000000
F8000000
ENDCHAR
STARTCHAR .notdef
ENCODING -1
SWIDTH 792 0
DWIDTH 31 0
BBX 19 27 7 0
BITMAP
FFFFE0
FFFFE0
E001E0
F001E0
F80360
D80760
CC0660
CE0C60
C61C60
C31860
C3B060
C1F060
C0E060
C0E060
C1E060
C1B060
C33860
C71860
C60C60
CC0E60
DC0660
D80360
F003E0
F001E0
E000E0
FFFFE0
FFFFE0
ENDCHAR
STARTCHAR uni004A0301
ENCODING -1
SWIDTH 723 0
DWIDTH 28 0
BBX 32 35 1 0
BITMAP
007F007F
007E007C
00FC00F8
01F801F0
01F001E0
03E003E0
00000000
00000000
07F007F0
07F007F0
07F007F0
07F007F0
07E00FE0
0FE00FE0
0FE00FE0
0FE00FE0
0FE00FC0
0FC01FC0
1FC01FC0
1FC01FC0
1FC01FC0
1FC01F80
3F803F80
3F803F80
3F803F80
3F803F80
3F007F00
7F007F00
7F007F00
7F00FF00
7F1FFE00
7E1FFE00
FE1FFC00
FE1FF800
FE3FE000
ENDCHAR
STARTCHAR Y.loclGUA
ENCODING -1
SWIDTH 654 0
DWIDTH 26 0
BBX 24 27 3 0
BITMAP
3F807F
3F807F
7F007E
7F00FE
7F00FE
7F00FE
7E00FE
FE00FC
FE01FC
FE01FC
FE01FC
FC01F8
FC03F8
FE07F8
FFFFF0
FFFFF0
FFFFE0
7FFFC0
3FFF80
03F800
07F000
07F000
07F000
07F000
07E000
0FE000
0FE000
ENDCHAR
STARTCHAR Yacute.loclGUA
ENCODING -1
SWIDTH 654 0
DWIDTH 26 0
BBX 24 35 3 0
BITMAP
0003F0
0007E0
000FC0
000F80
001F00
003E00
000000
000000
3F807F
3F807F
7F007E
7F00FE
7F00FE
7F00FE
7E00FE
FE00FC
FE01FC
FE01FC
FE01FC
FC01F8
FC03F8
FE07F8
FFFFF0
FFFFF0
FFFFE0
7FFFC0
3FFF80
03F800
07F000
07F000
07F000
07F000
07E000
0FE000
0FE000
ENDCHAR
STARTCHAR Ycircumflex.loclGUA
ENCODING -1
SWIDTH 654 0
DWIDTH 26 0
BBX 24 35 3 0
BITMAP
001FC0
003FC0
007FE0
00F9E0
01F0F0
01E0F0
000000
000000
3F807F
3F807F
7F007E
7F00FE
7F00FE
7F00FE
7E00FE
FE00FC
FE01FC
FE01FC
FE01FC
FC01F8
FC03F8
FE07F8
FFFFF0
FFFFF0
FFFFE0
7FFFC0
3FFF80
03F800
07F000
07F000
07F000
07F000
07E000
0FE000
0FE000
ENDCHAR
STARTCHAR Ydieresis.loclGUA
ENCODING -1
SWIDTH 654 0
DWIDTH 26 0
BBX 24 34 3 0
BITMAP
00F8F8
01F8F8
01F0F8
01F1F0
000000
000000
000000
3F807F
3F807F
7F007E
7F00FE
7F00FE
7F00FE
7E00FE
FE00FC
FE01FC
FE01FC
FE01FC
FC01F8
FC03F8
FE07F8
FFFFF0
FFFFF0
FFFFE0
7FFFC0
3FFF80
03F800
07F000
07F000
07F000
07F000
07E000
0FE000
0FE000
ENDCHAR
ENDFONT
